<svg xmlns="http://www.w3.org/2000/svg" xmlns:xlink="http://www.w3.org/1999/xlink" width="500" zoomAndPan="magnify" viewBox="0 0 375 374.999991" height="500" preserveAspectRatio="xMidYMid meet" version="1.0"><defs><clipPath id="50d3345e18"><path d="M 0 198.710938 L 97 198.710938 L 97 294.710938 L 0 294.710938 Z M 0 198.710938 " clip-rule="nonzero"/></clipPath><clipPath id="12039ae385"><path d="M 129 69.972656 L 245.828125 69.972656 L 245.828125 217.722656 L 129 217.722656 Z M 129 69.972656 " clip-rule="nonzero"/></clipPath><clipPath id="94b44d9d80"><path d="M 12.25 114 L 77 114 L 77 178.609375 L 12.25 178.609375 Z M 12.25 114 " clip-rule="nonzero"/></clipPath><clipPath id="0d95ca66b4"><path d="M 42 109.609375 L 82 109.609375 L 82 149 L 42 149 Z M 42 109.609375 " clip-rule="nonzero"/></clipPath><clipPath id="317a6daba0"><path d="M 246.171875 109.609375 L 341.421875 109.609375 L 341.421875 209.359375 L 246.171875 209.359375 Z M 246.171875 109.609375 " clip-rule="nonzero"/></clipPath></defs><g clip-path="url(#50d3345e18)"><path fill="#722f37" d="M 0.117188 246.757812 C 0.117188 248.332031 0.195312 249.902344 0.351562 251.46875 C 0.503906 253.035156 0.738281 254.589844 1.046875 256.132812 C 1.355469 257.675781 1.738281 259.199219 2.199219 260.707031 C 2.65625 262.210938 3.191406 263.691406 3.796875 265.144531 C 4.402344 266.597656 5.078125 268.019531 5.824219 269.40625 C 6.570312 270.796875 7.382812 272.144531 8.261719 273.453125 C 9.140625 274.761719 10.082031 276.023438 11.085938 277.238281 C 12.09375 278.457031 13.152344 279.621094 14.273438 280.734375 C 15.390625 281.847656 16.5625 282.902344 17.789062 283.898438 C 19.011719 284.898438 20.28125 285.835938 21.597656 286.707031 C 22.914062 287.582031 24.269531 288.390625 25.664062 289.132812 C 27.0625 289.875 28.492188 290.546875 29.953125 291.148438 C 31.414062 291.75 32.902344 292.28125 34.417969 292.738281 C 35.933594 293.195312 37.46875 293.574219 39.019531 293.882812 C 40.574219 294.191406 42.136719 294.421875 43.710938 294.574219 C 45.285156 294.730469 46.867188 294.804688 48.449219 294.804688 C 50.03125 294.804688 51.609375 294.730469 53.1875 294.574219 C 54.761719 294.421875 56.324219 294.191406 57.878906 293.882812 C 59.429688 293.574219 60.964844 293.195312 62.480469 292.738281 C 63.992188 292.28125 65.480469 291.75 66.945312 291.148438 C 68.40625 290.546875 69.835938 289.875 71.230469 289.132812 C 72.628906 288.390625 73.984375 287.582031 75.300781 286.707031 C 76.617188 285.835938 77.886719 284.898438 79.109375 283.898438 C 80.332031 282.902344 81.503906 281.847656 82.625 280.734375 C 83.742188 279.621094 84.804688 278.457031 85.808594 277.238281 C 86.8125 276.023438 87.757812 274.761719 88.636719 273.453125 C 89.515625 272.144531 90.328125 270.796875 91.074219 269.40625 C 91.820312 268.019531 92.496094 266.597656 93.101562 265.144531 C 93.707031 263.691406 94.238281 262.210938 94.699219 260.707031 C 95.160156 259.199219 95.542969 257.675781 95.851562 256.132812 C 96.160156 254.589844 96.394531 253.035156 96.546875 251.46875 C 96.703125 249.902344 96.78125 248.332031 96.78125 246.757812 C 96.78125 245.183594 96.703125 243.617188 96.546875 242.050781 C 96.394531 240.484375 96.160156 238.929688 95.851562 237.386719 C 95.542969 235.84375 95.160156 234.316406 94.699219 232.8125 C 94.238281 231.304688 93.707031 229.824219 93.101562 228.371094 C 92.496094 226.917969 91.820312 225.496094 91.074219 224.109375 C 90.328125 222.722656 89.515625 221.375 88.636719 220.066406 C 87.757812 218.757812 86.8125 217.496094 85.808594 216.277344 C 84.804688 215.0625 83.742188 213.898438 82.625 212.785156 C 81.503906 211.671875 80.332031 210.617188 79.109375 209.617188 C 77.886719 208.621094 76.617188 207.683594 75.300781 206.808594 C 73.984375 205.933594 72.628906 205.128906 71.230469 204.386719 C 69.835938 203.644531 68.40625 202.972656 66.945312 202.371094 C 65.480469 201.765625 63.992188 201.238281 62.480469 200.78125 C 60.964844 200.324219 59.429688 199.941406 57.878906 199.636719 C 56.324219 199.328125 54.761719 199.097656 53.1875 198.941406 C 51.609375 198.789062 50.03125 198.710938 48.449219 198.710938 C 46.867188 198.710938 45.285156 198.789062 43.710938 198.941406 C 42.136719 199.097656 40.574219 199.328125 39.019531 199.636719 C 37.46875 199.941406 35.933594 200.324219 34.417969 200.78125 C 32.902344 201.238281 31.414062 201.765625 29.953125 202.371094 C 28.492188 202.972656 27.0625 203.644531 25.664062 204.386719 C 24.269531 205.128906 22.914062 205.933594 21.597656 206.808594 C 20.28125 207.683594 19.011719 208.621094 17.789062 209.617188 C 16.5625 210.617188 15.390625 211.671875 14.273438 212.785156 C 13.152344 213.898438 12.09375 215.0625 11.085938 216.277344 C 10.082031 217.496094 9.140625 218.757812 8.261719 220.066406 C 7.382812 221.375 6.570312 222.722656 5.824219 224.109375 C 5.078125 225.496094 4.402344 226.917969 3.796875 228.371094 C 3.191406 229.824219 2.65625 231.304688 2.199219 232.8125 C 1.738281 234.316406 1.355469 235.84375 1.046875 237.386719 C 0.738281 238.929688 0.503906 240.484375 0.351562 242.050781 C 0.195312 243.617188 0.117188 245.183594 0.117188 246.757812 Z M 0.117188 246.757812 " fill-opacity="1" fill-rule="nonzero"/></g><path fill="#722f37" d="M 92.726562 210.050781 L 360.46875 210.050781 C 368.429688 210.050781 374.882812 216.503906 374.882812 224.464844 L 374.882812 269.121094 C 374.882812 277.082031 368.429688 283.535156 360.46875 283.535156 L 93.1875 283.535156 C 101.855469 273.828125 107.121094 261.050781 107.121094 247.050781 C 107.121094 232.800781 101.667969 219.820312 92.726562 210.050781 Z M 92.726562 210.050781 " fill-opacity="1" fill-rule="evenodd"/><path fill="#ffffff" d="M 146.28125 243.164062 L 141.050781 243.164062 C 140.957031 242.488281 140.761719 241.886719 140.464844 241.359375 C 140.171875 240.828125 139.792969 240.375 139.332031 240 C 138.871094 239.625 138.335938 239.339844 137.730469 239.140625 C 137.132812 238.941406 136.484375 238.839844 135.785156 238.839844 C 134.519531 238.839844 133.414062 239.15625 132.476562 239.785156 C 131.535156 240.40625 130.808594 241.3125 130.289062 242.507812 C 129.773438 243.695312 129.511719 245.136719 129.511719 246.832031 C 129.511719 248.574219 129.773438 250.039062 130.289062 251.226562 C 130.816406 252.414062 131.546875 253.308594 132.488281 253.914062 C 133.425781 254.519531 134.515625 254.820312 135.746094 254.820312 C 136.441406 254.820312 137.082031 254.730469 137.671875 254.546875 C 138.269531 254.363281 138.796875 254.097656 139.257812 253.746094 C 139.722656 253.386719 140.101562 252.953125 140.40625 252.445312 C 140.714844 251.933594 140.929688 251.355469 141.050781 250.699219 L 146.28125 250.726562 C 146.148438 251.847656 145.808594 252.929688 145.265625 253.972656 C 144.734375 255.007812 144.011719 255.9375 143.105469 256.757812 C 142.207031 257.570312 141.128906 258.214844 139.878906 258.691406 C 138.636719 259.160156 137.234375 259.394531 135.664062 259.394531 C 133.484375 259.394531 131.53125 258.902344 129.8125 257.914062 C 128.101562 256.925781 126.746094 255.5 125.75 253.628906 C 124.765625 251.757812 124.269531 249.492188 124.269531 246.832031 C 124.269531 244.164062 124.773438 241.894531 125.773438 240.023438 C 126.777344 238.152344 128.140625 236.726562 129.859375 235.746094 C 131.578125 234.761719 133.515625 234.265625 135.664062 234.265625 C 137.082031 234.265625 138.394531 234.464844 139.605469 234.863281 C 140.824219 235.261719 141.902344 235.84375 142.84375 236.609375 C 143.78125 237.363281 144.546875 238.292969 145.136719 239.390625 C 145.734375 240.488281 146.113281 241.746094 146.28125 243.164062 Z M 146.28125 243.164062 " fill-opacity="1" fill-rule="nonzero"/><path fill="#ffffff" d="M 172.46875 246.832031 C 172.46875 249.5 171.960938 251.769531 170.953125 253.640625 C 169.949219 255.511719 168.578125 256.9375 166.84375 257.925781 C 165.113281 258.90625 163.171875 259.394531 161.015625 259.394531 C 158.839844 259.394531 156.890625 258.902344 155.164062 257.914062 C 153.433594 256.925781 152.070312 255.5 151.066406 253.628906 C 150.0625 251.757812 149.5625 249.492188 149.5625 246.832031 C 149.5625 244.164062 150.0625 241.894531 151.066406 240.023438 C 152.070312 238.152344 153.433594 236.726562 155.164062 235.746094 C 156.890625 234.761719 158.839844 234.265625 161.015625 234.265625 C 163.171875 234.265625 165.113281 234.761719 166.84375 235.746094 C 168.578125 236.726562 169.949219 238.152344 170.953125 240.023438 C 171.960938 241.894531 172.46875 244.164062 172.46875 246.832031 Z M 167.226562 246.832031 C 167.226562 245.101562 166.964844 243.644531 166.449219 242.460938 C 165.9375 241.273438 165.21875 240.375 164.285156 239.761719 C 163.355469 239.148438 162.265625 238.839844 161.015625 238.839844 C 159.765625 238.839844 158.671875 239.148438 157.742188 239.761719 C 156.808594 240.375 156.085938 241.273438 155.566406 242.460938 C 155.058594 243.644531 154.804688 245.101562 154.804688 246.832031 C 154.804688 248.558594 155.058594 250.015625 155.566406 251.203125 C 156.085938 252.390625 156.808594 253.289062 157.742188 253.902344 C 158.671875 254.515625 159.765625 254.820312 161.015625 254.820312 C 162.265625 254.820312 163.355469 254.515625 164.285156 253.902344 C 165.21875 253.289062 165.9375 252.390625 166.449219 251.203125 C 166.964844 250.015625 167.226562 248.558594 167.226562 246.832031 Z M 167.226562 246.832031 " fill-opacity="1" fill-rule="nonzero"/><path fill="#ffffff" d="M 196.757812 234.601562 L 196.757812 259.0625 L 192.292969 259.0625 L 181.648438 243.667969 L 181.46875 243.667969 L 181.46875 259.0625 L 176.300781 259.0625 L 176.300781 234.601562 L 180.835938 234.601562 L 191.394531 249.984375 L 191.609375 249.984375 L 191.609375 234.601562 Z M 196.757812 234.601562 " fill-opacity="1" fill-rule="nonzero"/><path fill="#ffffff" d="M 200.101562 238.863281 L 200.101562 234.601562 L 220.1875 234.601562 L 220.1875 238.863281 L 212.699219 238.863281 L 212.699219 259.0625 L 207.585938 259.0625 L 207.585938 238.863281 Z M 200.101562 238.863281 " fill-opacity="1" fill-rule="nonzero"/><path fill="#ffffff" d="M 224.726562 259.0625 L 219.183594 259.0625 L 227.625 234.601562 L 234.289062 234.601562 L 242.722656 259.0625 L 237.179688 259.0625 L 231.054688 240.191406 L 230.863281 240.191406 Z M 224.375 249.445312 L 237.46875 249.445312 L 237.46875 253.484375 L 224.375 253.484375 Z M 224.375 249.445312 " fill-opacity="1" fill-rule="nonzero"/><path fill="#ffffff" d="M 266.097656 243.164062 L 260.867188 243.164062 C 260.769531 242.488281 260.578125 241.886719 260.285156 241.359375 C 259.988281 240.828125 259.609375 240.375 259.148438 240 C 258.6875 239.625 258.152344 239.339844 257.546875 239.140625 C 256.949219 238.941406 256.300781 238.839844 255.601562 238.839844 C 254.335938 238.839844 253.230469 239.15625 252.292969 239.785156 C 251.351562 240.40625 250.625 241.3125 250.105469 242.507812 C 249.589844 243.695312 249.332031 245.136719 249.332031 246.832031 C 249.332031 248.574219 249.589844 250.039062 250.105469 251.226562 C 250.632812 252.414062 251.363281 253.308594 252.304688 253.914062 C 253.242188 254.519531 254.332031 254.820312 255.566406 254.820312 C 256.257812 254.820312 256.898438 254.730469 257.488281 254.546875 C 258.085938 254.363281 258.613281 254.097656 259.078125 253.746094 C 259.539062 253.386719 259.921875 252.953125 260.222656 252.445312 C 260.53125 251.933594 260.75 251.355469 260.867188 250.699219 L 266.097656 250.726562 C 265.964844 251.847656 265.625 252.929688 265.085938 253.972656 C 264.550781 255.007812 263.828125 255.9375 262.921875 256.757812 C 262.023438 257.570312 260.949219 258.214844 259.695312 258.691406 C 258.457031 259.160156 257.050781 259.394531 255.480469 259.394531 C 253.300781 259.394531 251.347656 258.902344 249.628906 257.914062 C 247.917969 256.925781 246.5625 255.5 245.566406 253.628906 C 244.582031 251.757812 244.085938 249.492188 244.085938 246.832031 C 244.085938 244.164062 244.589844 241.894531 245.59375 240.023438 C 246.597656 238.152344 247.957031 236.726562 249.675781 235.746094 C 251.398438 234.761719 253.332031 234.265625 255.480469 234.265625 C 256.898438 234.265625 258.210938 234.464844 259.421875 234.863281 C 260.640625 235.261719 261.71875 235.84375 262.660156 236.609375 C 263.597656 237.363281 264.363281 238.292969 264.953125 239.390625 C 265.550781 240.488281 265.933594 241.746094 266.097656 243.164062 Z M 266.097656 243.164062 " fill-opacity="1" fill-rule="nonzero"/><path fill="#ffffff" d="M 268.875 238.863281 L 268.875 234.601562 L 288.964844 234.601562 L 288.964844 238.863281 L 281.476562 238.863281 L 281.476562 259.0625 L 276.363281 259.0625 L 276.363281 238.863281 Z M 268.875 238.863281 " fill-opacity="1" fill-rule="nonzero"/><path fill="#ffffff" d="M 315.167969 234.601562 L 320.339844 234.601562 L 320.339844 250.484375 C 320.339844 252.269531 319.910156 253.828125 319.058594 255.167969 C 318.214844 256.503906 317.03125 257.546875 315.511719 258.296875 C 313.992188 259.039062 312.21875 259.40625 310.195312 259.40625 C 308.167969 259.40625 306.390625 259.039062 304.871094 258.296875 C 303.351562 257.546875 302.167969 256.503906 301.324219 255.167969 C 300.480469 253.828125 300.054688 252.269531 300.054688 250.484375 L 300.054688 234.601562 L 305.226562 234.601562 L 305.226562 250.042969 C 305.226562 250.976562 305.433594 251.804688 305.835938 252.527344 C 306.253906 253.253906 306.832031 253.820312 307.582031 254.234375 C 308.332031 254.648438 309.203125 254.855469 310.195312 254.855469 C 311.203125 254.855469 312.070312 254.648438 312.8125 254.234375 C 313.5625 253.820312 314.136719 253.253906 314.546875 252.527344 C 314.957031 251.804688 315.167969 250.976562 315.167969 250.042969 Z M 315.167969 234.601562 " fill-opacity="1" fill-rule="nonzero"/><path fill="#ffffff" d="M 337.863281 241.636719 C 337.765625 240.671875 337.355469 239.925781 336.632812 239.390625 C 335.90625 238.855469 334.921875 238.589844 333.679688 238.589844 C 332.839844 238.589844 332.125 238.710938 331.542969 238.949219 C 330.960938 239.179688 330.515625 239.5 330.203125 239.914062 C 329.902344 240.328125 329.75 240.800781 329.75 241.324219 C 329.734375 241.761719 329.828125 242.144531 330.027344 242.472656 C 330.234375 242.796875 330.515625 243.082031 330.875 243.320312 C 331.234375 243.550781 331.644531 243.753906 332.117188 243.929688 C 332.585938 244.097656 333.085938 244.238281 333.621094 244.359375 L 335.820312 244.882812 C 336.886719 245.125 337.867188 245.441406 338.757812 245.839844 C 339.648438 246.238281 340.421875 246.726562 341.074219 247.308594 C 341.726562 247.890625 342.230469 248.574219 342.589844 249.363281 C 342.957031 250.152344 343.144531 251.054688 343.152344 252.074219 C 343.144531 253.570312 342.761719 254.871094 342.003906 255.96875 C 341.257812 257.058594 340.171875 257.90625 338.757812 258.511719 C 337.347656 259.109375 335.648438 259.40625 333.65625 259.40625 C 331.683594 259.40625 329.960938 259.105469 328.5 258.5 C 327.039062 257.894531 325.902344 257 325.082031 255.8125 C 324.269531 254.617188 323.84375 253.140625 323.804688 251.382812 L 328.808594 251.382812 C 328.863281 252.203125 329.097656 252.886719 329.511719 253.4375 C 329.933594 253.976562 330.496094 254.386719 331.195312 254.667969 C 331.90625 254.9375 332.707031 255.070312 333.597656 255.070312 C 334.472656 255.070312 335.234375 254.945312 335.878906 254.691406 C 336.53125 254.433594 337.039062 254.082031 337.394531 253.628906 C 337.753906 253.171875 337.933594 252.652344 337.933594 252.0625 C 337.933594 251.511719 337.769531 251.050781 337.441406 250.675781 C 337.125 250.304688 336.65625 249.984375 336.035156 249.722656 C 335.421875 249.457031 334.667969 249.21875 333.777344 249.003906 L 331.113281 248.335938 C 329.050781 247.835938 327.421875 247.050781 326.230469 245.984375 C 325.03125 244.917969 324.441406 243.480469 324.449219 241.671875 C 324.441406 240.191406 324.835938 238.898438 325.632812 237.789062 C 326.4375 236.683594 327.539062 235.820312 328.941406 235.199219 C 330.339844 234.578125 331.933594 234.265625 333.714844 234.265625 C 335.53125 234.265625 337.117188 234.578125 338.472656 235.199219 C 339.832031 235.820312 340.890625 236.683594 341.648438 237.789062 C 342.402344 238.898438 342.792969 240.179688 342.816406 241.636719 Z M 337.863281 241.636719 " fill-opacity="1" fill-rule="nonzero"/><path fill="#ffffff" d="M 70.074219 233.785156 C 70.074219 231.40625 68.128906 229.460938 65.75 229.460938 L 31.15625 229.460938 C 28.777344 229.460938 26.832031 231.40625 26.832031 233.785156 L 26.832031 259.730469 C 26.832031 262.109375 28.777344 264.054688 31.15625 264.054688 L 65.75 264.054688 C 68.128906 264.054688 70.074219 262.109375 70.074219 259.730469 Z M 65.75 233.785156 L 48.453125 244.597656 L 31.15625 233.785156 Z M 48.453125 248.921875 L 31.15625 238.109375 L 31.15625 259.730469 L 65.75 259.730469 L 65.75 238.109375 Z M 48.453125 248.921875 " fill-opacity="1" fill-rule="evenodd"/><g clip-path="url(#12039ae385)"><path fill="#722f37" d="M 145.363281 174.9375 L 129.667969 206.480469 C 129.355469 207.179688 129.355469 207.878906 129.667969 208.574219 C 129.988281 209.273438 130.515625 209.730469 131.25 209.953125 C 149.152344 215.179688 167.421875 217.859375 186.070312 217.992188 L 187.5 217.992188 C 206.648438 217.992188 225.414062 215.3125 243.796875 209.953125 C 244.53125 209.730469 245.058594 209.273438 245.378906 208.574219 C 245.695312 207.878906 245.695312 207.179688 245.378906 206.480469 L 229.632812 174.9375 C 225.347656 166.289062 214.320312 159.625 200.972656 157.074219 C 203.105469 156.25 205.140625 155.238281 207.089844 154.042969 C 209.035156 152.847656 210.859375 151.488281 212.558594 149.960938 C 214.261719 148.4375 215.808594 146.769531 217.207031 144.964844 C 218.605469 143.15625 219.828125 141.238281 220.878906 139.210938 C 221.609375 139.3125 222.339844 139.363281 223.074219 139.363281 C 224.023438 139.363281 224.964844 139.269531 225.894531 139.085938 C 226.824219 138.902344 227.730469 138.625 228.605469 138.265625 C 229.484375 137.902344 230.316406 137.457031 231.105469 136.929688 C 231.894531 136.402344 232.625 135.804688 233.296875 135.132812 C 233.96875 134.464844 234.570312 133.734375 235.097656 132.945312 C 235.625 132.15625 236.070312 131.324219 236.4375 130.449219 C 236.800781 129.570312 237.074219 128.667969 237.261719 127.738281 C 237.449219 126.808594 237.542969 125.867188 237.546875 124.917969 L 237.546875 118.945312 C 237.554688 117.554688 237.363281 116.191406 236.972656 114.855469 C 236.578125 113.519531 236.003906 112.269531 235.242188 111.101562 C 234.484375 109.933594 233.570312 108.902344 232.507812 108.003906 C 231.445312 107.109375 230.273438 106.382812 228.996094 105.828125 C 228.816406 104.59375 228.582031 103.367188 228.292969 102.148438 C 228.003906 100.933594 227.660156 99.734375 227.261719 98.546875 C 226.867188 97.363281 226.417969 96.195312 225.917969 95.050781 C 225.417969 93.90625 224.867188 92.785156 224.265625 91.691406 C 223.664062 90.59375 223.015625 89.527344 222.320312 88.488281 C 221.625 87.449219 220.882812 86.445312 220.097656 85.472656 C 219.308594 84.503906 218.480469 83.566406 217.613281 82.667969 C 216.742188 81.773438 215.835938 80.914062 214.890625 80.097656 C 213.941406 79.28125 212.960938 78.507812 211.945312 77.78125 C 210.929688 77.050781 209.886719 76.367188 208.808594 75.734375 C 207.734375 75.097656 206.628906 74.511719 205.503906 73.972656 C 204.375 73.4375 203.222656 72.949219 202.050781 72.515625 C 200.878906 72.082031 199.691406 71.703125 198.484375 71.375 C 197.277344 71.046875 196.058594 70.773438 194.828125 70.554688 C 193.597656 70.332031 192.359375 70.171875 191.113281 70.0625 C 189.871094 69.953125 188.621094 69.902344 187.371094 69.902344 C 186.121094 69.90625 184.875 69.964844 183.628906 70.082031 C 182.386719 70.195312 181.148438 70.363281 179.917969 70.589844 C 178.691406 70.816406 177.472656 71.09375 176.269531 71.429688 C 175.0625 71.761719 173.875 72.148438 172.707031 72.589844 C 171.535156 73.027344 170.390625 73.519531 169.261719 74.0625 C 168.136719 74.605469 167.039062 75.195312 165.964844 75.835938 C 164.890625 76.480469 163.847656 77.167969 162.835938 77.898438 C 161.824219 78.632812 160.847656 79.410156 159.90625 80.234375 C 158.964844 81.054688 158.058594 81.917969 157.195312 82.816406 C 156.328125 83.71875 155.507812 84.660156 154.726562 85.632812 C 153.945312 86.609375 153.207031 87.617188 152.515625 88.660156 C 151.824219 89.703125 151.183594 90.773438 150.585938 91.871094 C 149.992188 92.96875 149.445312 94.09375 148.949219 95.242188 C 148.457031 96.386719 148.011719 97.554688 147.621094 98.742188 C 147.230469 99.929688 146.894531 101.132812 146.613281 102.351562 C 146.328125 103.566406 146.101562 104.796875 145.925781 106.03125 C 144.722656 106.628906 143.625 107.378906 142.632812 108.28125 C 141.636719 109.1875 140.789062 110.207031 140.078125 111.347656 C 139.371094 112.488281 138.832031 113.703125 138.464844 114.996094 C 138.097656 116.285156 137.914062 117.605469 137.914062 118.945312 L 137.914062 124.894531 C 137.910156 126.308594 138.113281 127.695312 138.519531 129.054688 C 138.925781 130.410156 139.515625 131.679688 140.292969 132.863281 C 141.070312 134.046875 142.003906 135.097656 143.089844 136.007812 C 144.171875 136.917969 145.367188 137.652344 146.667969 138.214844 L 146.667969 144.746094 C 146.667969 145.085938 146.730469 145.410156 146.859375 145.722656 C 146.988281 146.035156 147.175781 146.3125 147.414062 146.550781 C 147.652344 146.792969 147.929688 146.976562 148.242188 147.105469 C 148.554688 147.234375 148.878906 147.300781 149.21875 147.300781 L 159.757812 147.300781 C 163.75 151.695312 168.511719 154.960938 174.050781 157.101562 C 160.652344 159.652344 149.652344 166.289062 145.363281 174.9375 Z M 232.621094 118.945312 L 232.621094 124.894531 C 232.617188 125.519531 232.554688 126.136719 232.433594 126.75 C 232.308594 127.363281 232.125 127.960938 231.886719 128.539062 C 231.644531 129.113281 231.351562 129.664062 231.003906 130.183594 C 230.652344 130.703125 230.257812 131.183594 229.816406 131.625 C 229.371094 132.066406 228.890625 132.460938 228.371094 132.808594 C 227.847656 133.15625 227.300781 133.449219 226.722656 133.6875 C 226.144531 133.925781 225.546875 134.105469 224.933594 134.230469 C 224.320312 134.351562 223.699219 134.410156 223.074219 134.410156 C 223.792969 132.410156 224.332031 130.359375 224.699219 128.265625 C 225.0625 126.171875 225.246094 124.058594 225.246094 121.933594 C 225.246094 119.804688 225.0625 117.695312 224.699219 115.597656 C 224.332031 113.503906 223.792969 111.453125 223.074219 109.453125 C 223.699219 109.449219 224.320312 109.507812 224.933594 109.625 C 225.546875 109.746094 226.144531 109.921875 226.722656 110.160156 C 227.300781 110.398438 227.851562 110.6875 228.375 111.035156 C 228.894531 111.378906 229.378906 111.773438 229.820312 112.214844 C 230.265625 112.65625 230.660156 113.136719 231.007812 113.65625 C 231.359375 114.175781 231.652344 114.722656 231.890625 115.300781 C 232.132812 115.878906 232.3125 116.476562 232.4375 117.089844 C 232.558594 117.703125 232.621094 118.320312 232.621094 118.945312 Z M 187.5 74.898438 C 189.933594 74.890625 192.347656 75.125 194.734375 75.597656 C 197.125 76.066406 199.445312 76.769531 201.695312 77.703125 C 203.945312 78.636719 206.082031 79.78125 208.101562 81.140625 C 210.125 82.496094 211.992188 84.039062 213.707031 85.769531 C 216.296875 88.335938 218.457031 91.21875 220.195312 94.421875 C 221.933594 97.625 223.175781 101.011719 223.917969 104.578125 L 223.152344 104.578125 C 222.417969 104.578125 221.683594 104.628906 220.957031 104.730469 C 220.167969 103.207031 219.28125 101.742188 218.296875 100.339844 C 217.308594 98.9375 216.230469 97.609375 215.058594 96.355469 C 213.890625 95.097656 212.640625 93.929688 211.3125 92.84375 C 209.980469 91.761719 208.585938 90.773438 207.117188 89.882812 C 205.652344 88.988281 204.136719 88.199219 202.5625 87.515625 C 200.988281 86.832031 199.375 86.257812 197.726562 85.792969 C 196.074219 85.332031 194.398438 84.980469 192.699219 84.746094 C 191 84.515625 189.292969 84.398438 187.574219 84.398438 C 185.859375 84.398438 184.152344 84.515625 182.453125 84.746094 C 180.753906 84.980469 179.078125 85.332031 177.425781 85.792969 C 175.773438 86.257812 174.164062 86.832031 172.589844 87.515625 C 171.015625 88.199219 169.496094 88.988281 168.03125 89.882812 C 166.566406 90.773438 165.167969 91.761719 163.839844 92.84375 C 162.511719 93.929688 161.261719 95.097656 160.089844 96.355469 C 158.921875 97.609375 157.84375 98.9375 156.855469 100.339844 C 155.867188 101.742188 154.980469 103.207031 154.195312 104.730469 C 153.597656 104.691406 153.003906 104.691406 152.410156 104.730469 L 151.207031 104.730469 C 151.414062 103.691406 151.664062 102.660156 151.957031 101.640625 C 152.25 100.621094 152.585938 99.617188 152.96875 98.625 C 153.347656 97.632812 153.769531 96.660156 154.234375 95.707031 C 154.699219 94.753906 155.203125 93.820312 155.746094 92.910156 C 156.292969 92 156.875 91.113281 157.496094 90.25 C 158.113281 89.390625 158.769531 88.558594 159.464844 87.753906 C 160.15625 86.949219 160.882812 86.175781 161.640625 85.433594 C 162.398438 84.691406 163.1875 83.984375 164.007812 83.3125 C 164.828125 82.636719 165.675781 82 166.550781 81.398438 C 167.425781 80.796875 168.324219 80.234375 169.246094 79.710938 C 170.167969 79.1875 171.113281 78.707031 172.078125 78.261719 C 173.042969 77.820312 174.023438 77.421875 175.023438 77.0625 C 176.019531 76.707031 177.035156 76.390625 178.058594 76.121094 C 179.085938 75.851562 180.121094 75.625 181.167969 75.441406 C 182.210938 75.261719 183.265625 75.125 184.320312 75.035156 C 185.378906 74.941406 186.4375 74.898438 187.5 74.898438 Z M 142.839844 124.894531 L 142.839844 118.945312 C 142.839844 117.984375 142.984375 117.046875 143.273438 116.128906 C 143.558594 115.210938 143.976562 114.355469 144.523438 113.566406 C 145.070312 112.777344 145.722656 112.085938 146.480469 111.492188 C 147.238281 110.898438 148.0625 110.433594 148.964844 110.089844 L 149.21875 110.089844 C 150.171875 109.722656 151.15625 109.527344 152.179688 109.503906 C 151.460938 111.5 150.917969 113.546875 150.554688 115.636719 C 150.191406 117.726562 150.007812 119.835938 150.007812 121.957031 C 150.007812 124.082031 150.191406 126.1875 150.554688 128.277344 C 150.917969 130.371094 151.460938 132.414062 152.179688 134.410156 C 151.5625 134.402344 150.949219 134.332031 150.34375 134.203125 C 149.742188 134.074219 149.15625 133.886719 148.585938 133.644531 C 148.019531 133.398438 147.480469 133.101562 146.96875 132.753906 C 146.460938 132.40625 145.988281 132.011719 145.554688 131.570312 C 145.121094 131.128906 144.738281 130.648438 144.398438 130.132812 C 144.058594 129.617188 143.773438 129.070312 143.539062 128.5 C 143.304688 127.925781 143.128906 127.335938 143.011719 126.730469 C 142.894531 126.125 142.835938 125.511719 142.839844 124.894531 Z M 151.769531 142.273438 L 151.769531 139.3125 L 152.460938 139.3125 C 153.066406 139.308594 153.671875 139.265625 154.269531 139.183594 C 154.804688 140.238281 155.390625 141.257812 156.03125 142.246094 Z M 173.792969 147.199219 C 174.011719 147.652344 174.285156 148.066406 174.617188 148.441406 C 174.953125 148.816406 175.332031 149.140625 175.753906 149.40625 C 176.179688 149.675781 176.632812 149.882812 177.117188 150.023438 C 177.597656 150.164062 178.089844 150.234375 178.59375 150.234375 L 183.695312 150.234375 C 184.046875 150.234375 184.394531 150.199219 184.738281 150.128906 C 185.082031 150.058594 185.414062 149.953125 185.738281 149.820312 C 186.0625 149.683594 186.371094 149.519531 186.660156 149.324219 C 186.953125 149.125 187.222656 148.90625 187.46875 148.65625 C 187.71875 148.40625 187.9375 148.136719 188.132812 147.84375 C 188.328125 147.554688 188.492188 147.246094 188.625 146.921875 C 188.757812 146.597656 188.859375 146.261719 188.929688 145.917969 C 188.996094 145.574219 189.03125 145.226562 189.03125 144.875 L 189.03125 143.472656 C 189.03125 143.121094 188.996094 142.773438 188.929688 142.429688 C 188.859375 142.085938 188.757812 141.75 188.625 141.425781 C 188.492188 141.101562 188.328125 140.792969 188.132812 140.503906 C 187.9375 140.210938 187.71875 139.941406 187.46875 139.691406 C 187.222656 139.441406 186.953125 139.21875 186.660156 139.023438 C 186.371094 138.828125 186.0625 138.664062 185.738281 138.527344 C 185.414062 138.390625 185.082031 138.289062 184.738281 138.21875 C 184.394531 138.148438 184.046875 138.113281 183.695312 138.113281 L 178.59375 138.113281 C 177.996094 138.125 177.417969 138.230469 176.855469 138.4375 C 176.296875 138.640625 175.785156 138.933594 175.320312 139.3125 C 174.859375 139.6875 174.472656 140.128906 174.15625 140.636719 C 173.84375 141.144531 173.621094 141.691406 173.488281 142.273438 L 161.976562 142.273438 C 161.550781 141.734375 161.140625 141.183594 160.746094 140.617188 C 160.355469 140.054688 159.980469 139.476562 159.625 138.890625 C 159.265625 138.300781 158.929688 137.703125 158.609375 137.09375 C 158.292969 136.484375 157.992188 135.863281 157.714844 135.234375 C 157.433594 134.609375 157.175781 133.972656 156.933594 133.324219 C 156.695312 132.679688 156.476562 132.03125 156.28125 131.371094 C 156.082031 130.710938 155.90625 130.046875 155.75 129.378906 C 155.59375 128.707031 155.457031 128.035156 155.34375 127.355469 C 155.230469 126.675781 155.140625 125.996094 155.070312 125.3125 C 155 124.628906 154.949219 123.941406 154.925781 123.253906 C 154.898438 122.566406 154.890625 121.878906 154.910156 121.191406 C 154.925781 120.503906 154.964844 119.820312 155.023438 119.132812 C 155.082031 118.449219 155.164062 117.765625 155.269531 117.085938 C 155.371094 116.40625 155.496094 115.730469 155.644531 115.058594 C 155.789062 114.386719 155.957031 113.71875 156.144531 113.058594 C 156.332031 112.398438 156.542969 111.742188 156.769531 111.09375 C 157 110.445312 157.25 109.804688 157.519531 109.171875 C 157.789062 108.539062 158.082031 107.917969 158.390625 107.300781 C 158.699219 106.6875 159.027344 106.085938 159.375 105.492188 C 159.722656 104.898438 160.089844 104.316406 160.472656 103.746094 C 160.859375 103.175781 161.261719 102.617188 161.679688 102.074219 C 162.101562 101.527344 162.539062 100.996094 162.992188 100.480469 C 163.445312 99.964844 163.914062 99.460938 164.398438 98.972656 C 164.882812 98.488281 165.382812 98.015625 165.898438 97.558594 C 166.414062 97.101562 166.941406 96.664062 167.484375 96.242188 C 168.027344 95.820312 168.582031 95.414062 169.152344 95.027344 C 169.71875 94.640625 170.300781 94.269531 170.890625 93.921875 C 171.484375 93.570312 172.085938 93.238281 172.699219 92.925781 C 173.3125 92.613281 173.933594 92.320312 174.566406 92.046875 C 175.195312 91.773438 175.835938 91.523438 176.484375 91.289062 C 177.128906 91.058594 177.785156 90.84375 178.445312 90.652344 C 179.105469 90.460938 179.769531 90.292969 180.441406 90.144531 C 181.113281 89.996094 181.789062 89.867188 182.46875 89.761719 C 183.148438 89.652344 183.828125 89.570312 184.515625 89.503906 C 185.199219 89.441406 185.886719 89.402344 186.574219 89.382812 C 187.261719 89.359375 187.949219 89.363281 188.636719 89.386719 C 189.324219 89.410156 190.007812 89.457031 190.691406 89.523438 C 191.378906 89.589844 192.058594 89.679688 192.738281 89.789062 C 193.417969 89.898438 194.089844 90.03125 194.761719 90.183594 C 195.433594 90.335938 196.097656 90.507812 196.757812 90.703125 C 197.417969 90.898438 198.070312 91.113281 198.714844 91.351562 C 199.363281 91.585938 200 91.84375 200.628906 92.121094 C 201.257812 92.398438 201.878906 92.691406 202.488281 93.007812 C 203.101562 93.324219 203.703125 93.660156 204.292969 94.011719 C 204.882812 94.367188 205.457031 94.738281 206.023438 95.128906 C 206.589844 95.519531 207.144531 95.925781 207.683594 96.351562 C 208.226562 96.777344 208.753906 97.21875 209.265625 97.679688 C 209.777344 98.136719 210.273438 98.613281 210.757812 99.101562 C 211.238281 99.589844 211.707031 100.097656 212.15625 100.617188 C 212.605469 101.136719 213.039062 101.667969 213.457031 102.214844 C 213.875 102.761719 214.273438 103.324219 214.65625 103.894531 C 215.035156 104.46875 215.398438 105.050781 215.742188 105.644531 C 216.089844 106.242188 216.414062 106.847656 216.71875 107.464844 C 217.027344 108.078125 217.3125 108.703125 217.578125 109.335938 C 217.84375 109.972656 218.09375 110.613281 218.316406 111.261719 C 218.542969 111.914062 218.75 112.570312 218.933594 113.230469 C 219.117188 113.894531 219.28125 114.5625 219.425781 115.234375 C 219.566406 115.90625 219.6875 116.582031 219.785156 117.265625 C 219.886719 117.945312 219.964844 118.628906 220.019531 119.3125 C 220.078125 120 220.113281 120.683594 220.125 121.371094 C 220.136719 122.058594 220.128906 122.746094 220.097656 123.433594 C 220.066406 124.121094 220.015625 124.808594 219.941406 125.492188 C 219.867188 126.175781 219.769531 126.855469 219.652344 127.53125 C 219.539062 128.210938 219.398438 128.882812 219.238281 129.554688 C 219.078125 130.222656 218.898438 130.886719 218.699219 131.542969 C 218.496094 132.199219 218.273438 132.851562 218.03125 133.496094 C 217.789062 134.136719 217.523438 134.773438 217.242188 135.398438 C 216.960938 136.027344 216.65625 136.644531 216.335938 137.25 C 216.011719 137.859375 215.671875 138.457031 215.3125 139.042969 C 214.953125 139.628906 214.574219 140.203125 214.179688 140.765625 C 213.78125 141.328125 213.371094 141.875 212.9375 142.414062 C 212.507812 142.949219 212.058594 143.46875 211.597656 143.976562 C 211.132812 144.484375 210.652344 144.980469 210.160156 145.457031 C 209.664062 145.933594 209.152344 146.394531 208.628906 146.839844 C 208.105469 147.285156 207.566406 147.714844 207.015625 148.125 C 206.464844 148.535156 205.902344 148.929688 205.324219 149.304688 C 204.75 149.679688 204.160156 150.039062 203.5625 150.375 C 202.964844 150.714844 202.355469 151.035156 201.738281 151.332031 C 201.117188 151.632812 200.488281 151.914062 199.851562 152.175781 C 199.21875 152.433594 198.574219 152.675781 197.921875 152.894531 C 197.269531 153.113281 196.609375 153.3125 195.945312 153.488281 C 195.28125 153.667969 194.613281 153.824219 193.9375 153.960938 C 193.265625 154.09375 192.585938 154.207031 191.90625 154.300781 C 191.222656 154.394531 190.539062 154.464844 189.855469 154.515625 C 189.167969 154.5625 188.480469 154.589844 187.792969 154.597656 C 187.105469 154.601562 186.417969 154.585938 185.730469 154.550781 C 185.046875 154.511719 184.359375 154.453125 183.675781 154.371094 C 182.996094 154.289062 182.316406 154.1875 181.636719 154.0625 C 180.960938 153.941406 180.289062 153.796875 179.621094 153.628906 C 178.953125 153.460938 178.292969 153.273438 177.636719 153.066406 C 176.984375 152.859375 176.335938 152.628906 175.695312 152.378906 C 175.050781 152.132812 174.421875 151.863281 173.796875 151.574219 C 173.171875 151.285156 172.558594 150.976562 171.953125 150.648438 C 171.347656 150.320312 170.753906 149.972656 170.171875 149.605469 C 169.589844 149.238281 169.019531 148.855469 168.460938 148.453125 C 167.902344 148.054688 167.359375 147.632812 166.828125 147.199219 Z M 178.4375 143.113281 L 183.695312 143.113281 C 183.808594 143.113281 183.90625 143.15625 183.984375 143.234375 C 184.066406 143.3125 184.105469 143.410156 184.105469 143.523438 L 184.105469 144.925781 C 184.105469 145.039062 184.066406 145.136719 183.984375 145.214844 C 183.90625 145.292969 183.808594 145.335938 183.695312 145.335938 L 178.820312 145.335938 C 178.847656 145.15625 178.847656 144.976562 178.820312 144.800781 C 178.859375 144.175781 178.6875 143.613281 178.3125 143.113281 Z M 187.089844 160.648438 L 188.164062 160.648438 C 204.957031 160.648438 220.597656 167.589844 225.347656 177.132812 L 239.714844 206.023438 C 222.175781 210.847656 204.3125 213.1875 186.121094 213.039062 C 168.917969 212.929688 152.023438 210.589844 135.4375 206.023438 L 149.78125 177.160156 C 154.527344 167.589844 170.171875 160.648438 186.964844 160.648438 Z M 187.089844 160.648438 " fill-opacity="1" fill-rule="nonzero"/></g><g clip-path="url(#94b44d9d80)"><path fill="#722f37" d="M 74.886719 161.46875 C 71.347656 160.316406 66.820312 158.835938 62.378906 157.765625 C 61.472656 157.519531 59.414062 157.519531 58.507812 159 L 55.710938 163.28125 C 55.464844 163.609375 55.132812 163.773438 54.804688 163.855469 C 53.980469 163.9375 53.074219 163.773438 52.417969 163.199219 C 50.605469 162.046875 43.609375 155.625 39.496094 151.675781 C 35.378906 147.394531 29.125 140.480469 27.808594 138.671875 C 27.3125 138.011719 27.066406 137.105469 27.148438 136.285156 C 27.230469 135.871094 27.394531 135.542969 27.726562 135.378906 L 32.003906 132.578125 C 32.992188 131.921875 33.488281 129.617188 33.238281 128.710938 C 32.417969 125.253906 31.347656 121.386719 29.617188 116.28125 C 29.207031 115.210938 27.5625 113.894531 24.925781 114.800781 C 21.386719 116.28125 18.09375 118.421875 15.296875 121.222656 C 14.472656 122.042969 13.734375 122.867188 13.074219 123.773438 C 12.910156 123.9375 12.828125 124.183594 12.828125 124.347656 C 12.25 134.636719 19.164062 148.464844 30.441406 159.660156 C 41.304688 171.019531 55.214844 178.34375 65.667969 178.34375 C 66.082031 178.34375 66.410156 178.34375 66.820312 178.34375 C 67.070312 178.34375 67.234375 178.261719 67.398438 178.097656 C 68.304688 177.355469 69.125 176.613281 69.949219 175.875 C 72.171875 173.652344 73.984375 171.101562 75.464844 168.382812 C 75.792969 167.644531 76.121094 166.984375 76.453125 166.242188 C 76.78125 165.089844 77.4375 162.292969 74.886719 161.46875 Z M 25.75 116.613281 C 26.492188 116.363281 27.476562 116.53125 27.726562 117.023438 C 29.371094 122.042969 30.523438 125.832031 31.265625 129.207031 C 31.429688 129.78125 31.265625 130.605469 30.851562 130.933594 L 29.863281 131.59375 C 26.738281 127.394531 24.84375 122.457031 24.351562 117.269531 C 24.351562 117.269531 25.257812 116.859375 25.75 116.613281 Z M 74.558594 165.421875 C 74.394531 165.914062 74.148438 166.328125 73.984375 166.738281 C 64.351562 165.175781 60.648438 162.457031 59.578125 161.46875 L 60.320312 160.316406 C 60.730469 159.742188 61.472656 159.742188 62.046875 159.90625 C 66.246094 160.894531 70.773438 162.375 74.230469 163.445312 C 74.804688 163.609375 74.804688 164.679688 74.558594 165.421875 Z M 74.558594 165.421875 " fill-opacity="1" fill-rule="nonzero"/></g><g clip-path="url(#0d95ca66b4)"><path fill="#722f37" d="M 43.691406 109.617188 C 43.117188 109.617188 42.707031 110.109375 42.707031 110.601562 C 42.707031 111.097656 43.199219 111.589844 43.691406 111.589844 C 63.695312 111.589844 79.828125 127.804688 79.828125 147.722656 C 79.828125 148.300781 80.320312 148.710938 80.8125 148.710938 C 81.308594 148.710938 81.800781 148.21875 81.800781 147.722656 C 81.882812 126.734375 64.765625 109.699219 43.691406 109.617188 Z M 43.691406 109.617188 " fill-opacity="1" fill-rule="nonzero"/></g><path fill="#722f37" d="M 61.554688 130.027344 C 66.328125 134.71875 68.960938 141.140625 68.960938 147.890625 C 68.960938 148.464844 69.457031 148.875 69.949219 148.875 C 70.441406 148.875 70.9375 148.382812 70.9375 147.890625 C 70.9375 132.828125 58.671875 120.5625 43.609375 120.5625 C 43.035156 120.5625 42.621094 121.058594 42.621094 121.550781 C 42.621094 122.125 43.035156 122.539062 43.527344 122.621094 C 43.527344 122.621094 43.609375 122.621094 43.609375 122.621094 C 50.359375 122.621094 56.78125 125.253906 61.554688 130.027344 Z M 61.554688 130.027344 " fill-opacity="1" fill-rule="nonzero"/><path fill="#722f37" d="M 43.691406 134.144531 C 51.265625 134.144531 57.4375 140.316406 57.4375 147.890625 C 57.4375 148.464844 57.933594 148.875 58.425781 148.875 C 58.921875 148.875 59.414062 148.382812 59.414062 147.890625 C 59.414062 139.164062 52.335938 132.085938 43.609375 132.085938 C 43.035156 132.085938 42.621094 132.578125 42.621094 133.074219 C 42.621094 133.566406 43.117188 134.144531 43.691406 134.144531 Z M 43.691406 134.144531 " fill-opacity="1" fill-rule="nonzero"/><g clip-path="url(#317a6daba0)"><path fill="#722f37" d="M 258.101562 180.730469 C 258.898438 183.050781 261.078125 184.515625 263.40625 184.515625 C 264.007812 184.515625 264.621094 184.417969 265.222656 184.210938 L 302.164062 171.539062 C 303.582031 171.054688 304.722656 170.042969 305.378906 168.699219 C 306.039062 167.355469 306.132812 165.835938 305.648438 164.417969 L 298.582031 143.832031 C 297.582031 140.90625 294.386719 139.347656 291.464844 140.347656 L 254.519531 153.023438 C 251.597656 154.023438 250.035156 157.21875 251.039062 160.140625 Z M 259.601562 180.214844 L 252.539062 159.625 C 252.242188 158.757812 252.265625 157.855469 252.539062 157.046875 L 272.171875 164.398438 L 261.183594 182.253906 C 260.472656 181.78125 259.902344 181.085938 259.601562 180.214844 Z M 301.648438 170.039062 L 264.707031 182.710938 C 264.03125 182.945312 263.332031 182.980469 262.675781 182.859375 L 273.683594 164.964844 L 279.472656 167.132812 C 279.566406 167.167969 279.660156 167.183594 279.753906 167.183594 C 280.023438 167.183594 280.28125 167.046875 280.429688 166.804688 L 283.667969 161.539062 L 303.34375 168.910156 C 302.890625 169.417969 302.3125 169.808594 301.648438 170.039062 Z M 297.082031 144.34375 L 304.144531 164.933594 C 304.4375 165.78125 304.433594 166.679688 304.152344 167.515625 L 284.515625 160.164062 L 295.5 142.304688 C 296.214844 142.777344 296.785156 143.476562 297.082031 144.34375 Z M 255.035156 154.523438 L 291.980469 141.847656 C 292.410156 141.703125 292.847656 141.632812 293.28125 141.632812 C 293.527344 141.632812 293.769531 141.65625 294.007812 141.703125 L 279.417969 165.417969 L 253.34375 155.652344 C 253.785156 155.152344 254.359375 154.753906 255.035156 154.523438 Z M 264.613281 123.734375 L 287.6875 137.679688 C 287.8125 137.753906 287.953125 137.792969 288.097656 137.792969 C 288.171875 137.792969 288.25 137.78125 288.320312 137.761719 C 288.535156 137.699219 288.714844 137.546875 288.8125 137.347656 L 292.121094 130.542969 L 301.933594 132.957031 C 301.996094 132.972656 302.058594 132.980469 302.125 132.980469 C 302.371094 132.980469 302.609375 132.867188 302.757812 132.664062 C 302.949219 132.40625 302.96875 132.0625 302.808594 131.785156 L 296.621094 121.28125 L 301.726562 110.789062 C 301.859375 110.511719 301.820312 110.183594 301.628906 109.945312 C 301.4375 109.707031 301.125 109.597656 300.828125 109.671875 L 265.480469 118.148438 C 264.253906 118.441406 263.371094 119.402344 263.175781 120.648438 C 262.980469 121.898438 263.53125 123.078125 264.613281 123.734375 Z M 287.765625 135.871094 L 269.894531 125.070312 L 290.542969 130.15625 Z M 295.246094 120.484375 L 270.710938 118.527344 L 299.5625 111.605469 Z M 264.742188 120.894531 C 264.832031 120.320312 265.207031 119.890625 265.753906 119.722656 L 295.25 122.074219 L 300.484375 130.96875 L 265.355469 122.320312 C 264.882812 121.992188 264.652344 121.46875 264.742188 120.894531 Z M 336.601562 199.898438 C 336.457031 199.484375 336.679688 199.035156 337.09375 198.890625 C 337.507812 198.75 337.960938 198.96875 338.101562 199.382812 L 341.25 208.558594 C 341.390625 208.972656 341.171875 209.421875 340.753906 209.566406 C 340.671875 209.59375 340.582031 209.609375 340.5 209.609375 C 340.167969 209.609375 339.859375 209.402344 339.746094 209.070312 Z M 335.53125 191.886719 L 336.277344 194.070312 C 336.421875 194.484375 336.199219 194.933594 335.785156 195.078125 C 335.699219 195.105469 335.613281 195.121094 335.527344 195.121094 C 335.199219 195.121094 334.890625 194.914062 334.777344 194.585938 L 334.027344 192.402344 C 332.96875 189.316406 331.109375 186.5625 328.652344 184.449219 C 328.320312 184.160156 328.285156 183.660156 328.570312 183.328125 C 328.855469 182.996094 329.355469 182.960938 329.6875 183.246094 C 332.359375 185.546875 334.378906 188.535156 335.53125 191.886719 Z M 322.84375 181.0625 C 318.878906 179.636719 314.671875 179.609375 310.675781 180.980469 L 308.859375 181.601562 C 308.773438 181.632812 308.6875 181.644531 308.601562 181.644531 C 308.273438 181.644531 307.964844 181.4375 307.851562 181.109375 C 307.707031 180.695312 307.929688 180.246094 308.34375 180.101562 L 310.164062 179.476562 C 314.4375 178.011719 319.132812 178.042969 323.378906 179.566406 C 323.792969 179.714844 324.007812 180.171875 323.859375 180.582031 C 323.710938 180.996094 323.253906 181.210938 322.84375 181.0625 Z M 299.140625 184.9375 L 286.738281 189.191406 C 286.652344 189.222656 286.566406 189.234375 286.480469 189.234375 C 286.152344 189.234375 285.84375 189.027344 285.730469 188.699219 C 285.589844 188.285156 285.808594 187.832031 286.222656 187.691406 L 298.625 183.4375 C 299.039062 183.292969 299.492188 183.515625 299.632812 183.929688 C 299.777344 184.34375 299.554688 184.796875 299.140625 184.9375 Z M 277.765625 191.433594 C 277.90625 191.847656 277.6875 192.296875 277.273438 192.441406 L 266.664062 196.078125 C 265.535156 196.464844 264.367188 196.722656 263.1875 196.839844 C 263.160156 196.839844 263.132812 196.84375 263.109375 196.84375 C 262.707031 196.84375 262.359375 196.539062 262.320312 196.128906 C 262.277344 195.691406 262.59375 195.304688 263.03125 195.261719 C 264.085938 195.15625 265.136719 194.925781 266.152344 194.578125 L 276.757812 190.9375 C 277.171875 190.796875 277.621094 191.015625 277.765625 191.433594 Z M 257.332031 194.625 C 257.75 194.761719 257.972656 195.210938 257.835938 195.628906 C 257.722656 195.960938 257.414062 196.171875 257.082031 196.171875 C 257 196.171875 256.914062 196.15625 256.832031 196.128906 C 253.175781 194.914062 250.128906 192.402344 248.257812 189.058594 C 248.042969 188.675781 248.179688 188.191406 248.5625 187.980469 C 248.945312 187.765625 249.429688 187.902344 249.640625 188.285156 C 251.320312 191.28125 254.050781 193.535156 257.332031 194.625 Z M 246.289062 181.753906 C 246.230469 177.808594 247.671875 174.027344 250.347656 171.113281 C 250.644531 170.789062 251.148438 170.769531 251.46875 171.066406 C 251.792969 171.363281 251.8125 171.863281 251.515625 172.1875 C 249.117188 174.800781 247.824219 178.191406 247.875 181.730469 C 247.882812 182.167969 247.53125 182.527344 247.09375 182.535156 C 247.089844 182.535156 247.085938 182.535156 247.082031 182.535156 C 246.648438 182.535156 246.296875 182.1875 246.289062 181.753906 Z M 315.085938 148.617188 L 305.914062 151.765625 C 305.828125 151.792969 305.742188 151.808594 305.65625 151.808594 C 305.328125 151.808594 305.019531 151.601562 304.90625 151.273438 C 304.765625 150.855469 304.984375 150.40625 305.398438 150.261719 L 314.570312 147.117188 C 314.984375 146.976562 315.4375 147.195312 315.578125 147.609375 C 315.71875 148.023438 315.5 148.476562 315.085938 148.617188 Z M 321.242188 144.828125 L 325.316406 143.429688 C 327.804688 142.578125 329.972656 141.035156 331.589844 138.972656 C 331.859375 138.628906 332.355469 138.566406 332.703125 138.835938 C 333.046875 139.105469 333.109375 139.605469 332.839844 139.949219 C 331.035156 142.253906 328.613281 143.980469 325.832031 144.933594 L 321.757812 146.328125 C 321.671875 146.359375 321.585938 146.371094 321.5 146.371094 C 321.171875 146.371094 320.863281 146.164062 320.75 145.835938 C 320.609375 145.421875 320.828125 144.96875 321.242188 144.828125 Z M 327.058594 117.613281 C 327.269531 117.230469 327.75 117.085938 328.136719 117.296875 C 331.480469 119.109375 334.003906 122.089844 335.242188 125.695312 C 335.980469 127.84375 336.222656 130.066406 335.96875 132.308594 C 335.921875 132.710938 335.578125 133.011719 335.179688 133.011719 C 335.152344 133.011719 335.121094 133.011719 335.089844 133.007812 C 334.65625 132.957031 334.34375 132.5625 334.390625 132.128906 C 334.621094 130.125 334.402344 128.132812 333.742188 126.207031 C 332.632812 122.984375 330.375 120.3125 327.378906 118.691406 C 326.992188 118.480469 326.851562 118 327.058594 117.613281 Z M 303.335938 121.46875 C 303.191406 121.054688 303.414062 120.601562 303.828125 120.460938 L 316.003906 116.285156 C 317.582031 115.742188 319.21875 115.464844 320.875 115.460938 C 321.3125 115.460938 321.667969 115.8125 321.667969 116.25 C 321.671875 116.6875 321.316406 117.046875 320.878906 117.046875 C 319.398438 117.050781 317.929688 117.300781 316.519531 117.785156 L 304.34375 121.960938 C 304.257812 121.992188 304.171875 122.003906 304.085938 122.003906 C 303.757812 122.003906 303.449219 121.796875 303.335938 121.46875 Z M 296.023438 199.3125 C 294.964844 196.226562 295.160156 192.957031 296.578125 190.105469 C 296.769531 189.714844 297.246094 189.554688 297.640625 189.75 C 298.03125 189.941406 298.191406 190.417969 297.996094 190.8125 C 296.773438 193.28125 296.605469 196.117188 297.523438 198.796875 C 298.011719 200.222656 298.769531 201.492188 299.777344 202.574219 C 300.074219 202.894531 300.058594 203.398438 299.734375 203.695312 C 299.582031 203.839844 299.390625 203.910156 299.195312 203.910156 C 298.984375 203.910156 298.769531 203.824219 298.613281 203.65625 C 297.457031 202.410156 296.582031 200.949219 296.023438 199.3125 Z M 304.785156 205.515625 C 306.488281 205.917969 308.257812 205.832031 309.898438 205.269531 C 312.914062 204.234375 315.1875 201.695312 315.976562 198.476562 C 316.082031 198.050781 316.511719 197.789062 316.9375 197.894531 C 317.363281 198 317.625 198.425781 317.519531 198.851562 C 316.597656 202.601562 313.941406 205.558594 310.414062 206.769531 C 309.285156 207.15625 308.109375 207.351562 306.921875 207.351562 C 306.085938 207.351562 305.246094 207.253906 304.421875 207.058594 C 303.992188 206.960938 303.730469 206.53125 303.832031 206.105469 C 303.929688 205.679688 304.359375 205.414062 304.785156 205.515625 Z M 305.964844 184.011719 C 309.945312 183.890625 313.785156 186 315.988281 189.511719 C 316.21875 189.882812 316.105469 190.371094 315.734375 190.605469 C 315.605469 190.6875 315.457031 190.726562 315.316406 190.726562 C 315.050781 190.726562 314.792969 190.59375 314.640625 190.351562 C 312.738281 187.316406 309.429688 185.492188 306.011719 185.597656 C 305.582031 185.617188 305.207031 185.265625 305.195312 184.828125 C 305.183594 184.390625 305.527344 184.027344 305.964844 184.011719 Z M 305.964844 184.011719 " fill-opacity="1" fill-rule="nonzero"/></g></svg>