<svg xmlns="http://www.w3.org/2000/svg" xmlns:xlink="http://www.w3.org/1999/xlink" width="500" zoomAndPan="magnify" viewBox="0 0 375 374.999991" height="500" preserveAspectRatio="xMidYMid meet" version="1.0"><defs><clipPath id="f4b8bc0cfc"><path d="M 170.402344 177 L 337.652344 177 L 337.652344 374 L 170.402344 374 Z M 170.402344 177 " clip-rule="nonzero"/></clipPath><clipPath id="d96978b669"><path d="M 240 166.261719 L 268 166.261719 L 268 182 L 240 182 Z M 240 166.261719 " clip-rule="nonzero"/></clipPath><clipPath id="8ef44e918d"><path d="M 38.230469 259.699219 L 151.480469 259.699219 L 151.480469 375 L 38.230469 375 Z M 38.230469 259.699219 " clip-rule="nonzero"/></clipPath><clipPath id="c8aa49471e"><path d="M 8 158 L 102.273438 158 L 102.273438 249.238281 L 8 249.238281 Z M 8 158 " clip-rule="nonzero"/></clipPath><clipPath id="740095de03"><path d="M 17.558594 0 L 172.808594 0 L 172.808594 175.5 L 17.558594 175.5 Z M 17.558594 0 " clip-rule="nonzero"/></clipPath><clipPath id="a16e1506f9"><path d="M 179 19.394531 L 260 19.394531 L 260 156.644531 L 179 156.644531 Z M 179 19.394531 " clip-rule="nonzero"/></clipPath><clipPath id="0db04b076a"><path d="M 310 60 L 328.949219 60 L 328.949219 79 L 310 79 Z M 310 60 " clip-rule="nonzero"/></clipPath></defs><g clip-path="url(#f4b8bc0cfc)"><path fill="#722f37" d="M 325.175781 373.785156 L 182.726562 373.785156 C 175.933594 373.785156 170.40625 368.257812 170.40625 361.464844 L 170.40625 190.066406 C 170.40625 183.269531 175.933594 177.742188 182.726562 177.742188 L 325.175781 177.742188 C 331.96875 177.742188 337.496094 183.269531 337.496094 190.066406 L 337.496094 361.464844 C 337.496094 368.257812 331.96875 373.785156 325.175781 373.785156 Z M 182.726562 181.988281 C 178.273438 181.988281 174.648438 185.613281 174.648438 190.066406 L 174.648438 361.464844 C 174.648438 365.917969 178.273438 369.542969 182.726562 369.542969 L 325.175781 369.542969 C 329.628906 369.542969 333.253906 365.917969 333.253906 361.464844 L 333.253906 190.066406 C 333.253906 185.613281 329.628906 181.988281 325.175781 181.988281 Z M 182.726562 181.988281 " fill-opacity="1" fill-rule="nonzero"/></g><path fill="#722f37" d="M 285.054688 207.351562 L 222.847656 207.351562 C 216.050781 207.351562 210.523438 201.824219 210.523438 195.027344 L 210.523438 179.867188 C 210.523438 178.695312 211.472656 177.742188 212.648438 177.742188 L 295.253906 177.742188 C 296.425781 177.742188 297.378906 178.695312 297.378906 179.867188 L 297.378906 195.027344 C 297.378906 201.820312 291.851562 207.351562 285.054688 207.351562 Z M 214.769531 181.988281 L 214.769531 195.027344 C 214.769531 199.480469 218.390625 203.105469 222.847656 203.105469 L 285.054688 203.105469 C 289.507812 203.105469 293.132812 199.480469 293.132812 195.027344 L 293.132812 181.988281 Z M 214.769531 181.988281 " fill-opacity="1" fill-rule="nonzero"/><g clip-path="url(#d96978b669)"><path fill="#722f37" d="M 265.414062 181.988281 L 242.488281 181.988281 C 241.316406 181.988281 240.367188 181.039062 240.367188 179.867188 L 240.367188 178.601562 C 240.367188 171.808594 245.894531 166.28125 252.6875 166.28125 L 255.214844 166.28125 C 262.007812 166.28125 267.535156 171.808594 267.535156 178.601562 L 267.535156 179.867188 C 267.535156 181.039062 266.585938 181.988281 265.414062 181.988281 Z M 244.65625 177.742188 L 263.246094 177.742188 C 262.816406 173.691406 259.378906 170.527344 255.214844 170.527344 L 252.6875 170.527344 C 248.523438 170.527344 245.085938 173.691406 244.65625 177.742188 Z M 244.65625 177.742188 " fill-opacity="1" fill-rule="nonzero"/></g><path fill="#722f37" d="M 323.449219 361.859375 L 184.453125 361.859375 C 183.28125 361.859375 182.332031 360.910156 182.332031 359.738281 L 182.332031 191.792969 C 182.332031 190.621094 183.28125 189.671875 184.453125 189.671875 L 212.648438 189.671875 C 213.820312 189.671875 214.769531 190.621094 214.769531 191.792969 L 214.769531 193.765625 C 214.769531 198.914062 218.957031 203.105469 224.109375 203.105469 L 283.792969 203.105469 C 288.941406 203.105469 293.132812 198.914062 293.132812 193.765625 L 293.132812 191.792969 C 293.132812 190.621094 294.082031 189.671875 295.253906 189.671875 L 323.449219 189.671875 C 324.621094 189.671875 325.570312 190.621094 325.570312 191.792969 L 325.570312 359.738281 C 325.570312 360.910156 324.621094 361.859375 323.449219 361.859375 Z M 186.578125 357.613281 L 321.324219 357.613281 L 321.324219 193.914062 L 297.378906 193.914062 C 297.296875 201.335938 291.234375 207.351562 283.792969 207.351562 L 224.109375 207.351562 C 216.667969 207.351562 210.605469 201.335938 210.523438 193.914062 L 186.578125 193.914062 Z M 186.578125 357.613281 " fill-opacity="1" fill-rule="nonzero"/><path fill="#722f37" d="M 271.40625 235.964844 C 271.160156 235.964844 270.90625 235.917969 270.65625 235.824219 C 269.5625 235.410156 269.007812 234.183594 269.421875 233.089844 L 273.953125 221.121094 C 274.367188 220.023438 275.59375 219.472656 276.6875 219.886719 C 277.785156 220.300781 278.335938 221.527344 277.921875 222.621094 L 273.394531 234.589844 C 273.070312 235.441406 272.265625 235.964844 271.40625 235.964844 Z M 271.40625 235.964844 " fill-opacity="1" fill-rule="nonzero"/><path fill="#722f37" d="M 280.464844 235.964844 C 279.609375 235.964844 278.800781 235.441406 278.480469 234.589844 L 273.953125 222.621094 C 273.539062 221.527344 274.089844 220.300781 275.1875 219.886719 C 276.28125 219.472656 277.507812 220.023438 277.921875 221.121094 L 282.453125 233.089844 C 282.867188 234.183594 282.3125 235.410156 281.21875 235.824219 C 280.96875 235.917969 280.714844 235.964844 280.464844 235.964844 Z M 280.464844 235.964844 " fill-opacity="1" fill-rule="nonzero"/><path fill="#722f37" d="M 278.730469 231.371094 L 273.144531 231.371094 C 271.972656 231.371094 271.023438 230.421875 271.023438 229.25 C 271.023438 228.078125 271.972656 227.128906 273.144531 227.128906 L 278.730469 227.128906 C 279.902344 227.128906 280.851562 228.078125 280.851562 229.25 C 280.851562 230.421875 279.902344 231.371094 278.730469 231.371094 Z M 278.730469 231.371094 " fill-opacity="1" fill-rule="nonzero"/><path fill="#722f37" d="M 220.445312 235.960938 C 216.867188 235.960938 213.960938 233.054688 213.960938 229.480469 L 213.960938 221.871094 C 213.960938 220.699219 214.910156 219.75 216.082031 219.75 C 217.253906 219.75 218.207031 220.699219 218.207031 221.871094 L 218.207031 229.480469 C 218.207031 230.714844 219.210938 231.71875 220.445312 231.71875 C 221.679688 231.71875 222.683594 230.714844 222.683594 229.480469 L 222.683594 221.871094 C 222.683594 220.699219 223.632812 219.75 224.804688 219.75 C 225.976562 219.75 226.925781 220.699219 226.925781 221.871094 L 226.925781 229.480469 C 226.925781 233.054688 224.019531 235.960938 220.445312 235.960938 Z M 220.445312 235.960938 " fill-opacity="1" fill-rule="nonzero"/><path fill="#722f37" d="M 303.695312 235.960938 C 302.523438 235.960938 301.574219 235.011719 301.574219 233.839844 L 301.574219 228.210938 C 301.574219 227.039062 302.523438 226.089844 303.695312 226.089844 C 304.867188 226.089844 305.820312 227.039062 305.820312 228.210938 L 305.820312 233.839844 C 305.820312 235.011719 304.867188 235.960938 303.695312 235.960938 Z M 303.695312 235.960938 " fill-opacity="1" fill-rule="nonzero"/><path fill="#722f37" d="M 303.699219 230.335938 C 303.011719 230.335938 302.339844 230.003906 301.929688 229.390625 L 297.695312 223.050781 C 297.042969 222.074219 297.304688 220.757812 298.28125 220.105469 C 299.257812 219.453125 300.574219 219.71875 301.226562 220.691406 L 305.460938 227.035156 C 306.113281 228.007812 305.851562 229.328125 304.875 229.976562 C 304.511719 230.21875 304.101562 230.335938 303.699219 230.335938 Z M 303.699219 230.335938 " fill-opacity="1" fill-rule="nonzero"/><path fill="#722f37" d="M 303.695312 230.335938 C 303.289062 230.335938 302.878906 230.21875 302.515625 229.976562 C 301.542969 229.328125 301.28125 228.007812 301.929688 227.035156 L 306.167969 220.691406 C 306.816406 219.71875 308.136719 219.453125 309.109375 220.105469 C 310.085938 220.757812 310.347656 222.074219 309.695312 223.050781 L 305.460938 229.390625 C 305.050781 230.003906 304.378906 230.335938 303.695312 230.335938 Z M 303.695312 230.335938 " fill-opacity="1" fill-rule="nonzero"/><path fill="#722f37" d="M 287.214844 235.960938 C 286.042969 235.960938 285.09375 235.011719 285.09375 233.839844 L 285.09375 221.871094 C 285.09375 220.699219 286.042969 219.75 287.214844 219.75 L 290.800781 219.75 C 293.714844 219.75 296.089844 222.121094 296.089844 225.039062 C 296.089844 227.953125 293.714844 230.328125 290.800781 230.328125 L 289.339844 230.328125 L 289.339844 233.839844 C 289.339844 235.011719 288.390625 235.964844 287.214844 235.964844 Z M 289.339844 226.082031 L 290.800781 226.082031 C 291.375 226.082031 291.84375 225.613281 291.84375 225.039062 C 291.84375 224.460938 291.375 223.992188 290.800781 223.992188 L 289.339844 223.992188 Z M 289.339844 226.082031 " fill-opacity="1" fill-rule="nonzero"/><path fill="#722f37" d="M 294.300781 235.960938 C 293.761719 235.960938 293.222656 235.757812 292.808594 235.347656 L 287.113281 229.710938 C 286.28125 228.886719 286.273438 227.542969 287.101562 226.710938 C 287.925781 225.878906 289.269531 225.871094 290.101562 226.695312 L 295.792969 232.332031 C 296.628906 233.15625 296.632812 234.5 295.808594 235.332031 C 295.394531 235.753906 294.847656 235.960938 294.300781 235.960938 Z M 294.300781 235.960938 " fill-opacity="1" fill-rule="nonzero"/><path fill="#722f37" d="M 231.558594 235.964844 C 231.410156 235.964844 231.261719 235.949219 231.113281 235.917969 C 229.964844 235.671875 229.234375 234.542969 229.480469 233.398438 L 232.03125 221.429688 C 232.277344 220.28125 233.40625 219.550781 234.550781 219.796875 C 235.699219 220.039062 236.429688 221.167969 236.183594 222.3125 L 233.628906 234.285156 C 233.417969 235.28125 232.535156 235.964844 231.558594 235.964844 Z M 231.558594 235.964844 " fill-opacity="1" fill-rule="nonzero"/><path fill="#722f37" d="M 238.144531 235.964844 C 237.257812 235.964844 236.429688 235.40625 236.132812 234.519531 L 232.097656 222.546875 C 231.722656 221.4375 232.320312 220.234375 233.429688 219.859375 C 234.542969 219.484375 235.746094 220.082031 236.121094 221.191406 L 240.15625 233.164062 C 240.527344 234.273438 239.933594 235.476562 238.820312 235.851562 C 238.597656 235.925781 238.367188 235.964844 238.144531 235.964844 Z M 238.144531 235.964844 " fill-opacity="1" fill-rule="nonzero"/><path fill="#722f37" d="M 244.730469 235.964844 C 243.75 235.964844 242.867188 235.28125 242.65625 234.285156 L 240.101562 222.3125 C 239.855469 221.167969 240.589844 220.039062 241.734375 219.796875 C 242.882812 219.550781 244.007812 220.28125 244.253906 221.429688 L 246.808594 233.398438 C 247.050781 234.542969 246.320312 235.671875 245.175781 235.917969 C 245.023438 235.949219 244.875 235.964844 244.730469 235.964844 Z M 244.730469 235.964844 " fill-opacity="1" fill-rule="nonzero"/><path fill="#722f37" d="M 238.144531 235.964844 C 237.917969 235.964844 237.691406 235.925781 237.464844 235.851562 C 236.355469 235.476562 235.757812 234.273438 236.132812 233.164062 L 240.167969 221.191406 C 240.539062 220.082031 241.746094 219.484375 242.855469 219.859375 C 243.964844 220.234375 244.5625 221.4375 244.1875 222.546875 L 240.15625 234.519531 C 239.855469 235.402344 239.027344 235.964844 238.144531 235.964844 Z M 238.144531 235.964844 " fill-opacity="1" fill-rule="nonzero"/><path fill="#722f37" d="M 251.484375 235.964844 C 251.335938 235.964844 251.1875 235.949219 251.039062 235.917969 C 249.890625 235.671875 249.160156 234.542969 249.40625 233.398438 L 251.960938 221.429688 C 252.203125 220.28125 253.332031 219.550781 254.476562 219.796875 C 255.625 220.039062 256.355469 221.167969 256.113281 222.3125 L 253.558594 234.285156 C 253.34375 235.28125 252.464844 235.964844 251.484375 235.964844 Z M 251.484375 235.964844 " fill-opacity="1" fill-rule="nonzero"/><path fill="#722f37" d="M 258.070312 235.964844 C 257.183594 235.964844 256.355469 235.40625 256.058594 234.519531 L 252.023438 222.546875 C 251.648438 221.4375 252.246094 220.234375 253.359375 219.859375 C 254.46875 219.484375 255.671875 220.082031 256.046875 221.191406 L 260.082031 233.164062 C 260.457031 234.273438 259.859375 235.476562 258.746094 235.851562 C 258.523438 235.925781 258.292969 235.964844 258.070312 235.964844 Z M 258.070312 235.964844 " fill-opacity="1" fill-rule="nonzero"/><path fill="#722f37" d="M 264.65625 235.964844 C 263.675781 235.964844 262.796875 235.28125 262.582031 234.285156 L 260.027344 222.3125 C 259.785156 221.167969 260.515625 220.039062 261.660156 219.796875 C 262.808594 219.550781 263.9375 220.28125 264.179688 221.429688 L 266.734375 233.398438 C 266.980469 234.542969 266.246094 235.671875 265.101562 235.917969 C 264.953125 235.949219 264.804688 235.964844 264.65625 235.964844 Z M 264.65625 235.964844 " fill-opacity="1" fill-rule="nonzero"/><path fill="#722f37" d="M 258.070312 235.964844 C 257.84375 235.964844 257.617188 235.925781 257.390625 235.851562 C 256.28125 235.476562 255.683594 234.273438 256.058594 233.164062 L 260.09375 221.191406 C 260.46875 220.082031 261.671875 219.484375 262.78125 219.859375 C 263.894531 220.234375 264.492188 221.4375 264.117188 222.546875 L 260.082031 234.519531 C 259.78125 235.40625 258.957031 235.964844 258.070312 235.964844 Z M 258.070312 235.964844 " fill-opacity="1" fill-rule="nonzero"/><path fill="#722f37" d="M 204.460938 236.398438 C 201.75 236.398438 199.34375 235.269531 198.179688 233.453125 C 197.550781 232.464844 197.839844 231.152344 198.824219 230.523438 C 199.8125 229.890625 201.125 230.179688 201.757812 231.167969 C 202 231.546875 202.953125 232.15625 204.460938 232.15625 C 205.871094 232.15625 206.546875 231.945312 206.867188 231.769531 C 207.015625 231.683594 207.152344 231.609375 207.195312 231.265625 C 206.882812 230.976562 205.988281 230.511719 204.9375 230.246094 C 200.503906 229.132812 198.257812 227.25 198.257812 224.65625 C 198.257812 221.65625 201.328125 219.3125 205.253906 219.3125 C 206.964844 219.3125 208.605469 219.769531 209.867188 220.605469 C 210.847656 221.253906 211.117188 222.570312 210.46875 223.546875 C 209.824219 224.527344 208.503906 224.792969 207.527344 224.148438 C 206.960938 223.769531 206.128906 223.554688 205.253906 223.554688 C 203.601562 223.554688 202.613281 224.300781 202.511719 224.605469 C 202.640625 224.769531 203.328125 225.464844 205.972656 226.128906 C 207.257812 226.453125 211.457031 227.765625 211.457031 231.054688 C 211.457031 231.066406 211.457031 231.074219 211.457031 231.082031 C 211.429688 233.070312 210.484375 236.398438 204.460938 236.398438 Z M 204.460938 236.398438 " fill-opacity="1" fill-rule="nonzero"/><path fill="#722f37" d="M 287.214844 350.980469 C 271.894531 350.980469 259.429688 338.515625 259.429688 323.191406 C 259.429688 307.871094 271.894531 295.40625 287.214844 295.40625 C 302.539062 295.40625 315.003906 307.871094 315.003906 323.191406 C 315.003906 338.515625 302.539062 350.980469 287.214844 350.980469 Z M 287.214844 299.648438 C 274.234375 299.648438 263.675781 310.210938 263.675781 323.191406 C 263.675781 336.171875 274.234375 346.734375 287.214844 346.734375 C 300.199219 346.734375 310.757812 336.171875 310.757812 323.191406 C 310.757812 310.210938 300.199219 299.648438 287.214844 299.648438 Z M 287.214844 299.648438 " fill-opacity="1" fill-rule="nonzero"/><path fill="#722f37" d="M 284.042969 333.710938 C 283.5 333.710938 282.953125 333.503906 282.539062 333.085938 L 272.101562 322.648438 C 271.273438 321.820312 271.273438 320.476562 272.101562 319.644531 C 272.929688 318.816406 274.273438 318.816406 275.101562 319.644531 L 284.042969 328.585938 L 299.328125 313.296875 C 300.160156 312.46875 301.503906 312.46875 302.332031 313.296875 C 303.160156 314.125 303.160156 315.46875 302.332031 316.296875 L 285.542969 333.085938 C 285.128906 333.5 284.585938 333.710938 284.042969 333.710938 Z M 284.042969 333.710938 " fill-opacity="1" fill-rule="nonzero"/><path fill="#722f37" d="M 307.933594 254.867188 L 199.96875 254.867188 C 198.796875 254.867188 197.847656 253.914062 197.847656 252.742188 C 197.847656 251.570312 198.796875 250.621094 199.96875 250.621094 L 307.933594 250.621094 C 309.105469 250.621094 310.054688 251.570312 310.054688 252.742188 C 310.054688 253.914062 309.105469 254.867188 307.933594 254.867188 Z M 307.933594 254.867188 " fill-opacity="1" fill-rule="nonzero"/><path fill="#722f37" d="M 307.933594 267.457031 L 199.96875 267.457031 C 198.796875 267.457031 197.847656 266.507812 197.847656 265.335938 C 197.847656 264.164062 198.796875 263.210938 199.96875 263.210938 L 307.933594 263.210938 C 309.105469 263.210938 310.054688 264.164062 310.054688 265.335938 C 310.054688 266.507812 309.105469 267.457031 307.933594 267.457031 Z M 307.933594 267.457031 " fill-opacity="1" fill-rule="nonzero"/><path fill="#722f37" d="M 258.070312 280.050781 L 199.96875 280.050781 C 198.796875 280.050781 197.847656 279.097656 197.847656 277.925781 C 197.847656 276.753906 198.796875 275.804688 199.96875 275.804688 L 258.070312 275.804688 C 259.242188 275.804688 260.191406 276.753906 260.191406 277.925781 C 260.191406 279.097656 259.242188 280.050781 258.070312 280.050781 Z M 258.070312 280.050781 " fill-opacity="1" fill-rule="nonzero"/><path fill="#722f37" d="M 254.035156 304.328125 L 199.96875 304.328125 C 198.796875 304.328125 197.847656 303.378906 197.847656 302.207031 C 197.847656 301.03125 198.796875 300.082031 199.96875 300.082031 L 254.035156 300.082031 C 255.207031 300.082031 256.15625 301.03125 256.15625 302.207031 C 256.15625 303.378906 255.207031 304.328125 254.035156 304.328125 Z M 254.035156 304.328125 " fill-opacity="1" fill-rule="nonzero"/><path fill="#722f37" d="M 246.609375 316.917969 L 199.96875 316.917969 C 198.796875 316.917969 197.847656 315.96875 197.847656 314.796875 C 197.847656 313.625 198.796875 312.675781 199.96875 312.675781 L 246.609375 312.675781 C 247.78125 312.675781 248.730469 313.625 248.730469 314.796875 C 248.730469 315.96875 247.78125 316.917969 246.609375 316.917969 Z M 246.609375 316.917969 " fill-opacity="1" fill-rule="nonzero"/><path fill="#722f37" d="M 231.554688 329.511719 L 199.96875 329.511719 C 198.796875 329.511719 197.847656 328.5625 197.847656 327.390625 C 197.847656 326.21875 198.796875 325.265625 199.96875 325.265625 L 231.554688 325.265625 C 232.726562 325.265625 233.675781 326.21875 233.675781 327.390625 C 233.675781 328.5625 232.726562 329.511719 231.554688 329.511719 Z M 231.554688 329.511719 " fill-opacity="1" fill-rule="nonzero"/><g clip-path="url(#8ef44e918d)"><path fill="#722f37" d="M 149.964844 265.675781 L 142.242188 265.675781 L 142.242188 261.558594 C 142.242188 260.53125 141.410156 259.699219 140.382812 259.699219 C 120.792969 259.699219 114.503906 261.402344 101.972656 264.800781 C 101.011719 265.058594 100.011719 265.332031 98.964844 265.609375 C 97.917969 265.332031 96.917969 265.058594 95.960938 264.800781 C 83.425781 261.402344 77.136719 259.699219 57.546875 259.699219 C 56.519531 259.699219 55.6875 260.53125 55.6875 261.558594 L 55.6875 265.675781 L 47.964844 265.675781 C 46.9375 265.675781 46.105469 266.507812 46.105469 267.535156 L 46.105469 340.910156 C 46.105469 341.9375 46.9375 342.769531 47.964844 342.769531 L 62.355469 342.769531 C 62.601562 343.226562 62.855469 343.671875 63.125 344.113281 L 57.746094 349.332031 C 56.265625 348.652344 54.453125 348.902344 53.214844 350.105469 L 39.878906 363.046875 C 38.269531 364.605469 38.230469 367.1875 39.792969 368.796875 L 44.609375 373.757812 C 45.40625 374.578125 46.464844 374.988281 47.527344 374.988281 C 48.546875 374.988281 49.570312 374.609375 50.359375 373.84375 L 63.695312 360.90625 C 64.472656 360.148438 64.910156 359.136719 64.925781 358.046875 C 64.933594 357.46875 64.820312 356.914062 64.601562 356.398438 L 69.765625 351.390625 C 74.128906 354.660156 79.546875 356.601562 85.410156 356.601562 C 95.378906 356.601562 104.058594 350.996094 108.464844 342.769531 L 149.964844 342.769531 C 150.992188 342.769531 151.824219 341.9375 151.824219 340.910156 L 151.824219 267.535156 C 151.824219 266.507812 150.992188 265.675781 149.964844 265.675781 Z M 111.363281 278.644531 L 107.808594 279.398438 L 107.808594 267.085938 C 109.035156 266.761719 110.210938 266.464844 111.363281 266.1875 Z M 102.941406 268.386719 C 103.332031 268.285156 103.710938 268.179688 104.089844 268.078125 L 104.089844 281.691406 C 104.089844 282.25 104.339844 282.78125 104.777344 283.136719 C 105.113281 283.40625 105.527344 283.550781 105.949219 283.550781 C 106.078125 283.550781 106.207031 283.535156 106.332031 283.511719 L 113.609375 281.96875 C 114.46875 281.789062 115.082031 281.027344 115.082031 280.152344 L 115.082031 277.246094 C 121.503906 275.953125 126.761719 275.589844 133.890625 275.394531 C 134.917969 275.367188 135.726562 274.511719 135.699219 273.488281 C 135.671875 272.460938 134.808594 271.652344 133.789062 271.679688 C 126.890625 271.863281 121.433594 272.234375 115.082031 273.457031 L 115.082031 265.359375 C 121.242188 264.109375 127.613281 263.484375 138.523438 263.425781 L 138.523438 330.703125 C 127.777344 330.800781 118.839844 331.765625 111.359375 333.632812 C 111.484375 332.59375 111.550781 331.535156 111.550781 330.460938 C 111.550781 328.828125 111.398438 327.230469 111.113281 325.683594 C 117.546875 323.964844 124.847656 323.011719 133.90625 322.699219 C 134.929688 322.664062 135.734375 321.804688 135.699219 320.777344 C 135.664062 319.75 134.800781 318.949219 133.777344 318.980469 C 124.441406 319.304688 116.882812 320.296875 110.175781 322.082031 C 109.328125 319.585938 108.109375 317.253906 106.589844 315.15625 C 114.519531 312.527344 122.726562 311.242188 133.902344 310.875 C 134.929688 310.839844 135.734375 309.980469 135.699219 308.953125 C 135.664062 307.929688 134.8125 307.125 133.78125 307.15625 C 121.988281 307.542969 113.355469 308.933594 104.910156 311.796875 C 104.617188 311.898438 104.367188 312.0625 104.164062 312.273438 C 103.136719 311.210938 102.019531 310.238281 100.824219 309.363281 L 100.824219 268.960938 C 101.550781 268.765625 102.257812 268.574219 102.941406 268.386719 Z M 94.988281 268.386719 C 95.671875 268.574219 96.378906 268.765625 97.105469 268.960938 L 97.105469 307.085938 C 93.585938 305.320312 89.613281 304.320312 85.410156 304.320312 C 80.777344 304.320312 76.425781 305.535156 72.648438 307.65625 C 70.046875 307.421875 67.261719 307.257812 64.148438 307.15625 C 63.121094 307.125 62.265625 307.929688 62.230469 308.953125 C 62.195312 309.980469 63 310.839844 64.027344 310.875 C 65.390625 310.917969 66.683594 310.976562 67.925781 311.046875 C 63.238281 315.269531 60.085938 321.164062 59.40625 327.78125 L 59.40625 263.425781 C 77.03125 263.523438 82.808594 265.089844 94.988281 268.386719 Z M 49.824219 339.050781 L 49.824219 269.394531 L 55.6875 269.394531 L 55.6875 332.554688 C 55.6875 333.582031 56.519531 334.414062 57.546875 334.414062 C 58.222656 334.414062 58.898438 334.417969 59.570312 334.421875 C 59.8125 336.019531 60.203125 337.566406 60.722656 339.050781 Z M 61.101562 358.234375 L 47.769531 371.175781 C 47.632812 371.304688 47.40625 371.300781 47.277344 371.167969 L 42.460938 366.207031 C 42.332031 366.070312 42.335938 365.84375 42.46875 365.714844 L 55.804688 352.773438 C 55.941406 352.644531 56.164062 352.648438 56.296875 352.78125 L 61.109375 357.742188 C 61.191406 357.828125 61.207031 357.925781 61.207031 357.992188 C 61.203125 358.058594 61.1875 358.15625 61.101562 358.234375 Z M 62.210938 353.535156 L 60.535156 351.808594 L 65.320312 347.164062 C 65.832031 347.785156 66.375 348.375 66.941406 348.945312 Z M 85.410156 352.882812 C 73.046875 352.882812 62.988281 342.824219 62.988281 330.460938 C 62.988281 318.097656 73.046875 308.039062 85.410156 308.039062 C 97.773438 308.039062 107.832031 318.097656 107.832031 330.460938 C 107.832031 342.824219 97.773438 352.882812 85.410156 352.882812 Z M 148.105469 339.050781 L 110.101562 339.050781 C 110.253906 338.605469 110.402344 338.152344 110.53125 337.695312 C 118.457031 335.488281 128.238281 334.414062 140.382812 334.414062 C 141.410156 334.414062 142.242188 333.582031 142.242188 332.554688 L 142.242188 269.394531 L 148.105469 269.394531 Z M 94.195312 302.191406 C 93.941406 302.980469 93.210938 303.484375 92.421875 303.484375 C 92.234375 303.484375 92.042969 303.453125 91.855469 303.394531 C 81.90625 300.195312 73.535156 299.34375 64.03125 299.046875 C 63.003906 299.015625 62.199219 298.15625 62.230469 297.132812 C 62.261719 296.105469 63.121094 295.296875 64.148438 295.332031 C 73.964844 295.636719 82.628906 296.523438 92.992188 299.851562 C 93.96875 300.167969 94.507812 301.214844 94.195312 302.191406 Z M 94.203125 290.203125 C 93.960938 291.007812 93.222656 291.527344 92.425781 291.527344 C 92.246094 291.527344 92.0625 291.5 91.882812 291.445312 C 81.410156 288.273438 74.015625 287.511719 64.035156 287.222656 C 63.007812 287.191406 62.199219 286.335938 62.230469 285.308594 C 62.261719 284.300781 63.085938 283.503906 64.089844 283.503906 C 64.105469 283.503906 64.125 283.503906 64.144531 283.503906 C 74.445312 283.804688 82.089844 284.59375 92.960938 287.886719 C 93.945312 288.183594 94.5 289.222656 94.203125 290.203125 Z M 62.230469 273.488281 C 62.257812 272.476562 63.085938 271.675781 64.089844 271.675781 C 64.105469 271.675781 64.121094 271.675781 64.140625 271.679688 C 74.589844 271.960938 81.566406 272.664062 92.933594 275.898438 C 93.917969 276.179688 94.492188 277.207031 94.210938 278.195312 C 93.980469 279.015625 93.234375 279.546875 92.425781 279.546875 C 92.253906 279.546875 92.085938 279.523438 91.914062 279.476562 C 80.929688 276.351562 74.175781 275.667969 64.039062 275.394531 C 63.011719 275.367188 62.203125 274.511719 62.230469 273.488281 Z M 135.699219 297.132812 C 135.730469 298.15625 134.925781 299.015625 133.898438 299.046875 C 124.394531 299.34375 116.023438 300.195312 106.074219 303.394531 C 105.886719 303.453125 105.695312 303.484375 105.507812 303.484375 C 104.71875 303.484375 103.988281 302.980469 103.738281 302.191406 C 103.421875 301.214844 103.960938 300.167969 104.9375 299.851562 C 115.300781 296.523438 123.964844 295.636719 133.78125 295.332031 C 134.808594 295.296875 135.667969 296.105469 135.699219 297.132812 Z M 103.726562 290.203125 C 103.429688 289.222656 103.984375 288.183594 104.96875 287.886719 C 115.839844 284.59375 123.484375 283.804688 133.785156 283.503906 C 134.816406 283.472656 135.667969 284.28125 135.699219 285.308594 C 135.730469 286.335938 134.921875 287.191406 133.894531 287.222656 C 123.914062 287.511719 116.519531 288.273438 106.046875 291.445312 C 105.867188 291.5 105.683594 291.523438 105.507812 291.523438 C 104.707031 291.523438 103.96875 291.007812 103.726562 290.203125 Z M 85.410156 310.753906 C 74.542969 310.753906 65.703125 319.59375 65.703125 330.460938 C 65.703125 341.328125 74.542969 350.167969 85.410156 350.167969 C 96.277344 350.167969 105.117188 341.328125 105.117188 330.460938 C 105.117188 319.59375 96.277344 310.753906 85.410156 310.753906 Z M 85.410156 346.449219 C 76.59375 346.449219 69.421875 339.277344 69.421875 330.460938 C 69.421875 321.644531 76.59375 314.472656 85.410156 314.472656 C 94.226562 314.472656 101.398438 321.644531 101.398438 330.460938 C 101.398438 339.277344 94.226562 346.449219 85.410156 346.449219 Z M 85.410156 346.449219 " fill-opacity="1" fill-rule="nonzero"/></g><path fill="#722f37" d="M 52.429688 172.972656 C 53.675781 173.085938 54.9375 173.144531 56.179688 173.152344 C 56.382812 173.152344 56.554688 172.988281 56.554688 172.78125 C 56.554688 172.570312 56.390625 172.40625 56.179688 172.40625 C 54.957031 172.398438 53.714844 172.339844 52.488281 172.226562 C 52.289062 172.214844 52.101562 172.363281 52.085938 172.5625 C 52.074219 172.78125 52.222656 172.960938 52.429688 172.972656 Z M 52.429688 172.972656 " fill-opacity="1" fill-rule="nonzero"/><path fill="#722f37" d="M 45.035156 171.722656 C 45.710938 171.886719 46.398438 172.042969 47.078125 172.183594 C 47.613281 172.296875 48.15625 172.398438 48.703125 172.496094 C 48.722656 172.496094 48.746094 172.503906 48.761719 172.503906 C 48.941406 172.503906 49.097656 172.378906 49.128906 172.191406 C 49.164062 171.988281 49.023438 171.796875 48.820312 171.757812 C 48.285156 171.667969 47.753906 171.566406 47.21875 171.453125 C 46.539062 171.3125 45.867188 171.15625 45.199219 170.996094 C 44.996094 170.953125 44.792969 171.074219 44.75 171.273438 C 44.707031 171.476562 44.832031 171.675781 45.035156 171.722656 Z M 45.035156 171.722656 " fill-opacity="1" fill-rule="nonzero"/><path fill="#722f37" d="M 26.847656 204.425781 C 26.683594 204.300781 26.453125 204.320312 26.324219 204.476562 C 26.199219 204.636719 26.21875 204.875 26.378906 205 C 27.355469 205.789062 28.398438 206.519531 29.464844 207.171875 C 29.523438 207.207031 29.589844 207.222656 29.65625 207.222656 C 29.785156 207.222656 29.902344 207.15625 29.980469 207.042969 C 30.082031 206.863281 30.03125 206.640625 29.851562 206.527344 C 28.808594 205.902344 27.800781 205.195312 26.847656 204.425781 Z M 26.847656 204.425781 " fill-opacity="1" fill-rule="nonzero"/><path fill="#722f37" d="M 21.300781 198.996094 C 21.136719 199.117188 21.089844 199.347656 21.210938 199.519531 C 21.933594 200.542969 22.738281 201.519531 23.601562 202.433594 C 23.675781 202.507812 23.773438 202.554688 23.871094 202.554688 C 23.960938 202.554688 24.058594 202.523438 24.125 202.449219 C 24.273438 202.308594 24.28125 202.070312 24.140625 201.921875 C 23.296875 201.027344 22.515625 200.070312 21.804688 199.078125 C 21.703125 198.914062 21.464844 198.878906 21.300781 198.996094 Z M 21.300781 198.996094 " fill-opacity="1" fill-rule="nonzero"/><path fill="#722f37" d="M 17.117188 189.484375 C 17.136719 189.484375 17.167969 189.484375 17.191406 189.476562 C 17.390625 189.4375 17.527344 189.238281 17.480469 189.035156 C 17.234375 187.835938 17.078125 186.613281 16.996094 185.390625 C 16.980469 185.179688 16.808594 185.015625 16.601562 185.039062 C 16.390625 185.054688 16.242188 185.234375 16.25 185.433594 C 16.332031 186.6875 16.496094 187.945312 16.75 189.175781 C 16.789062 189.355469 16.9375 189.484375 17.117188 189.484375 Z M 17.117188 189.484375 " fill-opacity="1" fill-rule="nonzero"/><path fill="#722f37" d="M 19.578125 196.492188 C 19.636719 196.492188 19.695312 196.476562 19.75 196.449219 C 19.933594 196.351562 20 196.125 19.90625 195.949219 C 19.34375 194.867188 18.859375 193.734375 18.449219 192.578125 C 18.382812 192.382812 18.167969 192.277344 17.972656 192.347656 C 17.78125 192.414062 17.675781 192.628906 17.742188 192.824219 C 18.160156 194.015625 18.660156 195.179688 19.234375 196.289062 C 19.308594 196.417969 19.441406 196.492188 19.578125 196.492188 Z M 19.578125 196.492188 " fill-opacity="1" fill-rule="nonzero"/><path fill="#722f37" d="M 100.109375 201.554688 C 99.90625 201.585938 99.757812 201.773438 99.789062 201.972656 C 99.953125 203.1875 100.054688 204.425781 100.109375 205.648438 C 100.117188 205.851562 100.28125 206.007812 100.480469 206.007812 C 100.488281 206.007812 100.488281 206.007812 100.496094 206.007812 C 100.703125 206 100.863281 205.828125 100.855469 205.617188 C 100.800781 204.375 100.699219 203.105469 100.535156 201.867188 C 100.503906 201.667969 100.308594 201.511719 100.109375 201.554688 Z M 100.109375 201.554688 " fill-opacity="1" fill-rule="nonzero"/><path fill="#722f37" d="M 100.464844 208.988281 C 100.257812 208.96875 100.085938 209.136719 100.070312 209.339844 L 100.046875 209.75 C 99.972656 210.839844 99.855469 211.933594 99.691406 213.015625 C 99.660156 213.21875 99.800781 213.410156 100.003906 213.441406 C 100.027344 213.441406 100.042969 213.449219 100.0625 213.449219 C 100.242188 213.449219 100.40625 213.3125 100.429688 213.136719 C 100.601562 212.03125 100.71875 210.914062 100.792969 209.808594 L 100.816406 209.390625 C 100.832031 209.175781 100.675781 209.003906 100.464844 208.988281 Z M 100.464844 208.988281 " fill-opacity="1" fill-rule="nonzero"/><path fill="#722f37" d="M 99.40625 216.355469 C 99.207031 216.296875 99.003906 216.421875 98.953125 216.625 C 98.652344 217.8125 98.289062 219.003906 97.878906 220.160156 C 97.8125 220.351562 97.910156 220.570312 98.101562 220.636719 C 98.148438 220.652344 98.183594 220.660156 98.230469 220.660156 C 98.386719 220.660156 98.527344 220.5625 98.578125 220.414062 C 98.996094 219.234375 99.363281 218.027344 99.667969 216.8125 C 99.726562 216.609375 99.609375 216.410156 99.40625 216.355469 Z M 99.40625 216.355469 " fill-opacity="1" fill-rule="nonzero"/><path fill="#722f37" d="M 95.007812 190.558594 L 80.101562 187.789062 C 79.902344 187.753906 79.707031 187.886719 79.667969 188.089844 C 79.632812 188.289062 79.765625 188.484375 79.96875 188.519531 L 94.875 191.289062 C 94.894531 191.296875 94.917969 191.296875 94.941406 191.296875 C 95.121094 191.296875 95.277344 191.167969 95.304688 190.988281 C 95.34375 190.789062 95.210938 190.59375 95.007812 190.558594 Z M 95.007812 190.558594 " fill-opacity="1" fill-rule="nonzero"/><g clip-path="url(#c8aa49471e)"><path fill="#722f37" d="M 102.171875 174.515625 C 101.949219 174.195312 101.605469 173.972656 101.21875 173.90625 L 95.640625 172.871094 C 95.679688 172.390625 95.558594 171.914062 95.285156 171.519531 C 94.964844 171.050781 94.476562 170.738281 93.925781 170.632812 C 93.367188 170.527344 92.808594 170.648438 92.339844 170.96875 C 91.9375 171.242188 91.660156 171.648438 91.519531 172.101562 L 82.585938 170.4375 L 82.585938 161.410156 C 82.585938 160.589844 81.921875 159.925781 81.101562 159.925781 L 75.449219 159.925781 C 75.328125 158.875 74.441406 158.054688 73.359375 158.054688 C 72.28125 158.054688 71.394531 158.875 71.273438 159.925781 L 59.878906 159.925781 C 59.066406 159.925781 58.402344 160.589844 58.402344 161.410156 L 58.402344 182.617188 C 58.402344 183.4375 59.066406 184.097656 59.878906 184.097656 L 76.164062 184.097656 L 75.449219 187.917969 L 37.226562 187.917969 C 35.660156 187.917969 34.386719 189.191406 34.386719 190.757812 L 34.386719 208.722656 C 33.960938 208.566406 33.535156 208.394531 33.117188 208.214844 C 32.929688 208.132812 32.707031 208.222656 32.625 208.40625 C 32.550781 208.601562 32.632812 208.816406 32.828125 208.898438 C 33.273438 209.09375 33.730469 209.273438 34.191406 209.445312 C 34.230469 209.460938 34.273438 209.464844 34.316406 209.464844 C 34.339844 209.464844 34.363281 209.453125 34.386719 209.445312 L 34.386719 217.675781 C 31.335938 215.277344 26.898438 215.476562 24.085938 218.289062 C 21.476562 220.898438 21.121094 224.917969 23.015625 227.914062 C 21.730469 228.144531 20.726562 229.152344 20.492188 230.433594 C 17.488281 228.546875 13.46875 228.898438 10.867188 231.507812 C 7.832031 234.535156 7.832031 239.464844 10.867188 242.492188 C 12.328125 243.960938 14.28125 244.765625 16.355469 244.765625 C 18.4375 244.765625 20.382812 243.960938 21.851562 242.492188 C 24.738281 239.605469 24.863281 235 22.253906 231.957031 L 23.261719 230.679688 L 24.535156 229.675781 C 25.980469 230.910156 27.777344 231.546875 29.582031 231.546875 C 31.285156 231.546875 32.984375 230.988281 34.386719 229.875 L 34.386719 246.667969 C 34.386719 248.234375 35.660156 249.507812 37.226562 249.507812 L 77.394531 249.507812 C 78.519531 249.507812 79.527344 248.84375 79.984375 247.847656 C 81.9375 248.90625 84.164062 249.507812 86.539062 249.507812 C 94.136719 249.507812 100.324219 243.328125 100.324219 235.722656 L 100.324219 235.683594 C 100.324219 231.835938 98.734375 228.363281 96.1875 225.855469 C 96.527344 225.214844 96.855469 224.558594 97.164062 223.894531 C 97.253906 223.707031 97.171875 223.484375 96.984375 223.402344 C 96.796875 223.3125 96.574219 223.394531 96.492188 223.582031 C 96.214844 224.171875 95.917969 224.761719 95.613281 225.335938 C 93.179688 223.210938 90.011719 221.90625 86.539062 221.90625 C 84.269531 221.90625 82.128906 222.464844 80.242188 223.441406 L 80.242188 194.664062 L 96.789062 197.738281 C 96.878906 197.753906 96.976562 197.765625 97.066406 197.765625 C 97.363281 197.765625 97.648438 197.679688 97.902344 197.507812 C 98.230469 197.28125 98.445312 196.941406 98.519531 196.550781 L 98.578125 196.238281 C 98.78125 196.933594 98.96875 197.632812 99.132812 198.339844 C 99.167969 198.511719 99.324219 198.625 99.488281 198.625 C 99.519531 198.625 99.550781 198.625 99.578125 198.617188 C 99.78125 198.574219 99.898438 198.371094 99.855469 198.171875 C 99.585938 196.984375 99.25 195.796875 98.878906 194.652344 L 102.40625 175.628906 C 102.480469 175.242188 102.398438 174.84375 102.171875 174.515625 Z M 78.425781 168.457031 C 78.425781 168.664062 78.253906 168.828125 78.050781 168.828125 L 62.9375 168.828125 C 62.726562 168.828125 62.5625 168.664062 62.5625 168.457031 C 62.5625 168.253906 62.726562 168.082031 62.9375 168.082031 L 78.050781 168.082031 C 78.253906 168.082031 78.425781 168.253906 78.425781 168.457031 Z M 78.425781 173.109375 C 78.425781 173.308594 78.253906 173.480469 78.050781 173.480469 L 62.9375 173.480469 C 62.726562 173.480469 62.5625 173.308594 62.5625 173.109375 C 62.5625 172.898438 62.726562 172.734375 62.9375 172.734375 L 78.050781 172.734375 C 78.253906 172.734375 78.425781 172.898438 78.425781 173.109375 Z M 62.9375 177.378906 L 78.050781 177.378906 C 78.253906 177.378906 78.425781 177.542969 78.425781 177.753906 C 78.425781 177.960938 78.253906 178.125 78.050781 178.125 L 62.9375 178.125 C 62.726562 178.125 62.5625 177.960938 62.5625 177.753906 C 62.5625 177.542969 62.726562 177.378906 62.9375 177.378906 Z M 73.359375 158.800781 C 74.113281 158.800781 74.726562 159.410156 74.726562 160.164062 C 74.726562 160.925781 74.113281 161.535156 73.359375 161.535156 C 73.121094 161.535156 72.898438 161.46875 72.699219 161.355469 L 73.621094 160.433594 C 73.769531 160.28125 73.769531 160.050781 73.621094 159.902344 C 73.480469 159.761719 73.242188 159.761719 73.101562 159.902344 L 72.167969 160.828125 C 72.0625 160.632812 71.996094 160.410156 71.996094 160.164062 C 71.996094 159.410156 72.609375 158.800781 73.359375 158.800781 Z M 11.390625 232.039062 C 12.761719 230.664062 14.558594 229.980469 16.355469 229.980469 C 17.964844 229.980469 19.570312 230.53125 20.875 231.628906 L 10.105469 240.1875 C 8.765625 237.554688 9.191406 234.238281 11.390625 232.039062 Z M 21.320312 241.96875 C 19.992188 243.289062 18.234375 244.019531 16.355469 244.019531 C 14.484375 244.019531 12.714844 243.289062 11.390625 241.96875 C 11.046875 241.621094 10.742188 241.238281 10.480469 240.84375 L 20.671875 232.738281 L 18.613281 235.332031 C 17.316406 236.960938 16.839844 239.0625 17.300781 241.089844 L 17.472656 241.867188 C 17.511719 242.039062 17.667969 242.148438 17.839844 242.148438 C 17.867188 242.148438 17.890625 242.148438 17.921875 242.140625 C 18.121094 242.097656 18.25 241.894531 18.203125 241.695312 L 18.027344 240.925781 C 17.617188 239.121094 18.039062 237.25 19.195312 235.796875 L 21.785156 232.546875 C 24.050781 235.296875 23.894531 239.390625 21.320312 241.96875 Z M 22.730469 230.152344 L 21.464844 231.15625 C 21.375 231.074219 21.285156 230.992188 21.1875 230.917969 C 21.222656 229.667969 22.238281 228.652344 23.507812 228.617188 C 23.582031 228.703125 23.664062 228.792969 23.738281 228.882812 Z M 24.207031 228.292969 C 21.886719 225.535156 22.023438 221.40625 24.617188 218.808594 C 25.980469 217.445312 27.785156 216.757812 29.582031 216.757812 C 30.679688 216.757812 31.769531 217.011719 32.765625 217.527344 Z M 25.125 229.203125 L 28.375 226.617188 C 29.828125 225.460938 31.699219 225.035156 33.503906 225.445312 L 34.273438 225.625 C 34.476562 225.671875 34.675781 225.542969 34.722656 225.34375 C 34.765625 225.140625 34.640625 224.9375 34.445312 224.894531 L 33.667969 224.722656 C 31.640625 224.261719 29.539062 224.738281 27.914062 226.035156 L 25.316406 228.09375 L 33.421875 217.898438 C 33.820312 218.160156 34.199219 218.46875 34.550781 218.808594 C 37.285156 221.546875 37.285156 226.003906 34.550781 228.742188 C 31.96875 231.320312 27.875 231.472656 25.125 229.203125 Z M 77.394531 248.761719 L 37.226562 248.761719 C 36.070312 248.761719 35.132812 247.824219 35.132812 246.667969 L 35.132812 229.203125 C 38.078125 226.191406 38.078125 221.359375 35.132812 218.347656 L 35.132812 190.757812 C 35.132812 189.601562 36.070312 188.664062 37.226562 188.664062 L 77.394531 188.664062 C 78.550781 188.664062 79.5 189.601562 79.5 190.757812 L 79.5 223.859375 C 75.472656 226.273438 72.757812 230.671875 72.757812 235.722656 C 72.757812 236.316406 72.808594 236.90625 72.875 237.480469 L 50.359375 237.480469 C 50.15625 237.480469 49.984375 237.644531 49.984375 237.855469 C 49.984375 238.0625 50.15625 238.226562 50.359375 238.226562 L 72.980469 238.226562 C 72.988281 238.226562 72.988281 238.226562 72.996094 238.226562 C 73.710938 242.121094 76.074219 245.445312 79.335938 247.449219 C 79.011719 248.234375 78.253906 248.761719 77.394531 248.761719 Z M 86.539062 222.648438 C 93.726562 222.648438 99.578125 228.496094 99.578125 235.683594 L 99.578125 235.722656 C 99.578125 242.910156 93.726562 248.761719 86.539062 248.761719 C 79.347656 248.761719 73.503906 242.910156 73.503906 235.683594 C 73.503906 228.496094 79.347656 222.648438 86.539062 222.648438 Z M 98.117188 194.636719 L 97.789062 196.417969 C 97.75 196.613281 97.640625 196.777344 97.484375 196.886719 C 97.320312 197 97.117188 197.035156 96.925781 197.007812 L 80.242188 193.914062 L 80.242188 190.757812 C 80.242188 189.191406 78.96875 187.917969 77.394531 187.917969 L 76.210938 187.917969 L 76.925781 184.097656 L 81.101562 184.097656 C 81.226562 184.097656 81.347656 184.078125 81.460938 184.046875 C 81.464844 184.054688 81.472656 184.0625 81.488281 184.0625 L 95.722656 186.703125 C 95.746094 186.710938 95.769531 186.710938 95.789062 186.710938 C 95.96875 186.710938 96.125 186.589844 96.15625 186.402344 C 96.195312 186.203125 96.058594 186.007812 95.859375 185.972656 L 82.324219 183.457031 C 82.488281 183.21875 82.585938 182.929688 82.585938 182.617188 L 82.585938 179.519531 L 96.574219 182.125 L 96.640625 182.125 C 96.820312 182.125 96.976562 182.003906 97.007812 181.824219 C 97.042969 181.617188 96.917969 181.421875 96.707031 181.386719 L 82.585938 178.761719 L 82.585938 171.199219 L 91.429688 172.839844 C 91.445312 173.101562 91.503906 173.355469 91.609375 173.585938 L 89.976562 174.710938 C 89.804688 174.832031 89.757812 175.0625 89.878906 175.234375 C 89.945312 175.335938 90.0625 175.390625 90.183594 175.390625 C 90.257812 175.390625 90.332031 175.375 90.390625 175.332031 L 92.03125 174.203125 C 92.324219 174.503906 92.710938 174.71875 93.152344 174.800781 C 93.277344 174.824219 93.414062 174.839844 93.539062 174.839844 C 94.367188 174.839844 95.121094 174.339844 95.460938 173.59375 L 101.085938 174.636719 C 101.277344 174.675781 101.441406 174.777344 101.554688 174.941406 C 101.667969 175.105469 101.710938 175.300781 101.675781 175.496094 Z M 98.117188 194.636719 " fill-opacity="1" fill-rule="nonzero"/></g><path fill="#722f37" d="M 43.140625 204.800781 C 41.15625 204.800781 39.539062 206.410156 39.539062 208.394531 C 39.539062 210.375 41.15625 211.988281 43.140625 211.988281 C 45.121094 211.988281 46.734375 210.375 46.734375 208.394531 C 46.734375 206.410156 45.121094 204.800781 43.140625 204.800781 Z M 43.140625 204.800781 " fill-opacity="1" fill-rule="nonzero"/><path fill="#722f37" d="M 43.140625 215.238281 C 41.15625 215.238281 39.539062 216.855469 39.539062 218.832031 C 39.539062 220.816406 41.15625 222.425781 43.140625 222.425781 C 45.121094 222.425781 46.734375 220.816406 46.734375 218.832031 C 46.734375 216.855469 45.121094 215.238281 43.140625 215.238281 Z M 43.140625 215.238281 " fill-opacity="1" fill-rule="nonzero"/><path fill="#722f37" d="M 43.140625 225.675781 C 41.15625 225.675781 39.539062 227.296875 39.539062 229.277344 C 39.539062 231.253906 41.15625 232.875 43.140625 232.875 C 45.121094 232.875 46.734375 231.253906 46.734375 229.277344 C 46.734375 227.296875 45.121094 225.675781 43.140625 225.675781 Z M 43.140625 225.675781 " fill-opacity="1" fill-rule="nonzero"/><path fill="#722f37" d="M 43.140625 236.125 C 41.15625 236.125 39.539062 237.734375 39.539062 239.71875 C 39.539062 241.703125 41.15625 243.3125 43.140625 243.3125 C 45.121094 243.3125 46.734375 241.703125 46.734375 239.71875 C 46.734375 237.734375 45.121094 236.125 43.140625 236.125 Z M 43.140625 236.125 " fill-opacity="1" fill-rule="nonzero"/><path fill="#722f37" d="M 50.359375 210.628906 L 65.300781 210.628906 C 65.507812 210.628906 65.671875 210.464844 65.671875 210.257812 C 65.671875 210.046875 65.507812 209.882812 65.300781 209.882812 L 50.359375 209.882812 C 50.148438 209.882812 49.984375 210.046875 49.984375 210.257812 C 49.984375 210.464844 50.15625 210.628906 50.359375 210.628906 Z M 50.359375 210.628906 " fill-opacity="1" fill-rule="nonzero"/><path fill="#722f37" d="M 49.984375 206.527344 C 49.984375 206.738281 50.148438 206.902344 50.359375 206.902344 L 74.71875 206.902344 C 74.925781 206.902344 75.089844 206.738281 75.089844 206.527344 C 75.089844 206.320312 74.925781 206.15625 74.71875 206.15625 L 50.359375 206.15625 C 50.15625 206.15625 49.984375 206.328125 49.984375 206.527344 Z M 49.984375 206.527344 " fill-opacity="1" fill-rule="nonzero"/><path fill="#722f37" d="M 50.359375 221.070312 L 65.300781 221.070312 C 65.507812 221.070312 65.671875 220.90625 65.671875 220.695312 C 65.671875 220.488281 65.507812 220.324219 65.300781 220.324219 L 50.359375 220.324219 C 50.148438 220.324219 49.984375 220.488281 49.984375 220.695312 C 49.984375 220.90625 50.15625 221.070312 50.359375 221.070312 Z M 50.359375 221.070312 " fill-opacity="1" fill-rule="nonzero"/><path fill="#722f37" d="M 74.726562 216.601562 L 50.359375 216.601562 C 50.148438 216.601562 49.984375 216.765625 49.984375 216.976562 C 49.984375 217.183594 50.148438 217.347656 50.359375 217.347656 L 74.71875 217.347656 C 74.925781 217.347656 75.089844 217.183594 75.089844 216.976562 C 75.089844 216.765625 74.925781 216.601562 74.726562 216.601562 Z M 74.726562 216.601562 " fill-opacity="1" fill-rule="nonzero"/><path fill="#722f37" d="M 65.308594 230.769531 L 50.359375 230.769531 C 50.148438 230.769531 49.984375 230.933594 49.984375 231.144531 C 49.984375 231.351562 50.148438 231.515625 50.359375 231.515625 L 65.300781 231.515625 C 65.507812 231.515625 65.671875 231.351562 65.671875 231.144531 C 65.671875 230.933594 65.507812 230.769531 65.308594 230.769531 Z M 65.308594 230.769531 " fill-opacity="1" fill-rule="nonzero"/><path fill="#722f37" d="M 74.726562 227.042969 L 50.359375 227.042969 C 50.148438 227.042969 49.984375 227.207031 49.984375 227.414062 C 49.984375 227.625 50.148438 227.789062 50.359375 227.789062 L 74.71875 227.789062 C 74.925781 227.789062 75.089844 227.625 75.089844 227.414062 C 75.089844 227.207031 74.925781 227.042969 74.726562 227.042969 Z M 74.726562 227.042969 " fill-opacity="1" fill-rule="nonzero"/><path fill="#722f37" d="M 65.308594 241.210938 L 50.359375 241.210938 C 50.148438 241.210938 49.984375 241.375 49.984375 241.582031 C 49.984375 241.792969 50.148438 241.957031 50.359375 241.957031 L 65.300781 241.957031 C 65.507812 241.957031 65.671875 241.792969 65.671875 241.582031 C 65.671875 241.375 65.507812 241.210938 65.308594 241.210938 Z M 65.308594 241.210938 " fill-opacity="1" fill-rule="nonzero"/><path fill="#722f37" d="M 45.128906 198.265625 L 69.492188 198.265625 C 69.699219 198.265625 69.863281 198.101562 69.863281 197.894531 C 69.863281 197.683594 69.699219 197.519531 69.492188 197.519531 L 45.128906 197.519531 C 44.921875 197.519531 44.757812 197.683594 44.757812 197.894531 C 44.757812 198.101562 44.929688 198.265625 45.128906 198.265625 Z M 45.128906 198.265625 " fill-opacity="1" fill-rule="nonzero"/><path fill="#722f37" d="M 83.195312 240.941406 C 83.523438 241.261719 83.957031 241.441406 84.410156 241.441406 C 84.867188 241.441406 85.300781 241.261719 85.628906 240.941406 L 93.664062 232.894531 C 93.988281 232.574219 94.164062 232.140625 94.164062 231.6875 C 94.164062 231.226562 93.988281 230.800781 93.664062 230.472656 C 93.015625 229.824219 91.882812 229.824219 91.234375 230.472656 L 84.410156 237.292969 L 81.839844 234.722656 C 81.191406 234.074219 80.058594 234.082031 79.410156 234.722656 C 79.089844 235.050781 78.910156 235.484375 78.910156 235.9375 C 78.910156 236.394531 79.089844 236.824219 79.410156 237.152344 Z M 83.195312 240.941406 " fill-opacity="1" fill-rule="nonzero"/><path fill="#722f37" d="M 16.78125 177.992188 C 16.527344 179.191406 16.355469 180.421875 16.265625 181.660156 C 16.25 181.863281 16.40625 182.042969 16.609375 182.054688 C 16.617188 182.0625 16.632812 182.0625 16.636719 182.0625 C 16.832031 182.0625 16.996094 181.90625 17.011719 181.714844 C 17.070312 180.894531 17.183594 180.066406 17.316406 179.253906 C 19.179688 183.027344 23.058594 185.636719 27.539062 185.636719 C 33.839844 185.636719 38.964844 180.503906 38.964844 174.210938 C 38.964844 172.898438 38.734375 171.648438 38.324219 170.476562 C 39.261719 170.542969 40.253906 170.667969 41.410156 170.902344 C 41.433594 170.902344 41.453125 170.910156 41.484375 170.910156 C 41.65625 170.910156 41.8125 170.78125 41.847656 170.601562 C 41.886719 170.402344 41.753906 170.207031 41.550781 170.171875 C 40.222656 169.910156 39.105469 169.769531 38.039062 169.714844 C 36.285156 165.652344 32.246094 162.796875 27.539062 162.796875 C 21.246094 162.796875 16.125 167.917969 16.125 174.210938 C 16.125 175.539062 16.363281 176.808594 16.78125 177.992188 Z M 27.539062 163.542969 C 33.429688 163.542969 38.21875 168.328125 38.21875 174.210938 C 38.21875 180.09375 33.429688 184.890625 27.539062 184.890625 C 21.65625 184.890625 16.871094 180.09375 16.871094 174.210938 C 16.871094 168.328125 21.65625 163.542969 27.539062 163.542969 Z M 27.539062 163.542969 " fill-opacity="1" fill-rule="nonzero"/><path fill="#722f37" d="M 27.546875 166.496094 C 27.757812 166.496094 27.921875 166.332031 27.921875 166.121094 L 27.921875 165.25 C 27.921875 165.039062 27.757812 164.875 27.546875 164.875 C 27.339844 164.875 27.175781 165.046875 27.175781 165.25 L 27.175781 166.121094 C 27.175781 166.332031 27.339844 166.496094 27.546875 166.496094 Z M 27.546875 166.496094 " fill-opacity="1" fill-rule="nonzero"/><path fill="#722f37" d="M 27.546875 181.929688 C 27.339844 181.929688 27.175781 182.09375 27.175781 182.300781 L 27.175781 183.175781 C 27.175781 183.382812 27.339844 183.546875 27.546875 183.546875 C 27.757812 183.546875 27.921875 183.382812 27.921875 183.175781 L 27.921875 182.300781 C 27.921875 182.101562 27.75 181.929688 27.546875 181.929688 Z M 27.546875 181.929688 " fill-opacity="1" fill-rule="nonzero"/><path fill="#722f37" d="M 21.558594 168.753906 C 21.632812 168.828125 21.730469 168.867188 21.820312 168.867188 C 21.910156 168.867188 22.015625 168.828125 22.082031 168.753906 C 22.230469 168.605469 22.230469 168.375 22.082031 168.222656 L 21.464844 167.605469 C 21.3125 167.457031 21.082031 167.457031 20.933594 167.605469 C 20.785156 167.753906 20.785156 167.984375 20.933594 168.132812 Z M 21.558594 168.753906 " fill-opacity="1" fill-rule="nonzero"/><path fill="#722f37" d="M 33.617188 180.816406 C 33.691406 180.894531 33.789062 180.929688 33.878906 180.929688 C 33.96875 180.929688 34.070312 180.894531 34.140625 180.816406 C 34.289062 180.667969 34.289062 180.4375 34.140625 180.289062 L 33.519531 179.671875 C 33.371094 179.519531 33.140625 179.519531 32.992188 179.671875 C 32.84375 179.820312 32.84375 180.050781 32.992188 180.199219 Z M 33.617188 180.816406 " fill-opacity="1" fill-rule="nonzero"/><path fill="#722f37" d="M 19.457031 173.839844 L 18.585938 173.839844 C 18.375 173.839844 18.210938 174.003906 18.210938 174.210938 C 18.210938 174.421875 18.375 174.585938 18.585938 174.585938 L 19.457031 174.585938 C 19.667969 174.585938 19.832031 174.421875 19.832031 174.210938 C 19.832031 174.003906 19.660156 173.839844 19.457031 173.839844 Z M 19.457031 173.839844 " fill-opacity="1" fill-rule="nonzero"/><path fill="#722f37" d="M 35.636719 174.585938 L 36.511719 174.585938 C 36.71875 174.585938 36.882812 174.421875 36.882812 174.210938 C 36.882812 174.003906 36.71875 173.839844 36.511719 173.839844 L 35.636719 173.839844 C 35.429688 173.839844 35.265625 174.003906 35.265625 174.210938 C 35.265625 174.421875 35.429688 174.585938 35.636719 174.585938 Z M 35.636719 174.585938 " fill-opacity="1" fill-rule="nonzero"/><path fill="#722f37" d="M 21.210938 180.921875 C 21.304688 180.921875 21.402344 180.886719 21.46875 180.8125 L 22.089844 180.191406 C 22.238281 180.042969 22.238281 179.8125 22.089844 179.664062 C 21.941406 179.511719 21.710938 179.511719 21.558594 179.664062 L 20.941406 180.28125 C 20.792969 180.429688 20.792969 180.660156 20.941406 180.8125 C 21.015625 180.886719 21.113281 180.921875 21.210938 180.921875 Z M 21.210938 180.921875 " fill-opacity="1" fill-rule="nonzero"/><path fill="#722f37" d="M 33.265625 168.867188 C 33.363281 168.867188 33.460938 168.828125 33.527344 168.753906 L 34.148438 168.132812 C 34.296875 167.984375 34.296875 167.753906 34.148438 167.605469 C 33.996094 167.457031 33.765625 167.457031 33.617188 167.605469 L 33 168.230469 C 32.847656 168.378906 32.847656 168.613281 33 168.761719 C 33.074219 168.828125 33.171875 168.867188 33.265625 168.867188 Z M 33.265625 168.867188 " fill-opacity="1" fill-rule="nonzero"/><path fill="#722f37" d="M 22.050781 174.210938 C 22.050781 174.421875 22.214844 174.585938 22.425781 174.585938 L 25.9375 174.585938 C 26.109375 175.316406 26.765625 175.867188 27.546875 175.867188 C 28.457031 175.867188 29.195312 175.121094 29.195312 174.210938 C 29.195312 173.429688 28.652344 172.773438 27.921875 172.609375 L 27.921875 168.625 C 27.921875 168.425781 27.75 168.253906 27.546875 168.253906 C 27.339844 168.253906 27.175781 168.425781 27.175781 168.625 L 27.175781 172.609375 C 26.5625 172.75 26.078125 173.226562 25.9375 173.839844 L 22.425781 173.839844 C 22.214844 173.839844 22.050781 174.003906 22.050781 174.210938 Z M 22.050781 174.210938 " fill-opacity="1" fill-rule="nonzero"/><path fill="#722f37" d="M 35.527344 158.21875 C 35.601562 158.292969 35.699219 158.328125 35.789062 158.328125 C 35.875 158.328125 35.980469 158.292969 36.046875 158.21875 L 37.546875 156.71875 L 39.046875 158.21875 C 39.121094 158.292969 39.21875 158.328125 39.308594 158.328125 C 39.394531 158.328125 39.5 158.292969 39.566406 158.21875 C 39.71875 158.066406 39.71875 157.835938 39.566406 157.6875 L 38.070312 156.1875 L 39.566406 154.691406 C 39.71875 154.542969 39.71875 154.308594 39.566406 154.160156 C 39.417969 154.011719 39.1875 154.011719 39.039062 154.160156 L 37.539062 155.660156 L 36.046875 154.175781 C 35.898438 154.027344 35.667969 154.027344 35.519531 154.175781 C 35.371094 154.324219 35.371094 154.554688 35.519531 154.707031 L 37.019531 156.203125 L 35.527344 157.695312 C 35.378906 157.835938 35.378906 158.074219 35.527344 158.21875 Z M 35.527344 158.21875 " fill-opacity="1" fill-rule="nonzero"/><path fill="#722f37" d="M 91.175781 210.367188 C 91.027344 210.21875 90.792969 210.21875 90.644531 210.367188 L 89.148438 211.867188 L 87.648438 210.367188 C 87.5 210.21875 87.269531 210.21875 87.117188 210.367188 C 86.96875 210.519531 86.96875 210.75 87.117188 210.898438 L 88.617188 212.398438 L 87.117188 213.894531 C 86.96875 214.046875 86.96875 214.277344 87.117188 214.425781 C 87.191406 214.5 87.289062 214.539062 87.378906 214.539062 C 87.46875 214.539062 87.574219 214.5 87.640625 214.425781 L 89.140625 212.925781 L 90.636719 214.425781 C 90.710938 214.5 90.808594 214.539062 90.898438 214.539062 C 90.988281 214.539062 91.09375 214.5 91.160156 214.425781 C 91.308594 214.277344 91.308594 214.046875 91.160156 213.894531 L 89.660156 212.398438 L 91.160156 210.898438 C 91.316406 210.75 91.316406 210.511719 91.175781 210.367188 Z M 91.175781 210.367188 " fill-opacity="1" fill-rule="nonzero"/><path fill="#722f37" d="M 14 162.066406 C 15.191406 162.066406 16.160156 161.101562 16.160156 159.910156 C 16.160156 158.722656 15.191406 157.761719 14 157.761719 C 12.8125 157.761719 11.851562 158.722656 11.851562 159.910156 C 11.851562 161.101562 12.8125 162.066406 14 162.066406 Z M 14 162.066406 " fill-opacity="1" fill-rule="nonzero"/><path fill="#722f37" d="M 14.199219 208.765625 C 14.199219 209.953125 15.167969 210.921875 16.355469 210.921875 C 17.539062 210.921875 18.511719 209.953125 18.511719 208.765625 C 18.511719 207.582031 17.539062 206.609375 16.355469 206.609375 C 15.167969 206.609375 14.199219 207.582031 14.199219 208.765625 Z M 14.199219 208.765625 " fill-opacity="1" fill-rule="nonzero"/><path fill="#722f37" d="M 45.742188 182.703125 C 46.933594 182.703125 47.898438 181.734375 47.898438 180.550781 C 47.898438 179.363281 46.933594 178.394531 45.742188 178.394531 C 44.554688 178.394531 43.59375 179.363281 43.59375 180.550781 C 43.59375 181.734375 44.554688 182.703125 45.742188 182.703125 Z M 45.742188 182.703125 " fill-opacity="1" fill-rule="nonzero"/><path fill="#722f37" d="M 8.957031 175.992188 C 9.054688 175.992188 9.152344 175.957031 9.21875 175.882812 L 10.578125 174.523438 C 10.726562 174.375 10.726562 174.144531 10.578125 173.996094 C 10.425781 173.847656 10.195312 173.847656 10.046875 173.996094 L 8.691406 175.351562 C 8.539062 175.5 8.539062 175.734375 8.691406 175.882812 C 8.773438 175.957031 8.867188 175.992188 8.957031 175.992188 Z M 8.957031 175.992188 " fill-opacity="1" fill-rule="nonzero"/><path fill="#722f37" d="M 12.046875 179.082031 C 12.140625 179.082031 12.238281 179.042969 12.304688 178.96875 L 13.664062 177.613281 C 13.8125 177.460938 13.8125 177.230469 13.664062 177.082031 C 13.515625 176.933594 13.28125 176.933594 13.132812 177.082031 L 11.777344 178.441406 C 11.628906 178.589844 11.628906 178.820312 11.777344 178.96875 C 11.859375 179.042969 11.949219 179.082031 12.046875 179.082031 Z M 12.046875 179.082031 " fill-opacity="1" fill-rule="nonzero"/><path fill="#722f37" d="M 10.054688 178.96875 C 10.128906 179.042969 10.226562 179.082031 10.316406 179.082031 C 10.40625 179.082031 10.507812 179.042969 10.578125 178.96875 C 10.726562 178.820312 10.726562 178.589844 10.578125 178.441406 L 9.21875 177.082031 C 9.070312 176.933594 8.839844 176.933594 8.691406 177.082031 C 8.539062 177.230469 8.539062 177.460938 8.691406 177.613281 Z M 10.054688 178.96875 " fill-opacity="1" fill-rule="nonzero"/><path fill="#722f37" d="M 13.132812 175.890625 C 13.207031 175.964844 13.304688 176 13.394531 176 C 13.484375 176 13.589844 175.964844 13.65625 175.890625 C 13.804688 175.742188 13.804688 175.507812 13.65625 175.359375 L 12.300781 174.003906 C 12.148438 173.855469 11.917969 173.855469 11.769531 174.003906 C 11.621094 174.152344 11.621094 174.382812 11.769531 174.53125 Z M 13.132812 175.890625 " fill-opacity="1" fill-rule="nonzero"/><path fill="#722f37" d="M 91.28125 161.417969 C 91.375 161.417969 91.472656 161.378906 91.539062 161.304688 L 92.898438 159.945312 C 93.046875 159.796875 93.046875 159.566406 92.898438 159.417969 C 92.75 159.269531 92.515625 159.269531 92.367188 159.417969 L 91.011719 160.773438 C 90.863281 160.925781 90.863281 161.15625 91.011719 161.304688 C 91.085938 161.378906 91.183594 161.417969 91.28125 161.417969 Z M 91.28125 161.417969 " fill-opacity="1" fill-rule="nonzero"/><path fill="#722f37" d="M 94.359375 164.503906 C 94.457031 164.503906 94.554688 164.464844 94.621094 164.390625 L 95.976562 163.035156 C 96.125 162.886719 96.125 162.652344 95.976562 162.503906 C 95.828125 162.355469 95.597656 162.355469 95.449219 162.503906 L 94.089844 163.863281 C 93.941406 164.011719 93.941406 164.242188 94.089844 164.390625 C 94.171875 164.464844 94.269531 164.503906 94.359375 164.503906 Z M 94.359375 164.503906 " fill-opacity="1" fill-rule="nonzero"/><path fill="#722f37" d="M 92.367188 164.390625 C 92.441406 164.464844 92.539062 164.503906 92.628906 164.503906 C 92.71875 164.503906 92.824219 164.464844 92.890625 164.390625 C 93.039062 164.242188 93.039062 164.011719 92.890625 163.863281 L 91.53125 162.503906 C 91.382812 162.355469 91.152344 162.355469 91.003906 162.503906 C 90.855469 162.652344 90.855469 162.886719 91.003906 163.035156 Z M 92.367188 164.390625 " fill-opacity="1" fill-rule="nonzero"/><path fill="#722f37" d="M 95.457031 161.304688 C 95.53125 161.378906 95.625 161.417969 95.714844 161.417969 C 95.804688 161.417969 95.910156 161.378906 95.976562 161.304688 C 96.125 161.15625 96.125 160.925781 95.976562 160.773438 L 94.621094 159.417969 C 94.472656 159.269531 94.238281 159.269531 94.089844 159.417969 C 93.941406 159.566406 93.941406 159.796875 94.089844 159.945312 Z M 95.457031 161.304688 " fill-opacity="1" fill-rule="nonzero"/><g clip-path="url(#740095de03)"><path fill="#722f37" d="M 51.238281 67.226562 C 69.796875 67.226562 84.84375 52.179688 84.84375 33.621094 C 84.84375 15.0625 69.796875 0.015625 51.238281 0.015625 C 32.679688 0.015625 17.632812 15.0625 17.632812 33.621094 C 17.632812 52.183594 32.679688 67.226562 51.238281 67.226562 Z M 157.644531 153.371094 L 121.46875 153.371094 C 119.949219 153.371094 118.71875 154.597656 118.71875 156.117188 C 118.71875 157.632812 119.949219 158.863281 121.46875 158.863281 L 157.644531 158.863281 C 159.160156 158.863281 160.390625 157.632812 160.390625 156.117188 C 160.390625 154.597656 159.160156 153.371094 157.644531 153.371094 Z M 157.644531 133.621094 L 121.46875 133.621094 C 119.949219 133.621094 118.71875 134.851562 118.71875 136.367188 C 118.71875 137.886719 119.949219 139.117188 121.46875 139.117188 L 157.644531 139.117188 C 159.160156 139.117188 160.390625 137.886719 160.390625 136.367188 C 160.390625 134.851562 159.160156 133.621094 157.644531 133.621094 Z M 143.652344 113.871094 L 121.46875 113.871094 C 119.949219 113.871094 118.71875 115.101562 118.71875 116.621094 C 118.71875 118.136719 119.949219 119.367188 121.46875 119.367188 L 143.652344 119.367188 C 145.167969 119.367188 146.398438 118.136719 146.398438 116.621094 C 146.398438 115.101562 145.167969 113.871094 143.652344 113.871094 Z M 155.054688 89.042969 C 155.152344 89.042969 155.242188 89.078125 155.3125 89.152344 L 172.34375 106.179688 C 172.414062 106.253906 172.449219 106.339844 172.449219 106.441406 L 172.449219 170.980469 C 172.449219 173.667969 170.25 175.867188 167.566406 175.867188 L 111.542969 175.867188 C 108.859375 175.867188 106.660156 173.667969 106.660156 170.980469 L 106.660156 93.929688 C 106.660156 91.242188 108.859375 89.042969 111.542969 89.042969 Z M 112.625 94.644531 L 152.886719 94.644531 L 152.945312 94.703125 L 152.945312 103.871094 C 152.945312 106.558594 155.140625 108.753906 157.828125 108.753906 L 166.484375 108.753906 C 166.6875 108.753906 166.851562 108.917969 166.851562 109.121094 L 166.851562 169.898438 C 166.851562 170.101562 166.6875 170.265625 166.484375 170.265625 L 112.625 170.265625 C 112.425781 170.265625 112.257812 170.101562 112.257812 169.898438 L 112.257812 95.007812 C 112.257812 94.808594 112.425781 94.644531 112.625 94.644531 Z M 95.632812 33.621094 C 95.632812 38.828125 102.417969 40.847656 105.285156 36.53125 C 105.355469 36.429688 105.464844 36.371094 105.59375 36.371094 L 129.707031 36.371094 C 129.804688 36.371094 129.894531 36.40625 129.964844 36.476562 L 146.285156 52.796875 C 146.355469 52.867188 146.390625 52.953125 146.390625 53.054688 L 146.390625 68.488281 C 146.390625 68.832031 145.953125 68.984375 145.738281 68.714844 L 145.472656 68.378906 C 144.535156 67.191406 142.8125 66.992188 141.628906 67.925781 C 140.441406 68.863281 140.242188 70.582031 141.179688 71.769531 L 146.828125 78.914062 C 148.175781 80.621094 150.101562 80.621094 151.449219 78.914062 L 157.101562 71.769531 C 158.035156 70.582031 157.835938 68.863281 156.648438 67.925781 C 155.464844 66.992188 153.742188 67.191406 152.804688 68.378906 C 152.597656 68.640625 152.445312 68.941406 152.132812 68.832031 C 151.984375 68.78125 151.886719 68.644531 151.886719 68.488281 L 151.886719 51.765625 C 151.886719 51.0625 151.617188 50.359375 151.082031 49.824219 L 132.957031 31.699219 C 132.457031 31.191406 131.761719 30.875 130.996094 30.875 L 105.59375 30.875 C 105.464844 30.875 105.359375 30.816406 105.289062 30.710938 C 102.421875 26.398438 95.632812 28.414062 95.632812 33.621094 Z M 56.464844 83.28125 C 56.464844 85.089844 55.542969 86.683594 54.148438 87.621094 C 54.042969 87.691406 53.984375 87.800781 53.984375 87.925781 L 53.984375 112.089844 C 53.984375 112.1875 54.023438 112.277344 54.09375 112.347656 L 70.414062 128.667969 C 70.484375 128.738281 70.570312 128.773438 70.671875 128.773438 L 86.101562 128.773438 C 86.261719 128.773438 86.398438 128.679688 86.449219 128.527344 C 86.558594 128.21875 86.257812 128.0625 85.992188 127.855469 C 84.808594 126.917969 84.605469 125.199219 85.542969 124.011719 C 86.480469 122.828125 88.199219 122.625 89.386719 123.5625 L 96.53125 129.210938 C 98.234375 130.558594 98.234375 132.484375 96.53125 133.832031 L 89.386719 139.484375 C 88.199219 140.417969 86.480469 140.21875 85.542969 139.03125 C 84.605469 137.847656 84.808594 136.125 85.992188 135.1875 L 86.332031 134.921875 C 86.601562 134.707031 86.449219 134.269531 86.101562 134.269531 L 69.382812 134.269531 C 68.679688 134.269531 67.976562 134 67.441406 133.464844 L 49.3125 115.339844 C 48.804688 114.839844 48.492188 114.144531 48.492188 113.378906 L 48.492188 87.925781 C 48.492188 87.800781 48.433594 87.691406 48.328125 87.621094 C 44.097656 84.804688 46.050781 78.054688 51.238281 78.054688 C 54.125 78.058594 56.464844 80.394531 56.464844 83.28125 Z M 66.71875 36.609375 L 45.125 49.078125 C 42.820312 50.410156 39.949219 48.753906 39.949219 46.085938 L 39.949219 21.15625 C 39.949219 18.492188 42.820312 16.835938 45.125 18.167969 L 66.71875 30.632812 C 69.023438 31.964844 69.027344 35.277344 66.71875 36.609375 Z M 66.71875 36.609375 " fill-opacity="1" fill-rule="evenodd"/></g><g clip-path="url(#a16e1506f9)"><path fill="#722f37" d="M 240.320312 156.457031 C 232.929688 156.457031 226.230469 152.171875 223.046875 145.625 C 211.191406 147.371094 200.847656 137.976562 200.847656 126.347656 C 200.847656 123.757812 201.359375 121.191406 202.359375 118.828125 C 194.121094 116.058594 188.449219 108.355469 188.449219 99.425781 C 188.449219 95.1875 189.730469 91.160156 192.09375 87.773438 C 184.699219 85.101562 179.515625 78.019531 179.515625 69.855469 C 179.515625 59.359375 188.0625 50.8125 198.5625 50.8125 C 199.820312 50.8125 201.078125 50.9375 202.28125 51.171875 C 202.257812 50.757812 202.230469 50.347656 202.230469 49.9375 C 202.230469 38.054688 211.960938 28.402344 223.921875 28.609375 C 227.410156 22.910156 233.546875 19.445312 240.296875 19.445312 C 250.898438 19.445312 259.519531 28.070312 259.519531 38.671875 L 259.519531 137.230469 C 259.519531 147.832031 250.898438 156.457031 240.296875 156.457031 Z M 224.535156 140.3125 C 225.5625 140.3125 226.511719 140.953125 226.871094 141.980469 C 228.875 147.679688 234.265625 151.503906 240.296875 151.503906 C 248.148438 151.503906 254.542969 145.113281 254.542969 137.257812 L 254.542969 38.617188 C 254.542969 30.765625 248.148438 24.375 240.296875 24.375 C 234.878906 24.375 230.003906 27.402344 227.566406 32.253906 C 227.101562 33.175781 226.152344 33.714844 225.101562 33.613281 C 224.585938 33.5625 224.074219 33.535156 223.5625 33.535156 C 214.527344 33.535156 207.183594 40.878906 207.183594 49.914062 C 207.183594 51.273438 207.363281 52.683594 207.75 54.097656 C 208.007812 55.019531 207.671875 55.996094 206.953125 56.636719 C 206.234375 57.253906 205.210938 57.40625 204.335938 56.996094 C 202.488281 56.148438 200.539062 55.738281 198.535156 55.738281 C 190.757812 55.738281 184.445312 62.054688 184.445312 69.832031 C 184.445312 76.964844 189.785156 82.996094 196.894531 83.820312 C 197.84375 83.921875 198.664062 84.589844 198.972656 85.511719 C 199.28125 86.4375 199.023438 87.4375 198.332031 88.105469 C 195.148438 91.082031 193.402344 95.113281 193.402344 99.425781 C 193.402344 107.074219 198.871094 113.515625 206.414062 114.746094 C 207.238281 114.875 207.929688 115.414062 208.289062 116.183594 C 208.621094 116.957031 208.570312 117.828125 208.109375 118.519531 C 206.59375 120.855469 205.800781 123.578125 205.800781 126.347656 C 205.800781 135.539062 214.371094 142.828125 223.921875 140.414062 C 224.125 140.363281 224.332031 140.335938 224.535156 140.335938 Z M 224.535156 140.3125 " fill-opacity="1" fill-rule="nonzero"/></g><g clip-path="url(#0db04b076a)"><path fill="#722f37" d="M 319.300781 78.429688 C 314.292969 78.429688 310.214844 74.347656 310.214844 69.34375 C 310.214844 64.335938 314.292969 60.257812 319.300781 60.257812 C 324.304688 60.257812 328.386719 64.335938 328.386719 69.34375 C 328.386719 74.347656 324.304688 78.429688 319.300781 78.429688 Z M 319.300781 65.234375 C 317.039062 65.234375 315.191406 67.082031 315.191406 69.34375 C 315.191406 71.601562 317.039062 73.449219 319.300781 73.449219 C 321.558594 73.449219 323.40625 71.601562 323.40625 69.34375 C 323.40625 67.082031 321.558594 65.234375 319.300781 65.234375 Z M 319.300781 65.234375 " fill-opacity="1" fill-rule="nonzero"/></g><path fill="#722f37" d="M 313.78125 85.28125 L 257.058594 85.28125 C 255.695312 85.28125 254.566406 84.179688 254.566406 82.792969 C 254.566406 81.40625 255.671875 80.300781 257.058594 80.300781 L 312.601562 80.300781 L 317.375 74.375 C 318.246094 73.296875 319.789062 73.140625 320.867188 73.988281 C 321.917969 74.859375 322.097656 76.402344 321.222656 77.480469 L 315.679688 84.332031 C 315.21875 84.921875 314.5 85.257812 313.753906 85.257812 Z M 313.78125 85.28125 " fill-opacity="1" fill-rule="nonzero"/><path fill="#722f37" d="M 296.097656 66.621094 C 291.089844 66.621094 287.011719 62.539062 287.011719 57.535156 C 287.011719 52.53125 291.089844 48.449219 296.097656 48.449219 C 301.101562 48.449219 305.183594 52.53125 305.183594 57.535156 C 305.183594 62.539062 301.101562 66.621094 296.097656 66.621094 Z M 296.097656 53.429688 C 293.835938 53.429688 291.988281 55.277344 291.988281 57.535156 C 291.988281 59.792969 293.835938 61.640625 296.097656 61.640625 C 298.355469 61.640625 300.203125 59.792969 300.203125 57.535156 C 300.203125 55.277344 298.355469 53.429688 296.097656 53.429688 Z M 296.097656 53.429688 " fill-opacity="1" fill-rule="nonzero"/><path fill="#722f37" d="M 290.550781 73.476562 L 257.058594 73.476562 C 255.695312 73.476562 254.566406 72.371094 254.566406 70.984375 C 254.566406 69.597656 255.671875 68.496094 257.058594 68.496094 L 289.371094 68.496094 L 294.171875 62.539062 C 295.042969 61.488281 296.585938 61.308594 297.664062 62.15625 C 298.738281 63.027344 298.894531 64.570312 298.046875 65.648438 L 292.503906 72.523438 C 292.042969 73.117188 291.324219 73.449219 290.578125 73.449219 Z M 290.550781 73.476562 " fill-opacity="1" fill-rule="nonzero"/><path fill="#722f37" d="M 311.34375 116.109375 C 306.335938 116.109375 302.257812 112.027344 302.257812 107.023438 C 302.257812 102.015625 306.335938 97.9375 311.34375 97.9375 C 316.347656 97.9375 320.429688 102.015625 320.429688 107.023438 C 320.429688 112.027344 316.347656 116.109375 311.34375 116.109375 Z M 311.34375 102.914062 C 309.085938 102.914062 307.234375 104.761719 307.234375 107.023438 C 307.234375 109.28125 309.085938 111.128906 311.34375 111.128906 C 313.601562 111.128906 315.449219 109.28125 315.449219 107.023438 C 315.449219 104.761719 313.601562 102.914062 311.34375 102.914062 Z M 311.34375 102.914062 " fill-opacity="1" fill-rule="nonzero"/><path fill="#722f37" d="M 311.34375 102.914062 C 310.625 102.914062 309.90625 102.605469 309.417969 101.992188 L 304.644531 96.0625 L 257.082031 96.0625 C 255.722656 96.0625 254.59375 94.957031 254.59375 93.574219 C 254.59375 92.1875 255.695312 91.082031 257.082031 91.082031 L 305.851562 91.082031 C 306.59375 91.082031 307.3125 91.417969 307.773438 92.007812 L 313.320312 98.859375 C 314.191406 99.914062 314.011719 101.476562 312.933594 102.351562 C 312.472656 102.710938 311.933594 102.890625 311.367188 102.890625 Z M 311.34375 102.914062 " fill-opacity="1" fill-rule="nonzero"/><path fill="#722f37" d="M 292.785156 124.269531 C 287.78125 124.269531 283.699219 120.1875 283.699219 115.183594 C 283.699219 110.179688 287.78125 106.097656 292.785156 106.097656 C 297.789062 106.097656 301.871094 110.179688 301.871094 115.183594 C 301.871094 120.1875 297.789062 124.269531 292.785156 124.269531 Z M 292.785156 111.078125 C 290.527344 111.078125 288.679688 112.925781 288.679688 115.183594 C 288.679688 117.441406 290.527344 119.289062 292.785156 119.289062 C 295.042969 119.289062 296.890625 117.441406 296.890625 115.183594 C 296.890625 112.925781 295.042969 111.078125 292.785156 111.078125 Z M 292.785156 111.078125 " fill-opacity="1" fill-rule="nonzero"/><path fill="#722f37" d="M 292.785156 111.078125 C 292.066406 111.078125 291.347656 110.769531 290.859375 110.152344 L 286.0625 104.199219 L 257.058594 104.199219 C 255.695312 104.199219 254.566406 103.09375 254.566406 101.707031 C 254.566406 100.324219 255.671875 99.21875 257.058594 99.21875 L 287.242188 99.21875 C 287.984375 99.21875 288.703125 99.554688 289.167969 100.144531 L 294.710938 107.023438 C 295.558594 108.101562 295.402344 109.640625 294.324219 110.511719 C 293.863281 110.871094 293.324219 111.050781 292.757812 111.050781 Z M 292.785156 111.078125 " fill-opacity="1" fill-rule="nonzero"/><path fill="#722f37" d="M 276.28125 137.464844 C 271.277344 137.464844 267.195312 133.382812 267.195312 128.378906 C 267.195312 123.371094 271.277344 119.289062 276.28125 119.289062 C 281.285156 119.289062 285.367188 123.371094 285.367188 128.378906 C 285.367188 133.382812 281.285156 137.464844 276.28125 137.464844 Z M 276.28125 124.269531 C 274.023438 124.269531 272.175781 126.117188 272.175781 128.378906 C 272.175781 130.636719 274.023438 132.484375 276.28125 132.484375 C 278.539062 132.484375 280.386719 130.636719 280.386719 128.378906 C 280.386719 126.117188 278.539062 124.269531 276.28125 124.269531 Z M 276.28125 124.269531 " fill-opacity="1" fill-rule="nonzero"/><path fill="#722f37" d="M 270.507812 126.273438 C 270.171875 126.273438 269.8125 126.195312 269.480469 126.042969 L 259.675781 121.601562 C 259.160156 121.371094 258.75 120.960938 258.492188 120.472656 L 254.847656 113.257812 C 254.234375 112.027344 254.722656 110.539062 255.953125 109.921875 C 257.183594 109.304688 258.671875 109.792969 259.289062 111.027344 L 262.550781 117.46875 L 271.558594 121.550781 C 272.816406 122.113281 273.355469 123.578125 272.789062 124.835938 C 272.378906 125.757812 271.480469 126.296875 270.53125 126.296875 Z M 270.507812 126.273438 " fill-opacity="1" fill-rule="nonzero"/><path fill="#722f37" d="M 281.773438 51.734375 C 276.769531 51.734375 272.6875 47.652344 272.6875 42.648438 C 272.6875 37.644531 276.769531 33.5625 281.773438 33.5625 C 286.78125 33.5625 290.859375 37.644531 290.859375 42.648438 C 290.859375 47.652344 286.78125 51.734375 281.773438 51.734375 Z M 281.773438 38.542969 C 279.515625 38.542969 277.667969 40.390625 277.667969 42.648438 C 277.667969 44.90625 279.515625 46.753906 281.773438 46.753906 C 284.03125 46.753906 285.882812 44.90625 285.882812 42.648438 C 285.882812 40.390625 284.03125 38.542969 281.773438 38.542969 Z M 281.773438 38.542969 " fill-opacity="1" fill-rule="nonzero"/><path fill="#722f37" d="M 261.546875 63.335938 L 257.058594 63.335938 C 255.695312 63.335938 254.566406 62.234375 254.566406 60.847656 C 254.566406 59.460938 255.671875 58.355469 257.058594 58.355469 L 260.035156 58.355469 L 264.011719 50.527344 C 264.269531 50.015625 264.679688 49.628906 265.191406 49.398438 L 274.972656 44.957031 C 276.230469 44.394531 277.691406 44.957031 278.257812 46.191406 C 278.824219 47.449219 278.257812 48.910156 277.027344 49.476562 L 268.042969 53.558594 L 263.78125 61.949219 C 263.34375 62.773438 262.5 63.3125 261.574219 63.3125 Z M 261.546875 63.335938 " fill-opacity="1" fill-rule="nonzero"/></svg>