<svg xmlns="http://www.w3.org/2000/svg" xmlns:xlink="http://www.w3.org/1999/xlink" width="500" zoomAndPan="magnify" viewBox="0 0 375 374.999991" height="500" preserveAspectRatio="xMidYMid meet" version="1.0"><defs><clipPath id="87d4009e1d"><path d="M 220 136.296875 L 238.464844 136.296875 L 238.464844 155 L 220 155 Z M 220 136.296875 " clip-rule="nonzero"/></clipPath><clipPath id="314a4ec56d"><path d="M 187.5 169 L 206 169 L 206 187.257812 L 187.5 187.257812 Z M 187.5 169 " clip-rule="nonzero"/></clipPath><clipPath id="dd157e66a0"><path d="M 285.390625 312 L 334.941406 312 L 334.941406 375 L 285.390625 375 Z M 285.390625 312 " clip-rule="nonzero"/></clipPath></defs><path fill="#722f37" d="M 155.160156 309.660156 C 155.152344 339.859375 154.933594 338.320312 155.460938 338.980469 C 156.667969 340.480469 158.566406 340.109375 160.273438 340.105469 C 163.988281 340.101562 171.605469 340.097656 180.097656 340.097656 C 180.722656 340.097656 181.601562 340.257812 182.195312 340.050781 C 182.742188 339.863281 182.996094 339.09375 182.535156 338.695312 C 181.734375 337.996094 167.28125 337.503906 159.398438 326.886719 C 161.457031 327.5625 163.582031 328.035156 165.730469 328.300781 C 162.308594 325.335938 159.601562 321.554688 157.894531 317.363281 C 158.792969 318.167969 159.816406 318.839844 160.910156 319.34375 C 160.484375 319.148438 159.960938 317.390625 159.757812 316.945312 C 158.679688 314.566406 157.742188 312.105469 156.941406 309.539062 C 156.742188 308.910156 156.042969 305.222656 155.234375 306.78125 C 154.847656 307.53125 155.160156 308.84375 155.160156 309.660156 Z M 155.160156 309.660156 " fill-opacity="1" fill-rule="nonzero"/><path fill="#722f37" d="M 263.621094 364.140625 C 263.621094 362.757812 261.53125 362.757812 261.53125 364.140625 C 261.53125 365.519531 263.621094 365.523438 263.621094 364.140625 Z M 263.621094 364.140625 " fill-opacity="1" fill-rule="nonzero"/><path fill="#722f37" d="M 268.328125 362.515625 C 268.328125 360.902344 265.886719 360.898438 265.886719 362.515625 C 265.886719 364.132812 268.328125 364.132812 268.328125 362.515625 Z M 268.328125 362.515625 " fill-opacity="1" fill-rule="nonzero"/><path fill="#722f37" d="M 356.246094 39.859375 L 130.402344 39.859375 C 136.027344 17.988281 115.285156 0.113281 90.753906 10.582031 C 84.464844 9.636719 79.835938 12.988281 78.074219 18.113281 C 72.617188 19.957031 68.160156 25.257812 67.160156 31.175781 C 65.238281 33.789062 64.546875 36.785156 64.472656 39.859375 L 18.597656 39.859375 C 12.296875 39.859375 6.992188 45.007812 6.917969 51.386719 L 1.535156 288.832031 C 1.382812 295.222656 6.410156 300.820312 13.292969 300.820312 L 148.464844 300.820312 L 148.464844 337.855469 C 114.515625 338.089844 115.273438 337.246094 114.1875 338.550781 C 100.0625 355.460938 100.136719 354.351562 100.144531 355.792969 C 99.191406 356.847656 99.816406 357.117188 99.617188 366.488281 C 99.605469 370.726562 102.066406 375.121094 106.085938 375.121094 C 106.945312 375.121094 272.050781 375.171875 271.179688 375.171875 C 275.167969 375.171875 277.640625 370.816406 277.640625 366.550781 L 277.648438 357.121094 C 277.648438 356.4375 277.230469 355.941406 276.691406 355.601562 C 276.636719 355.476562 276.636719 355.332031 276.558594 355.222656 L 264.800781 338.703125 C 264.417969 338.242188 263.804688 337.933594 263.1875 337.933594 L 230.296875 337.933594 L 230.296875 300.820312 L 362.46875 300.820312 C 369.285156 300.820312 374.378906 295.109375 374.226562 288.753906 L 368.003906 51.308594 C 367.847656 44.929688 362.699219 39.859375 356.246094 39.859375 Z M 114.265625 14.039062 C 114.265625 16.335938 113.035156 16.453125 113.035156 14.039062 C 113.035156 11.742188 114.265625 11.835938 114.265625 14.039062 Z M 111.808594 23.03125 C 111.808594 24.660156 110.886719 24.664062 110.886719 23.03125 C 110.886719 21.398438 111.808594 21.398438 111.808594 23.03125 Z M 109.117188 17.421875 C 109.117188 18.746094 108.734375 18.570312 108.734375 17.421875 C 108.734375 16.210938 109.117188 15.957031 109.117188 17.421875 Z M 68.929688 32.019531 C 68.929688 35.554688 69.621094 39.476562 70.695312 42.855469 C 70.464844 41.472656 70.695312 40.011719 71.386719 38.859375 C 71.847656 43.777344 73.230469 48.621094 75.539062 53 C 74.691406 51.460938 74.613281 49.542969 75.382812 47.925781 C 76 52.691406 79.609375 56.996094 84.296875 58.300781 L 85.066406 59.683594 C 73.910156 60.097656 63.585938 47.453125 68.929688 32.019531 Z M 106.582031 353.148438 C 107.257812 352.289062 113.261719 344.703125 114.113281 343.851562 C 114.1875 343.699219 114.34375 343.3125 114.574219 343.3125 C 114.957031 343.160156 114.574219 343.929688 114.496094 344.160156 C 114.265625 345.3125 114.113281 346.464844 114.1875 347.617188 C 113.882812 347.308594 113.496094 347 113.191406 346.695312 C 113.191406 348.078125 113.265625 349.460938 113.496094 350.765625 C 112.882812 350.460938 112.269531 350.230469 111.578125 350.152344 C 112.40625 352.3125 114.960938 352.765625 117.261719 352.765625 C 125.226562 353.207031 136.265625 353.691406 144.082031 353.609375 C 144.3125 353.609375 144.542969 353.609375 144.695312 353.839844 C 144.851562 353.996094 144.773438 354.378906 144.464844 354.378906 C 145.246094 354.472656 109.371094 354.304688 108.578125 354.300781 C 107.964844 354.300781 106.734375 354.53125 106.273438 354.070312 C 105.96875 353.6875 106.351562 353.457031 106.582031 353.148438 Z M 273.804688 358.21875 C 273.527344 364.082031 274.621094 368.503906 272.359375 370.746094 C 271.113281 372.007812 280.992188 370.996094 106.085938 371.277344 C 104.546875 371.277344 103.460938 368.664062 103.460938 366.492188 L 103.460938 357.765625 Z M 253.429688 347.769531 C 253.429688 348.183594 249.894531 348.160156 249.894531 347.769531 C 249.894531 347.464844 253.429688 347.457031 253.429688 347.769531 Z M 250.355469 343.390625 C 250.355469 344.113281 245.667969 344.085938 245.667969 343.390625 C 245.667969 342.695312 250.355469 342.667969 250.355469 343.390625 Z M 243.671875 346.617188 C 245.425781 346.617188 246.007812 347.15625 243.671875 347.15625 C 241.515625 347.15625 241.964844 346.617188 243.671875 346.617188 Z M 226.453125 343.464844 L 152.304688 343.394531 L 152.304688 300.820312 L 226.453125 300.820312 Z M 362.46875 296.976562 C 245.132812 296.976562 112.039062 296.976562 13.292969 296.976562 C 8.796875 296.976562 5.222656 293.25 5.378906 288.910156 L 10.757812 51.460938 C 10.835938 47.234375 14.371094 43.699219 18.597656 43.699219 L 64.777344 43.699219 C 65.621094 49.027344 68.535156 53.367188 72.519531 56.921875 L 42.585938 56.921875 C 35.335938 56.921875 29.511719 62.597656 29.324219 69.847656 L 24.785156 247.503906 C 24.597656 254.972656 30.578125 261.109375 38.046875 261.109375 L 340.503906 261.109375 C 348.007812 261.109375 353.988281 254.90625 353.757812 247.453125 L 348.519531 69.796875 C 348.308594 62.578125 342.484375 56.921875 335.265625 56.921875 L 158.707031 56.921875 C 150.488281 52.191406 140.402344 47.808594 131.019531 47.234375 C 114.148438 46.03125 93.183594 56.015625 85.605469 72.441406 C 81.609375 81.585938 82.761719 92.113281 83.757812 101.792969 C 83.855469 102.457031 84.089844 103.417969 84.460938 104.394531 C 84.28125 104.59375 84.023438 104.761719 83.882812 104.964844 C 81.257812 108.207031 80.398438 114.710938 83.492188 119.917969 C 84.882812 122.234375 87.6875 124.847656 90.777344 125.753906 C 95.367188 137.269531 102.394531 147.679688 113.679688 153.039062 L 113.679688 160.269531 C 113.328125 159.921875 112.910156 159.640625 112.59375 159.257812 C 111.628906 158.089844 109.78125 158.46875 109.296875 159.871094 L 106.429688 168.40625 C 87.886719 174.710938 70.304688 188.359375 59.253906 205.140625 C 47.964844 222.296875 42.910156 241.460938 39.773438 256.242188 C 39.691406 256.609375 39.839844 256.9375 39.957031 257.265625 L 38.046875 257.265625 C 32.785156 257.265625 28.488281 252.941406 28.628906 247.601562 L 33.167969 69.945312 C 33.296875 64.796875 37.4375 60.765625 42.585938 60.765625 C 76.273438 60.515625 75.535156 61.335938 76.648438 60.140625 C 77.433594 60.5625 80.222656 62.632812 86.21875 64.679688 C 86.601562 63.140625 87.523438 61.835938 88.523438 60.605469 C 92.519531 55.613281 97.820312 51.847656 103.507812 49.082031 C 108.09375 46.878906 124.589844 40.851562 128.867188 43.699219 C 128.945312 43.699219 129.097656 43.777344 129.171875 43.855469 C 129.171875 43.777344 129.171875 43.777344 129.25 43.699219 L 356.246094 43.699219 C 360.625 43.699219 364.085938 47.082031 364.160156 51.460938 L 370.386719 288.832031 C 370.386719 293.527344 366.851562 296.976562 362.46875 296.976562 Z M 117.261719 54.996094 C 111.269531 59.609375 105.96875 64.988281 101.433594 71.058594 C 101.511719 69.90625 101.585938 68.753906 101.664062 67.597656 C 98.207031 72.363281 95.363281 77.664062 93.363281 83.199219 C 93.132812 82.277344 92.902344 81.429688 92.671875 80.507812 C 91.136719 85.425781 89.828125 90.421875 88.832031 95.417969 L 88.371094 96.800781 C 85.601562 77.25 98.277344 59.179688 117.261719 54.996094 Z M 87.820312 106.390625 C 88.960938 105.625 90.726562 105.742188 91.40625 106.617188 C 92.070312 107.429688 92.398438 108.839844 92.722656 110.203125 C 93.285156 112.566406 95.824219 120.097656 93.824219 122.007812 C 93.71875 122.117188 93.398438 122.425781 92.292969 122.261719 C 90.175781 121.890625 87.882812 119.761719 86.792969 117.945312 C 84.199219 113.582031 85.503906 108.046875 87.820312 106.390625 Z M 97.816406 114.613281 C 98.457031 113.992188 98.859375 113.277344 98.972656 112.9375 C 99.941406 110.226562 101.296875 104.835938 103.738281 100.410156 C 111.214844 87.207031 120.855469 91.933594 128.558594 87.578125 C 132.429688 85.3125 132.347656 85.152344 136.859375 87.808594 C 140.316406 89.730469 144.390625 90.421875 148.230469 89.730469 C 152.6875 88.886719 156.070312 94.265625 157.757812 97.570312 C 161.082031 103.769531 161.058594 112.035156 161.980469 113.433594 C 161.957031 120.445312 160.085938 129.230469 157.101562 135.964844 C 152.816406 145.605469 145.011719 151.5 135.113281 152.578125 C 115.441406 154.761719 102.875 144.136719 94.957031 125.734375 C 98.921875 124.121094 98.804688 118.78125 97.816406 114.613281 Z M 213.5625 257.265625 C 208.121094 238.648438 202.769531 221.929688 193.089844 206.371094 C 182.390625 189.152344 165.527344 175.234375 146.734375 168.042969 C 145.96875 166.105469 145.03125 164.164062 143.699219 162.15625 C 143.070312 161.21875 141.773438 161.015625 140.890625 161.734375 C 140.734375 161.863281 140.546875 161.949219 140.386719 162.074219 L 140.386719 155.453125 C 149.378906 153.046875 156.472656 146.839844 160.613281 137.523438 C 162.027344 134.332031 163.132812 130.667969 164.015625 126.953125 C 167.449219 126.648438 170.835938 124.75 172.890625 121.75 C 176.546875 116.421875 176.347656 106.875 170.707031 104.316406 C 171.941406 102.085938 172.175781 99.449219 172.359375 97.183594 C 173.542969 83.339844 174.921875 69.703125 164.253906 60.765625 L 335.265625 60.765625 C 340.390625 60.765625 344.527344 64.777344 344.675781 69.910156 L 349.914062 247.570312 C 350.085938 252.863281 345.824219 257.265625 340.503906 257.265625 Z M 165.738281 113.703125 C 166.472656 113.132812 167.289062 112.113281 167.289062 110.09375 C 167.289062 110.015625 167.289062 109.632812 167.210938 109.554688 C 167.210938 108.316406 167.039062 108.269531 167.816406 107.582031 C 167.992188 107.4375 169.050781 107.578125 169.859375 108.257812 C 171.59375 109.714844 172.523438 115.5 169.722656 119.574219 C 168.542969 121.296875 166.757812 122.511719 164.859375 122.996094 C 165.429688 119.753906 165.710938 116.628906 165.738281 113.703125 Z M 169.132812 76.972656 C 168.527344 76.972656 168.527344 73.746094 169.132812 73.746094 C 169.738281 73.746094 169.738281 76.972656 169.132812 76.972656 Z M 165.058594 71.363281 C 165.058594 69.542969 165.90625 69.703125 165.90625 71.363281 C 165.90625 73.015625 165.058594 73.199219 165.058594 71.363281 Z M 136.546875 156.222656 L 136.546875 164.65625 C 130.539062 167.960938 130.03125 165.597656 130.878906 171.484375 C 129.890625 171.554688 128.902344 171.671875 127.910156 171.703125 C 127.515625 169.761719 128.03125 167.804688 126.355469 167.191406 C 123.429688 166.101562 120.320312 164.871094 117.523438 163.210938 L 117.523438 154.589844 C 123.960938 156.777344 130.074219 157.125 136.546875 156.222656 Z M 104.539062 173.222656 C 105.941406 173.566406 107.371094 173.730469 108.785156 174 C 116.453125 176.308594 130.34375 175.769531 137.425781 174.753906 C 140.492188 174.65625 143.570312 174.183594 146.511719 173.214844 C 146.703125 173.152344 146.785156 172.96875 146.941406 172.859375 C 147.175781 172.796875 147.417969 172.777344 147.652344 172.714844 C 147.695312 172.703125 147.710938 172.652344 147.753906 172.640625 C 164.800781 179.777344 180.023438 192.613281 189.832031 208.398438 C 199.0625 223.246094 204.296875 239.371094 209.546875 257.265625 L 187.898438 257.265625 C 184.847656 240.519531 180.515625 223.816406 174.945312 207.597656 C 174.609375 206.582031 173.472656 206.058594 172.507812 206.402344 C 171.5 206.75 170.96875 207.839844 171.3125 208.839844 C 176.742188 224.664062 180.976562 240.941406 183.984375 257.265625 L 77.792969 257.265625 C 77.765625 239.8125 81.359375 222.628906 88.601562 206.195312 C 89.03125 205.226562 88.59375 204.089844 87.617188 203.664062 C 86.671875 203.234375 85.515625 203.667969 85.089844 204.644531 C 77.621094 221.570312 73.925781 239.269531 73.953125 257.265625 L 43.382812 257.265625 C 45.96875 250.160156 51.859375 193.71875 104.539062 173.222656 Z M 104.539062 173.222656 " fill-opacity="1" fill-rule="nonzero"/><path fill="#722f37" d="M 315.667969 77.273438 C 315.636719 76.34375 316.582031 75.542969 316.257812 74.613281 C 316.101562 74.167969 315.523438 73.777344 314.96875 73.894531 C 314.613281 73.964844 312.910156 75.125 312.601562 75.324219 C 311.480469 76.046875 310.335938 76.796875 309.664062 77.816406 C 308.414062 79.714844 309.335938 83.125 312.308594 83.757812 C 314.964844 84.324219 318.613281 82.453125 317.433594 80.078125 C 316.945312 79.097656 315.703125 78.320312 315.667969 77.273438 Z M 315.667969 77.273438 " fill-opacity="1" fill-rule="nonzero"/><path fill="#722f37" d="M 329.429688 73.878906 C 329.417969 73.433594 329.867188 73.070312 329.71875 72.632812 C 329.648438 72.421875 329.382812 72.242188 329.121094 72.292969 C 328.855469 72.347656 327.03125 73.5 326.605469 74.132812 C 326.003906 75.027344 326.410156 76.636719 327.804688 76.933594 C 329.050781 77.199219 330.78125 76.3125 330.238281 75.195312 C 330.015625 74.734375 329.4375 74.371094 329.429688 73.878906 Z M 329.429688 73.878906 " fill-opacity="1" fill-rule="nonzero"/><path fill="#722f37" d="M 326.449219 85.957031 C 326.425781 85.328125 327.0625 84.828125 326.84375 84.207031 C 326.738281 83.910156 326.351562 83.652344 325.976562 83.726562 C 325.738281 83.773438 324.59375 84.535156 324.386719 84.664062 C 323.636719 85.140625 322.863281 85.632812 322.410156 86.304688 C 321.566406 87.558594 322.183594 89.820312 324.1875 90.246094 C 325.976562 90.625 328.429688 89.390625 327.636719 87.816406 C 327.304688 87.167969 326.472656 86.648438 326.449219 85.957031 Z M 326.449219 85.957031 " fill-opacity="1" fill-rule="nonzero"/><path fill="#722f37" d="M 273.101562 168.878906 C 254.890625 168.878906 240.210938 183.632812 240.210938 201.769531 C 240.210938 219.902344 254.890625 234.65625 273.101562 234.65625 C 291.238281 234.65625 305.914062 219.902344 305.914062 201.769531 C 305.914062 183.632812 291.238281 168.878906 273.101562 168.878906 Z M 289.390625 211.449219 L 283.246094 208.683594 L 283.320312 211.605469 C 283.320312 212.371094 282.707031 212.988281 281.9375 212.988281 L 256.734375 212.988281 C 255.964844 212.988281 255.273438 212.371094 255.273438 211.605469 L 255.195312 193.621094 C 255.195312 192.855469 255.8125 192.164062 256.582031 192.164062 L 281.554688 191.703125 C 282.324219 191.703125 283.015625 192.316406 283.015625 193.085938 L 283.089844 196.542969 L 289.085938 193.316406 C 289.855469 192.929688 290.699219 193.46875 290.699219 194.238281 L 290.929688 210.453125 C 290.929688 211.21875 290.160156 211.757812 289.390625 211.449219 Z M 289.390625 211.449219 " fill-opacity="1" fill-rule="nonzero"/><path fill="#722f37" d="M 272.789062 155.429688 C 290.941406 155.429688 305.660156 140.714844 305.660156 122.5625 C 305.660156 104.410156 290.941406 89.691406 272.789062 89.691406 C 254.636719 89.691406 239.917969 104.410156 239.917969 122.5625 C 239.917969 140.714844 254.636719 155.429688 272.789062 155.429688 Z M 283.90625 124.15625 C 283.945312 130.003906 279.214844 134.765625 273.367188 134.765625 C 267.578125 134.765625 262.871094 130.105469 262.828125 124.316406 C 262.824219 123.390625 262.816406 122.355469 262.808594 121.375 C 269.960938 123.105469 276.746094 123.285156 283.886719 121.269531 Z M 283.820312 111.726562 L 283.859375 117.605469 C 283.59375 117.566406 283.34375 117.441406 283.074219 117.519531 C 273.132812 120.417969 265.042969 117.84375 262.78125 117.535156 C 262.765625 115.582031 262.75 113.707031 262.738281 111.828125 C 269.816406 113.550781 276.667969 113.757812 283.820312 111.726562 Z M 273.117188 98.988281 L 273.125 98.988281 C 278.488281 98.917969 282.917969 102.878906 283.652344 108.046875 C 283.4375 108.035156 283.246094 107.917969 283.027344 107.976562 C 276.777344 109.808594 270.039062 109.792969 262.960938 107.960938 C 262.929688 107.953125 262.902344 107.980469 262.871094 107.976562 C 263.617188 102.949219 267.878906 99.058594 273.117188 98.988281 Z M 257.828125 126.046875 C 258.855469 125.917969 259.855469 126.605469 260.019531 127.652344 C 262.019531 140.574219 282.734375 142.726562 285.566406 127.335938 C 285.761719 126.300781 286.765625 125.628906 287.800781 125.792969 C 288.84375 125.988281 289.535156 126.984375 289.347656 128.03125 C 287.660156 137.226562 281.117188 141.085938 275.195312 141.8125 L 275.195312 147.328125 C 275.195312 148.390625 274.332031 149.25 273.273438 149.25 C 272.214844 149.25 271.351562 148.390625 271.351562 147.328125 L 271.351562 141.824219 C 264.550781 141.136719 257.503906 136.507812 256.222656 128.238281 C 256.058594 127.191406 256.777344 126.207031 257.828125 126.046875 Z M 257.828125 126.046875 " fill-opacity="1" fill-rule="nonzero"/><path fill="#722f37" d="M 87.96875 252.300781 L 130.519531 253.863281 C 118.644531 251.910156 107.050781 248.246094 96.210938 243.027344 C 99.886719 243.738281 103.617188 244.457031 107.347656 244.132812 C 100.742188 241.40625 95.195312 236.195312 92.058594 229.773438 C 94.03125 230.632812 96 231.488281 97.972656 232.347656 C 93.996094 227.476562 91.597656 221.703125 91.082031 215.433594 C 88.640625 222.019531 86.824219 228.832031 85.652344 235.757812 C 84.765625 241 81.941406 249.285156 87.96875 252.300781 Z M 87.96875 252.300781 " fill-opacity="1" fill-rule="nonzero"/><path fill="#722f37" d="M 71.121094 287.910156 C 57.664062 288 44.195312 286.664062 31.019531 283.9375 C 33.414062 283.792969 35.789062 283.253906 38.015625 282.359375 C 30.871094 281.113281 23.582031 279.820312 17.199219 276.382812 C 19.378906 276.6875 21.605469 276.683594 23.785156 276.371094 C 18.847656 273.53125 14.476562 269.410156 11.460938 264.582031 C 11.460938 290.15625 11.378906 287.027344 11.460938 287.828125 C 11.726562 290.523438 14.964844 291.488281 17.171875 291.488281 C 20.371094 291.484375 3.421875 291.488281 69.636719 291.488281 C 70.9375 291.488281 73.574219 292.175781 73.574219 290.1875 C 73.574219 288.996094 72.199219 287.902344 71.121094 287.910156 Z M 71.121094 287.910156 " fill-opacity="1" fill-rule="nonzero"/><path fill="#722f37" d="M 190.972656 264.582031 C 182.984375 264.582031 176.507812 271.058594 176.507812 279.046875 C 176.507812 287.035156 182.984375 293.507812 190.972656 293.507812 C 198.960938 293.507812 205.433594 287.035156 205.433594 279.046875 C 205.433594 271.058594 198.960938 264.582031 190.972656 264.582031 Z M 186.675781 267.589844 C 180.445312 274.496094 182.070312 285.878906 190.203125 290.421875 C 179.625 290.234375 175.707031 273.78125 186.675781 267.589844 Z M 186.675781 267.589844 " fill-opacity="1" fill-rule="nonzero"/><path fill="#722f37" d="M 151.578125 102.480469 C 152.347656 102.480469 152.347656 99.9375 151.578125 99.9375 C 150.808594 99.9375 150.804688 102.480469 151.578125 102.480469 Z M 151.578125 102.480469 " fill-opacity="1" fill-rule="nonzero"/><path fill="#722f37" d="M 155.65625 109.371094 C 156.917969 109.371094 156.917969 105.609375 155.65625 105.609375 C 154.398438 105.609375 154.394531 109.371094 155.65625 109.371094 Z M 155.65625 109.371094 " fill-opacity="1" fill-rule="nonzero"/><path fill="#722f37" d="M 264.894531 208.203125 L 273.644531 202.792969 L 264.953125 196.550781 Z M 264.894531 208.203125 " fill-opacity="1" fill-rule="nonzero"/><path fill="#722f37" d="M 202.1875 155.234375 C 203.039062 154.417969 203.71875 153.480469 204.230469 152.417969 C 204.742188 151.359375 205.050781 150.242188 205.160156 149.070312 L 199.242188 149.070312 C 199.363281 150.234375 199.675781 151.347656 200.179688 152.40625 C 200.683594 153.464844 201.355469 154.40625 202.1875 155.234375 Z M 202.1875 155.234375 " fill-opacity="1" fill-rule="nonzero"/><path fill="#722f37" d="M 214.785156 160.917969 L 214.785156 141.128906 C 214.785156 140.773438 214.71875 140.429688 214.585938 140.097656 C 214.449219 139.769531 214.257812 139.476562 214.007812 139.222656 C 213.757812 138.96875 213.46875 138.769531 213.140625 138.632812 C 212.8125 138.492188 212.46875 138.421875 212.113281 138.417969 L 192.324219 138.417969 C 191.964844 138.414062 191.617188 138.484375 191.285156 138.621094 C 190.953125 138.757812 190.660156 138.957031 190.40625 139.210938 C 190.152344 139.464844 189.957031 139.757812 189.820312 140.089844 C 189.683594 140.421875 189.613281 140.769531 189.613281 141.128906 L 189.613281 160.917969 C 189.617188 161.277344 189.6875 161.617188 189.828125 161.945312 C 189.96875 162.277344 190.164062 162.566406 190.417969 162.816406 C 190.671875 163.066406 190.964844 163.257812 191.292969 163.390625 C 191.625 163.527344 191.96875 163.59375 192.324219 163.589844 L 212.109375 163.589844 C 212.460938 163.589844 212.804688 163.519531 213.128906 163.382812 C 213.457031 163.246094 213.746094 163.054688 213.996094 162.804688 C 214.246094 162.554688 214.4375 162.265625 214.574219 161.941406 C 214.710938 161.613281 214.78125 161.273438 214.785156 160.917969 Z M 209.285156 158.117188 C 209.429688 158.117188 209.5625 158.148438 209.695312 158.203125 C 209.824219 158.257812 209.9375 158.335938 210.039062 158.4375 C 210.136719 158.535156 210.214844 158.652344 210.269531 158.78125 C 210.324219 158.910156 210.351562 159.046875 210.355469 159.1875 C 210.355469 159.332031 210.328125 159.46875 210.277344 159.597656 C 210.222656 159.730469 210.144531 159.847656 210.042969 159.945312 C 209.945312 160.046875 209.828125 160.125 209.695312 160.179688 C 209.566406 160.234375 209.429688 160.257812 209.285156 160.257812 C 206.679688 160.265625 204.3125 159.515625 202.1875 158.003906 C 200.082031 159.515625 197.734375 160.269531 195.140625 160.257812 C 194.996094 160.257812 194.859375 160.234375 194.730469 160.179688 C 194.597656 160.125 194.480469 160.046875 194.382812 159.945312 C 194.28125 159.847656 194.203125 159.730469 194.148438 159.597656 C 194.09375 159.46875 194.070312 159.332031 194.070312 159.1875 C 194.074219 158.894531 194.179688 158.644531 194.386719 158.4375 C 194.597656 158.226562 194.847656 158.121094 195.140625 158.117188 C 197.074219 158.113281 198.855469 157.597656 200.496094 156.570312 C 199.503906 155.554688 198.714844 154.40625 198.125 153.117188 C 197.53125 151.828125 197.171875 150.480469 197.042969 149.070312 L 195.148438 149.070312 C 194.863281 149.054688 194.621094 148.945312 194.421875 148.738281 C 194.222656 148.53125 194.125 148.285156 194.125 147.996094 C 194.125 147.710938 194.222656 147.464844 194.421875 147.257812 C 194.621094 147.050781 194.863281 146.9375 195.148438 146.925781 L 201.121094 146.925781 L 201.121094 142.816406 C 201.128906 142.523438 201.234375 142.273438 201.441406 142.066406 C 201.644531 141.859375 201.894531 141.75 202.1875 141.742188 C 202.332031 141.742188 202.46875 141.769531 202.597656 141.820312 C 202.730469 141.875 202.847656 141.953125 202.949219 142.054688 C 203.050781 142.15625 203.128906 142.273438 203.179688 142.402344 C 203.234375 142.535156 203.261719 142.671875 203.261719 142.816406 L 203.261719 146.925781 L 209.269531 146.925781 C 209.558594 146.9375 209.800781 147.050781 210 147.257812 C 210.195312 147.464844 210.296875 147.710938 210.296875 147.996094 C 210.296875 148.285156 210.195312 148.53125 210 148.738281 C 209.800781 148.945312 209.558594 149.054688 209.269531 149.070312 L 207.347656 149.070312 C 207.234375 150.480469 206.886719 151.832031 206.300781 153.121094 C 205.710938 154.410156 204.921875 155.558594 203.933594 156.570312 C 205.566406 157.609375 207.351562 158.125 209.285156 158.117188 Z M 209.285156 158.117188 " fill-opacity="1" fill-rule="nonzero"/><path fill="#722f37" d="M 233.878906 160.1875 L 216.929688 160.1875 L 216.929688 160.917969 C 216.925781 161.234375 216.894531 161.546875 216.832031 161.859375 C 216.769531 162.167969 216.675781 162.46875 216.554688 162.757812 C 216.433594 163.050781 216.285156 163.328125 216.109375 163.589844 C 215.933594 163.851562 215.734375 164.09375 215.507812 164.316406 C 215.285156 164.539062 215.042969 164.742188 214.78125 164.914062 C 214.519531 165.089844 214.242188 165.238281 213.949219 165.359375 C 213.65625 165.480469 213.355469 165.574219 213.046875 165.636719 C 212.738281 165.699219 212.425781 165.730469 212.109375 165.730469 L 211.414062 165.730469 L 211.414062 182.6875 C 211.414062 183.042969 211.480469 183.382812 211.617188 183.710938 C 211.753906 184.039062 211.949219 184.328125 212.199219 184.578125 C 212.449219 184.832031 212.742188 185.023438 213.070312 185.15625 C 213.398438 185.292969 213.742188 185.359375 214.097656 185.355469 L 233.878906 185.355469 C 234.234375 185.355469 234.574219 185.289062 234.902344 185.152344 C 235.230469 185.019531 235.519531 184.824219 235.769531 184.574219 C 236.019531 184.324219 236.210938 184.035156 236.347656 183.707031 C 236.484375 183.382812 236.550781 183.039062 236.550781 182.6875 L 236.550781 162.894531 C 236.554688 162.539062 236.492188 162.195312 236.359375 161.863281 C 236.226562 161.53125 236.03125 161.238281 235.78125 160.984375 C 235.53125 160.726562 235.242188 160.53125 234.910156 160.394531 C 234.582031 160.257812 234.238281 160.1875 233.878906 160.1875 Z M 229.792969 181.105469 C 229.660156 181.15625 229.523438 181.179688 229.382812 181.171875 C 229.238281 181.167969 229.101562 181.136719 228.972656 181.078125 C 228.84375 181.023438 228.730469 180.941406 228.628906 180.839844 C 228.53125 180.738281 228.457031 180.621094 228.402344 180.488281 L 227.117188 176.925781 L 220.882812 176.925781 L 219.578125 180.488281 C 219.496094 180.695312 219.363281 180.859375 219.183594 180.984375 C 219 181.109375 218.796875 181.175781 218.574219 181.175781 C 218.441406 181.175781 218.3125 181.152344 218.1875 181.105469 C 218.058594 181.058594 217.941406 180.988281 217.839844 180.890625 C 217.738281 180.796875 217.65625 180.683594 217.601562 180.558594 C 217.542969 180.429688 217.511719 180.296875 217.507812 180.160156 C 217.503906 180.019531 217.523438 179.882812 217.574219 179.753906 L 222.988281 165.082031 C 223.058594 164.867188 223.1875 164.695312 223.371094 164.5625 C 223.550781 164.429688 223.757812 164.359375 223.980469 164.351562 C 224.214844 164.355469 224.425781 164.421875 224.613281 164.554688 C 224.804688 164.6875 224.9375 164.863281 225.019531 165.082031 L 230.417969 179.753906 C 230.46875 179.886719 230.492188 180.019531 230.488281 180.160156 C 230.484375 180.300781 230.453125 180.4375 230.394531 180.566406 C 230.332031 180.691406 230.253906 180.804688 230.148438 180.898438 C 230.046875 180.996094 229.925781 181.066406 229.792969 181.113281 Z M 229.792969 181.105469 " fill-opacity="1" fill-rule="nonzero"/><path fill="#722f37" d="M 221.671875 174.796875 L 226.300781 174.796875 L 223.96875 168.515625 Z M 221.671875 174.796875 " fill-opacity="1" fill-rule="nonzero"/><g clip-path="url(#87d4009e1d)"><path fill="#722f37" d="M 238.695312 153.007812 C 238.695312 152.460938 238.667969 151.914062 238.613281 151.367188 C 238.5625 150.824219 238.480469 150.28125 238.375 149.742188 C 238.265625 149.207031 238.132812 148.675781 237.976562 148.152344 C 237.816406 147.625 237.632812 147.113281 237.421875 146.605469 C 237.210938 146.097656 236.976562 145.605469 236.71875 145.121094 C 236.460938 144.636719 236.179688 144.167969 235.875 143.710938 C 235.570312 143.257812 235.246094 142.816406 234.898438 142.394531 C 234.550781 141.96875 234.179688 141.5625 233.792969 141.175781 C 233.40625 140.789062 233 140.421875 232.578125 140.074219 C 232.152344 139.726562 231.714844 139.398438 231.257812 139.09375 C 230.804688 138.789062 230.332031 138.507812 229.851562 138.25 C 229.367188 137.992188 228.871094 137.757812 228.367188 137.546875 C 227.859375 137.339844 227.34375 137.152344 226.820312 136.996094 C 226.296875 136.835938 225.765625 136.703125 225.226562 136.59375 C 224.691406 136.488281 224.148438 136.40625 223.601562 136.355469 C 223.058594 136.300781 222.511719 136.273438 221.964844 136.273438 C 221.667969 136.277344 221.417969 136.386719 221.210938 136.59375 C 221.003906 136.804688 220.898438 137.054688 220.894531 137.347656 C 220.894531 137.488281 220.921875 137.625 220.976562 137.757812 C 221.027344 137.886719 221.105469 138.003906 221.207031 138.105469 C 221.308594 138.203125 221.421875 138.28125 221.554688 138.335938 C 221.683594 138.390625 221.820312 138.417969 221.964844 138.417969 C 222.890625 138.414062 223.8125 138.503906 224.726562 138.679688 C 225.636719 138.855469 226.523438 139.117188 227.386719 139.460938 C 228.25 139.808594 229.070312 140.234375 229.851562 140.734375 C 230.632812 141.238281 231.359375 141.8125 232.03125 142.453125 C 232.703125 143.097656 233.308594 143.796875 233.84375 144.554688 C 234.382812 145.3125 234.84375 146.113281 235.226562 146.960938 C 235.609375 147.808594 235.910156 148.683594 236.128906 149.585938 C 236.34375 150.488281 236.472656 151.40625 236.511719 152.332031 L 232.851562 152.332031 C 232.710938 152.332031 232.570312 152.359375 232.4375 152.414062 C 232.308594 152.464844 232.191406 152.542969 232.089844 152.644531 C 231.988281 152.746094 231.910156 152.863281 231.855469 152.996094 C 231.800781 153.128906 231.777344 153.265625 231.777344 153.410156 C 231.78125 153.550781 231.808594 153.6875 231.863281 153.816406 C 231.921875 153.945312 231.996094 154.0625 232.097656 154.160156 C 232.199219 154.261719 232.3125 154.335938 232.445312 154.390625 C 232.574219 154.445312 232.710938 154.476562 232.851562 154.476562 L 237.621094 154.476562 C 237.761719 154.476562 237.902344 154.453125 238.03125 154.398438 C 238.164062 154.34375 238.28125 154.265625 238.382812 154.167969 C 238.480469 154.066406 238.558594 153.949219 238.613281 153.820312 C 238.667969 153.6875 238.695312 153.550781 238.695312 153.410156 C 238.6875 153.339844 238.675781 153.273438 238.652344 153.207031 C 238.675781 153.144531 238.6875 153.078125 238.695312 153.007812 Z M 238.695312 153.007812 " fill-opacity="1" fill-rule="nonzero"/></g><g clip-path="url(#314a4ec56d)"><path fill="#722f37" d="M 204.207031 185.359375 C 203.28125 185.355469 202.363281 185.265625 201.453125 185.089844 C 200.542969 184.914062 199.65625 184.652344 198.796875 184.304688 C 197.9375 183.960938 197.117188 183.535156 196.335938 183.035156 C 195.558594 182.535156 194.832031 181.960938 194.160156 181.324219 C 193.492188 180.683594 192.886719 179.984375 192.347656 179.230469 C 191.808594 178.476562 191.347656 177.675781 190.960938 176.835938 C 190.574219 175.992188 190.273438 175.121094 190.050781 174.21875 C 189.832031 173.320312 189.699219 172.40625 189.652344 171.480469 L 193.351562 171.480469 C 193.644531 171.476562 193.898438 171.367188 194.105469 171.160156 C 194.3125 170.953125 194.417969 170.703125 194.425781 170.410156 C 194.425781 170.269531 194.398438 170.132812 194.34375 170 C 194.289062 169.867188 194.214844 169.753906 194.113281 169.652344 C 194.011719 169.550781 193.894531 169.472656 193.765625 169.417969 C 193.632812 169.363281 193.496094 169.335938 193.351562 169.339844 L 188.542969 169.339844 C 188.402344 169.339844 188.265625 169.367188 188.136719 169.421875 C 188.007812 169.480469 187.894531 169.558594 187.796875 169.65625 C 187.699219 169.757812 187.625 169.875 187.574219 170.003906 C 187.523438 170.136719 187.496094 170.269531 187.5 170.410156 C 187.503906 170.464844 187.515625 170.515625 187.527344 170.566406 C 187.515625 170.632812 187.503906 170.699219 187.5 170.765625 C 187.5 171.316406 187.527344 171.859375 187.582031 172.40625 C 187.636719 172.953125 187.714844 173.492188 187.824219 174.03125 C 187.929688 174.566406 188.0625 175.097656 188.222656 175.621094 C 188.382812 176.144531 188.566406 176.660156 188.773438 177.167969 C 188.984375 177.671875 189.21875 178.167969 189.476562 178.648438 C 189.734375 179.132812 190.015625 179.601562 190.320312 180.058594 C 190.625 180.511719 190.949219 180.953125 191.296875 181.375 C 191.644531 181.800781 192.011719 182.203125 192.398438 182.59375 C 192.785156 182.980469 193.191406 183.347656 193.613281 183.695312 C 194.039062 184.042969 194.476562 184.367188 194.933594 184.671875 C 195.386719 184.976562 195.855469 185.257812 196.339844 185.519531 C 196.820312 185.777344 197.316406 186.011719 197.820312 186.222656 C 198.328125 186.429688 198.84375 186.617188 199.367188 186.777344 C 199.890625 186.933594 200.421875 187.070312 200.957031 187.175781 C 201.496094 187.285156 202.035156 187.363281 202.582031 187.417969 C 203.125 187.472656 203.671875 187.5 204.21875 187.503906 C 204.363281 187.503906 204.5 187.480469 204.632812 187.425781 C 204.765625 187.375 204.882812 187.296875 204.984375 187.195312 C 205.085938 187.09375 205.160156 186.976562 205.214844 186.84375 C 205.265625 186.707031 205.289062 186.570312 205.285156 186.425781 C 205.285156 186.285156 205.257812 186.148438 205.203125 186.015625 C 205.148438 185.886719 205.070312 185.769531 204.96875 185.667969 C 204.871094 185.566406 204.753906 185.492188 204.621094 185.4375 C 204.488281 185.382812 204.351562 185.359375 204.207031 185.359375 Z M 204.207031 185.359375 " fill-opacity="1" fill-rule="nonzero"/></g><g clip-path="url(#dd157e66a0)"><path fill="#722f37" d="M 288.542969 352.496094 C 286.824219 353.546875 285.390625 355.933594 285.390625 357.941406 L 285.390625 367.207031 C 285.390625 368.257812 285.773438 369.117188 286.441406 369.5 C 286.539062 369.59375 294.847656 374.371094 294.753906 374.273438 C 295.515625 374.753906 296.472656 374.5625 297.332031 374.085938 L 332.007812 354.023438 C 333.824219 352.972656 335.160156 350.585938 335.160156 348.578125 L 335.160156 319.824219 C 335.160156 318.773438 334.777344 317.914062 334.109375 317.53125 C 321.308594 310.175781 327.613281 313.808594 325.800781 312.757812 C 325.128906 312.375 324.175781 312.375 323.21875 312.945312 L 307.265625 322.117188 C 305.453125 323.167969 304.113281 325.554688 304.113281 327.5625 L 304.113281 340.457031 C 304.113281 342.082031 302.871094 344.28125 301.441406 345.042969 Z M 287.015625 368.734375 C 286.632812 368.542969 286.441406 367.96875 286.347656 367.300781 L 286.347656 358.894531 C 286.441406 358.992188 294.179688 363.386719 293.703125 363.097656 C 293.703125 363.195312 293.703125 372.652344 293.703125 372.078125 C 293.703125 372.269531 293.703125 372.460938 293.703125 372.652344 Z M 331.625 353.257812 L 296.949219 373.222656 C 295.613281 373.988281 294.753906 373.414062 294.753906 371.984375 C 294.753906 371.886719 294.753906 362.144531 294.753906 362.714844 C 294.753906 361.09375 295.996094 358.992188 297.429688 358.132812 C 312.617188 349.34375 310.039062 350.871094 310.515625 350.585938 C 312.234375 349.535156 313.476562 347.242188 313.476562 345.234375 L 313.476562 332.339844 C 313.476562 330.621094 314.621094 328.613281 316.152344 327.753906 C 316.246094 327.65625 332.199219 318.488281 332.105469 318.582031 C 333.25 317.820312 334.207031 318.296875 334.207031 319.824219 L 334.300781 348.675781 C 334.300781 350.296875 333.058594 352.398438 331.625 353.257812 Z M 323.699219 313.808594 C 324.367188 313.425781 324.84375 313.328125 325.320312 313.617188 L 332.105469 317.53125 C 331.53125 317.722656 331.914062 317.628906 315.863281 326.894531 C 315.769531 326.796875 308.03125 322.402344 308.507812 322.691406 Z M 302.011719 345.902344 C 303.734375 344.851562 305.164062 342.464844 305.164062 340.457031 L 305.164062 328.421875 C 305.261719 328.519531 313 332.910156 312.519531 332.625 L 312.519531 345.234375 C 312.519531 346.859375 311.28125 349.054688 309.847656 349.820312 C 304.402344 352.972656 299.71875 355.648438 297.140625 357.175781 L 293.320312 354.980469 L 289.785156 352.878906 Z M 302.011719 345.902344 " fill-opacity="1" fill-rule="nonzero"/></g><path fill="#722f37" d="M 317.773438 344.28125 L 320.546875 345.425781 C 321.308594 345.710938 322.167969 344.757812 322.167969 343.898438 L 322.167969 341.605469 L 330.003906 337.019531 C 331.054688 336.445312 331.722656 335.300781 331.722656 334.058594 L 331.722656 323.265625 C 331.722656 322.976562 331.53125 322.785156 331.246094 322.785156 C 330.957031 322.785156 330.765625 322.976562 330.765625 323.265625 L 330.765625 334.058594 C 330.765625 334.917969 330.289062 335.777344 329.523438 336.160156 L 322.074219 340.457031 L 322.074219 338.355469 C 322.074219 337.304688 320.925781 337.117188 320.257812 338.167969 L 317.585938 342.558594 C 317.203125 343.230469 317.105469 344.089844 317.773438 344.28125 Z M 318.347656 343.132812 C 320.257812 340.171875 321.117188 338.738281 321.214844 338.644531 L 321.214844 343.992188 C 321.214844 344.183594 321.023438 344.472656 320.925781 344.660156 L 318.253906 343.515625 C 318.253906 343.421875 318.253906 343.230469 318.347656 343.132812 Z M 318.347656 343.132812 " fill-opacity="1" fill-rule="nonzero"/><path fill="#722f37" d="M 299.433594 365.105469 L 296.949219 366.539062 L 296.757812 366.730469 L 296.757812 367.109375 L 296.949219 367.109375 L 298 366.441406 L 298 369.976562 L 298.191406 369.976562 L 298.382812 369.785156 L 298.480469 369.5 L 298.382812 366.25 L 299.433594 365.582031 L 299.625 365.488281 L 299.625 365.105469 Z M 299.433594 365.105469 " fill-opacity="1" fill-rule="nonzero"/><path fill="#722f37" d="M 302.96875 364.246094 C 302.96875 363.386719 302.300781 363.480469 301.632812 363.863281 L 300.484375 364.53125 L 300.292969 364.722656 L 300.199219 364.914062 L 300.199219 368.449219 L 300.292969 368.640625 L 300.484375 368.640625 L 300.675781 368.449219 L 300.769531 368.257812 L 300.769531 366.917969 L 301.820312 366.347656 C 302.394531 365.964844 302.585938 366.347656 302.585938 367.109375 L 302.585938 367.300781 L 302.683594 367.492188 L 302.871094 367.492188 L 303.0625 367.300781 L 303.160156 367.109375 C 303.160156 366.917969 303.160156 366.539062 303.0625 366.15625 C 302.96875 365.964844 302.777344 365.867188 302.585938 365.964844 C 302.777344 365.296875 302.96875 364.722656 302.96875 364.246094 Z M 301.632812 365.867188 L 300.675781 366.441406 L 300.675781 365.007812 L 301.535156 364.53125 C 302.011719 364.246094 302.492188 364.148438 302.492188 364.722656 C 302.585938 365.105469 302.109375 365.582031 301.632812 365.867188 Z M 301.632812 365.867188 " fill-opacity="1" fill-rule="nonzero"/><path fill="#722f37" d="M 305.546875 361.855469 L 305.453125 361.761719 L 305.164062 361.761719 L 304.972656 361.953125 L 304.878906 362.238281 L 303.636719 366.441406 L 303.636719 366.539062 L 303.734375 366.730469 L 303.921875 366.730469 L 304.019531 366.632812 L 304.113281 366.441406 L 304.402344 365.296875 L 306.121094 364.339844 L 306.40625 365.105469 L 306.503906 365.199219 L 306.597656 365.199219 L 306.789062 365.007812 L 306.886719 364.816406 L 306.886719 364.722656 Z M 304.496094 364.722656 L 305.164062 362.429688 L 305.835938 363.957031 Z M 304.496094 364.722656 " fill-opacity="1" fill-rule="nonzero"/><path fill="#722f37" d="M 310.609375 358.703125 L 310.417969 358.703125 L 310.324219 358.894531 L 310.226562 359.085938 L 310.226562 362.238281 L 308.316406 360.136719 C 308.222656 360.042969 308.125 360.042969 308.03125 360.136719 L 307.9375 360.136719 L 307.746094 360.421875 L 307.648438 360.710938 L 307.648438 364.148438 L 307.746094 364.339844 L 307.9375 364.339844 L 308.125 364.148438 L 308.222656 363.957031 L 308.222656 360.804688 L 310.226562 362.90625 L 310.324219 363.003906 L 310.609375 363.003906 L 310.800781 362.714844 L 310.898438 362.429688 L 310.898438 358.992188 Z M 310.609375 358.703125 " fill-opacity="1" fill-rule="nonzero"/><path fill="#722f37" d="M 312.808594 359.183594 C 312.332031 359.277344 311.851562 359.46875 311.851562 358.992188 C 311.851562 358.511719 312.332031 358.035156 312.710938 357.84375 C 313 357.652344 313.285156 357.558594 313.570312 357.558594 L 313.667969 357.558594 L 313.859375 357.367188 L 313.953125 357.175781 L 313.761719 356.984375 C 313.476562 356.984375 313.09375 357.175781 312.710938 357.367188 C 311.851562 357.84375 311.375 358.703125 311.375 359.277344 C 311.375 360.328125 312.332031 359.753906 313.09375 359.660156 C 313.191406 359.660156 313.285156 359.660156 313.382812 359.660156 L 313.476562 359.851562 C 313.476562 360.328125 313.191406 360.710938 312.617188 360.996094 C 312.234375 361.1875 311.949219 361.285156 311.660156 361.378906 L 311.566406 361.378906 L 311.375 361.570312 L 311.277344 361.761719 L 311.277344 361.855469 L 311.375 361.855469 C 311.757812 361.855469 312.140625 361.664062 312.617188 361.472656 C 313.285156 361.09375 313.953125 360.328125 313.953125 359.5625 C 314.050781 358.894531 313.570312 358.992188 312.808594 359.183594 Z M 312.808594 359.183594 " fill-opacity="1" fill-rule="nonzero"/><path fill="#722f37" d="M 316.914062 358.609375 L 315.292969 359.5625 L 315.195312 356.21875 L 315.195312 356.125 L 315.003906 356.125 L 314.8125 356.316406 L 314.8125 359.945312 L 314.910156 360.136719 L 315.101562 360.136719 L 316.914062 359.085938 L 317.105469 358.992188 L 317.105469 358.609375 Z M 316.914062 358.609375 " fill-opacity="1" fill-rule="nonzero"/><path fill="#722f37" d="M 323.316406 351.347656 L 320.832031 352.78125 L 320.640625 352.972656 L 320.640625 353.257812 L 320.832031 353.257812 L 321.882812 352.6875 L 321.882812 356.03125 L 321.976562 356.125 L 322.074219 356.125 L 322.265625 355.933594 L 322.359375 355.742188 L 322.359375 352.398438 L 323.316406 351.828125 L 323.507812 351.636719 L 323.601562 351.445312 L 323.507812 351.347656 Z M 323.316406 351.347656 " fill-opacity="1" fill-rule="nonzero"/><path fill="#722f37" d="M 319.304688 353.929688 L 319.207031 353.832031 L 318.921875 353.832031 L 318.824219 354.023438 L 318.730469 354.308594 L 317.488281 358.511719 L 317.488281 358.609375 L 317.585938 358.800781 L 317.773438 358.800781 L 317.871094 358.703125 L 317.964844 358.511719 L 318.253906 357.367188 L 319.972656 356.410156 L 320.355469 357.175781 L 320.449219 357.269531 L 320.546875 357.269531 L 320.738281 357.082031 L 320.832031 356.890625 L 320.832031 356.792969 Z M 318.347656 356.792969 L 319.015625 354.5 L 319.6875 356.03125 Z M 318.347656 356.792969 " fill-opacity="1" fill-rule="nonzero"/><path fill="#722f37" d="M 324.558594 350.679688 L 324.367188 350.679688 L 324.175781 350.871094 L 324.175781 354.882812 L 324.367188 354.882812 L 324.558594 354.691406 Z M 324.558594 350.679688 " fill-opacity="1" fill-rule="nonzero"/><path fill="#722f37" d="M 327.136719 349.054688 C 326.085938 349.628906 325.417969 350.871094 325.417969 352.207031 C 325.417969 353.449219 326.179688 353.832031 327.230469 353.257812 C 328.28125 352.589844 328.953125 351.347656 329.046875 350.105469 C 328.855469 348.960938 328.1875 348.484375 327.136719 349.054688 Z M 327.136719 352.78125 C 326.277344 353.257812 325.800781 352.78125 325.800781 351.921875 C 325.800781 351.0625 326.277344 350.011719 327.136719 349.535156 C 327.902344 349.054688 328.472656 349.34375 328.472656 350.394531 C 328.472656 351.445312 327.902344 352.304688 327.136719 352.78125 Z M 327.136719 352.78125 " fill-opacity="1" fill-rule="nonzero"/><path fill="#722f37" d="M 332.675781 346 L 332.484375 346 L 332.296875 346.191406 L 332.296875 349.535156 L 330.382812 347.433594 C 330.289062 347.335938 330.195312 347.335938 330.097656 347.433594 L 330.003906 347.433594 L 329.8125 347.71875 L 329.714844 348.003906 L 329.714844 351.445312 L 329.8125 351.636719 L 330.003906 351.636719 L 330.195312 351.445312 L 330.289062 351.253906 L 330.289062 348.101562 L 332.296875 350.203125 L 332.675781 350.203125 L 332.867188 349.914062 L 332.964844 349.628906 L 332.964844 346.191406 Z M 332.675781 346 " fill-opacity="1" fill-rule="nonzero"/></svg>