<svg xmlns="http://www.w3.org/2000/svg" xmlns:xlink="http://www.w3.org/1999/xlink" width="500" zoomAndPan="magnify" viewBox="0 0 375 374.999991" height="500" preserveAspectRatio="xMidYMid meet" version="1.0"><defs><clipPath id="c1dae5d7a9"><path d="M 11.96875 273.203125 L 104.96875 273.203125 L 104.96875 368.453125 L 11.96875 368.453125 Z M 11.96875 273.203125 " clip-rule="nonzero"/></clipPath><clipPath id="008536f022"><path d="M 38 221 L 336 221 L 336 335.25 L 38 335.25 Z M 38 221 " clip-rule="nonzero"/></clipPath><clipPath id="ca4005615d"><path d="M 151 37.5 L 223 37.5 L 223 110 L 151 110 Z M 151 37.5 " clip-rule="nonzero"/></clipPath><clipPath id="b3be2b4323"><path d="M 226 104 L 257 104 L 257 151.707031 L 226 151.707031 Z M 226 104 " clip-rule="nonzero"/></clipPath><clipPath id="1a02d20925"><path d="M 213.492188 110 L 223 110 L 223 116 L 213.492188 116 Z M 213.492188 110 " clip-rule="nonzero"/></clipPath><clipPath id="e8e7bacbed"><path d="M 260 111 L 268.992188 111 L 268.992188 115 L 260 115 Z M 260 111 " clip-rule="nonzero"/></clipPath><clipPath id="ed5b5b8c48"><path d="M 51 62 L 82.46875 62 L 82.46875 66 L 51 66 Z M 51 62 " clip-rule="nonzero"/></clipPath><clipPath id="5c8469bc02"><path d="M 12 18.320312 L 68 18.320312 L 68 28 L 12 28 Z M 12 18.320312 " clip-rule="nonzero"/></clipPath><clipPath id="bb18f5cd8d"><path d="M 32 81 L 48 81 L 48 96.320312 L 32 96.320312 Z M 32 81 " clip-rule="nonzero"/></clipPath><clipPath id="52fdb303bd"><path d="M 293.917969 16.765625 L 362.917969 16.765625 L 362.917969 76 L 293.917969 76 Z M 293.917969 16.765625 " clip-rule="nonzero"/></clipPath><clipPath id="b4e858fb5d"><path d="M 299 278.109375 L 343 278.109375 L 343 309 L 299 309 Z M 299 278.109375 " clip-rule="nonzero"/></clipPath><clipPath id="29bc22d699"><path d="M 310 361 L 336 361 L 336 368.859375 L 310 368.859375 Z M 310 361 " clip-rule="nonzero"/></clipPath><clipPath id="572ddeb1c1"><path d="M 281.160156 323 L 292 323 L 292 349 L 281.160156 349 Z M 281.160156 323 " clip-rule="nonzero"/></clipPath><clipPath id="9724710e45"><path d="M 281.160156 298 L 297 298 L 297 322 L 281.160156 322 Z M 281.160156 298 " clip-rule="nonzero"/></clipPath><clipPath id="b7f9b6cce8"><path d="M 353 320 L 362.910156 320 L 362.910156 346 L 353 346 Z M 353 320 " clip-rule="nonzero"/></clipPath></defs><path fill="#722f37" d="M 79.824219 287.5625 L 60.746094 293.921875 L 61.753906 296.9375 L 80.828125 290.578125 L 79.824219 287.5625 " fill-opacity="1" fill-rule="nonzero"/><path fill="#722f37" d="M 18.328125 336.761719 L 70.789062 336.761719 L 70.789062 333.582031 L 18.328125 333.582031 L 18.328125 336.761719 " fill-opacity="1" fill-rule="nonzero"/><path fill="#722f37" d="M 18.328125 343.121094 L 70.789062 343.121094 L 70.789062 339.941406 L 18.328125 339.941406 L 18.328125 343.121094 " fill-opacity="1" fill-rule="nonzero"/><g clip-path="url(#c1dae5d7a9)"><path fill="#722f37" d="M 79.21875 345.714844 C 76.371094 340.980469 76.492188 335.046875 79.578125 330.414062 L 79.859375 329.992188 L 99.265625 318.347656 C 98.035156 322.199219 98.578125 326.464844 100.898438 329.949219 L 101.941406 331.511719 Z M 101.816406 350.667969 L 79.195312 364.804688 C 76.34375 360.066406 76.457031 354.128906 79.550781 349.492188 L 79.867188 349.019531 C 80.03125 348.9375 80.195312 348.851562 80.351562 348.753906 L 98.265625 337.558594 C 97.578125 342.191406 98.824219 346.929688 101.816406 350.667969 Z M 75.90625 346.300781 L 16.738281 346.300781 C 15.859375 346.300781 15.148438 345.585938 15.148438 344.710938 L 15.148438 330.546875 C 15.148438 330.5 15.152344 330.449219 15.15625 330.402344 L 75.90625 330.402344 C 73.347656 335.398438 73.347656 341.304688 75.90625 346.300781 Z M 75.878906 365.378906 L 24.6875 365.378906 C 23.808594 365.378906 23.097656 364.664062 23.097656 363.789062 L 23.097656 349.480469 L 75.878906 349.480469 C 73.320312 354.476562 73.320312 360.378906 75.878906 365.378906 Z M 35.554688 316.5625 C 35.695312 316.621094 35.835938 316.675781 35.980469 316.71875 L 58.238281 323.675781 C 58.703125 323.820312 59.183594 323.894531 59.660156 323.894531 C 60.136719 323.894531 60.617188 323.820312 61.082031 323.675781 L 83.339844 316.71875 C 84.535156 316.347656 85.496094 315.539062 86.074219 314.503906 L 99.492188 314.503906 L 78.296875 327.222656 L 18.96875 327.222656 Z M 35.8125 297.640625 L 58.070312 304.546875 L 58.070312 320.292969 L 36.929688 313.683594 C 36.261719 313.476562 35.8125 312.867188 35.8125 312.167969 Z M 61.25 304.546875 L 83.507812 297.640625 L 83.507812 312.167969 C 83.507812 312.867188 83.058594 313.476562 82.390625 313.683594 L 61.25 320.292969 Z M 102.152344 335.128906 L 103.628906 334.207031 C 104.363281 333.75 104.867188 333.027344 105.050781 332.183594 C 105.230469 331.335938 105.070312 330.46875 104.585938 329.75 L 103.546875 328.1875 C 101.222656 324.703125 101.222656 320.203125 103.546875 316.722656 L 103.847656 316.269531 C 104.5 315.292969 104.558594 314.042969 104.003906 313.003906 C 103.453125 311.96875 102.378906 311.324219 101.203125 311.324219 L 86.6875 311.324219 L 86.6875 296.65625 L 101.339844 292.105469 C 102.679688 291.691406 103.578125 290.472656 103.578125 289.070312 C 103.578125 287.667969 102.679688 286.449219 101.339844 286.03125 L 61.109375 273.546875 C 60.148438 273.25 59.140625 273.261719 58.1875 273.578125 L 49.621094 276.433594 L 50.625 279.449219 L 59.191406 276.59375 C 59.507812 276.488281 59.847656 276.484375 60.167969 276.582031 L 100.398438 289.070312 L 60.132812 301.566406 C 59.824219 301.660156 59.496094 301.660156 59.1875 301.566406 L 19.003906 289.09375 L 29.914062 285.824219 L 28.996094 282.777344 L 18.089844 286.050781 C 16.742188 286.453125 15.832031 287.671875 15.824219 289.082031 C 15.816406 290.488281 16.71875 291.714844 18.0625 292.132812 L 18.328125 292.214844 L 18.328125 304.527344 L 13.785156 312.097656 L 16.511719 313.734375 L 18.328125 310.707031 L 18.328125 316.09375 L 21.507812 316.09375 L 21.507812 310.707031 L 23.324219 313.734375 L 26.050781 312.097656 L 21.507812 304.527344 L 21.507812 293.199219 L 32.632812 296.65625 L 32.632812 312.167969 C 32.632812 312.941406 32.820312 313.675781 33.148438 314.328125 L 14.160156 326.539062 C 12.785156 327.417969 11.96875 328.917969 11.96875 330.546875 L 11.96875 344.710938 C 11.96875 347.339844 14.105469 349.480469 16.738281 349.480469 L 19.917969 349.480469 L 19.917969 363.789062 C 19.917969 366.417969 22.054688 368.554688 24.6875 368.554688 L 77.824219 368.554688 C 78.71875 368.554688 79.59375 368.304688 80.351562 367.832031 L 103.5 353.363281 C 104.269531 352.882812 104.796875 352.09375 104.949219 351.203125 C 105.101562 350.308594 104.863281 349.390625 104.296875 348.683594 C 101.351562 345 100.484375 340.132812 101.976562 335.660156 L 102.152344 335.128906 " fill-opacity="1" fill-rule="nonzero"/></g><path fill="#722f37" d="M 26.277344 355.839844 L 70.789062 355.839844 L 70.789062 352.660156 L 26.277344 352.660156 L 26.277344 355.839844 " fill-opacity="1" fill-rule="nonzero"/><path fill="#722f37" d="M 26.277344 362.199219 L 70.789062 362.199219 L 70.789062 359.019531 L 26.277344 359.019531 L 26.277344 362.199219 " fill-opacity="1" fill-rule="nonzero"/><path fill="#722f37" d="M 40.582031 280.304688 C 41.226562 281.25 42.046875 282.066406 42.988281 282.710938 C 42.046875 283.355469 41.226562 284.171875 40.582031 285.117188 C 39.9375 284.171875 39.121094 283.355469 38.179688 282.710938 C 39.121094 282.066406 39.9375 281.25 40.582031 280.304688 Z M 38.992188 290.261719 L 38.992188 290.660156 L 42.171875 290.660156 L 42.171875 290.261719 C 42.171875 286.976562 44.847656 284.300781 48.132812 284.300781 L 48.53125 284.300781 L 48.53125 281.121094 L 48.132812 281.121094 C 44.847656 281.121094 42.171875 278.445312 42.171875 275.160156 L 42.171875 274.761719 L 38.992188 274.761719 L 38.992188 275.160156 C 38.992188 278.445312 36.320312 281.121094 33.03125 281.121094 L 32.632812 281.121094 L 32.632812 284.300781 L 33.03125 284.300781 C 36.320312 284.300781 38.992188 286.976562 38.992188 290.261719 " fill-opacity="1" fill-rule="nonzero"/><path fill="#722f37" d="M 289.441406 179.996094 C 287.238281 178.984375 285.277344 177.617188 283.613281 175.832031 L 270.410156 161.675781 L 259.40625 186.417969 L 263.449219 191.414062 C 271.71875 201.644531 284.386719 207.410156 297.527344 206.9375 L 304.664062 206.699219 L 315.726562 181.957031 L 296.398438 181.542969 C 294.019531 181.480469 291.640625 180.945312 289.441406 179.996094 Z M 289.441406 179.996094 " fill-opacity="1" fill-rule="nonzero"/><path fill="#722f37" d="M 260.359375 173.691406 C 261.308594 171.609375 261.070312 169.945312 260.179688 168.875 L 267.199219 153.171875 L 286.109375 173.453125 C 288.785156 176.308594 292.53125 177.972656 296.457031 178.089844 L 332.855469 178.863281 C 335.292969 178.925781 336.601562 176.011719 334.9375 174.226562 L 310.136719 147.703125 C 307.460938 144.847656 303.714844 143.183594 299.789062 143.0625 L 263.390625 142.289062 C 260.953125 142.230469 259.644531 145.144531 261.308594 146.929688 L 265.472656 151.390625 L 258.097656 167.804688 C 256.613281 167.625 255.125 168.695312 254.46875 170.183594 C 253.101562 173.214844 254.945312 173.691406 252.984375 179.933594 C 252.746094 182.96875 259.585938 175.476562 260.359375 173.691406 Z M 260.359375 173.691406 " fill-opacity="1" fill-rule="nonzero"/><path fill="#722f37" d="M 186.910156 215.320312 C 209.746094 215.320312 228.242188 189.984375 228.242188 167.148438 C 228.242188 144.3125 209.746094 125.757812 186.910156 125.757812 C 164.074219 125.757812 145.578125 144.253906 145.578125 167.148438 C 145.578125 189.984375 164.074219 215.320312 186.910156 215.320312 Z M 186.910156 215.320312 " fill-opacity="1" fill-rule="nonzero"/><g clip-path="url(#008536f022)"><path fill="#722f37" d="M 316.976562 230.722656 L 285.753906 241.667969 L 235.855469 223.289062 C 235.675781 223.230469 235.5 223.171875 235.320312 223.113281 C 233 222.21875 230.5625 221.683594 227.945312 221.683594 L 145.933594 221.683594 C 143.316406 221.683594 140.820312 222.21875 138.558594 223.113281 C 138.382812 223.171875 138.203125 223.230469 138.023438 223.289062 L 88.128906 241.667969 L 56.84375 230.722656 C 49.589844 228.167969 41.621094 231.972656 39.121094 239.230469 C 36.566406 246.484375 40.429688 254.453125 47.6875 257.011719 L 83.667969 269.617188 C 85.152344 270.152344 86.699219 270.390625 88.304688 270.390625 C 89.910156 270.390625 91.578125 270.09375 93.125 269.558594 L 124.167969 258.140625 L 117.03125 319.101562 C 115.605469 327.425781 121.96875 335.097656 130.472656 335.097656 L 243.585938 335.097656 C 252.03125 335.097656 258.457031 327.425781 257.027344 319.101562 L 249.890625 258.140625 L 280.9375 269.558594 C 282.480469 270.152344 284.085938 270.390625 285.753906 270.390625 C 287.300781 270.390625 288.84375 270.152344 290.390625 269.617188 L 326.371094 257.011719 C 333.628906 254.453125 337.433594 246.542969 334.875 239.289062 C 332.199219 231.972656 324.230469 228.167969 316.976562 230.722656 Z M 316.976562 230.722656 " fill-opacity="1" fill-rule="nonzero"/></g><path fill="#722f37" d="M 74.328125 154.957031 C 74.507812 154.898438 74.6875 154.777344 74.804688 154.601562 C 74.867188 154.539062 74.867188 154.480469 74.925781 154.480469 C 74.984375 154.363281 75.042969 154.242188 75.101562 154.125 C 75.164062 154.003906 75.164062 153.828125 75.164062 153.707031 C 75.164062 153.292969 74.867188 152.996094 74.449219 152.875 C 74.269531 152.816406 74.03125 152.816406 73.792969 152.816406 L 57.679688 155.433594 C 57.617188 155.433594 57.5 155.492188 57.441406 155.492188 C 57.203125 155.550781 56.964844 155.730469 56.84375 155.910156 C 56.605469 156.148438 56.488281 156.445312 56.488281 156.800781 C 56.488281 157.039062 56.605469 157.277344 56.84375 157.453125 C 56.964844 157.515625 57.082031 157.574219 57.203125 157.632812 C 57.261719 157.632812 57.320312 157.691406 57.378906 157.691406 C 57.5 157.753906 57.679688 157.753906 57.855469 157.691406 L 73.972656 155.074219 C 74.09375 155.015625 74.210938 155.015625 74.328125 154.957031 Z M 74.328125 154.957031 " fill-opacity="1" fill-rule="nonzero"/><path fill="#722f37" d="M 78.078125 164.472656 C 78.136719 164.472656 78.195312 164.414062 78.253906 164.414062 C 78.789062 164.175781 79.148438 163.699219 79.085938 163.164062 C 79.027344 162.511719 78.433594 162.152344 77.71875 162.273438 L 61.601562 164.890625 C 60.890625 165.007812 60.355469 165.601562 60.414062 166.199219 C 60.472656 166.792969 61.066406 167.207031 61.78125 167.089844 L 77.898438 164.472656 C 77.957031 164.472656 78.015625 164.472656 78.078125 164.472656 Z M 78.078125 164.472656 " fill-opacity="1" fill-rule="nonzero"/><path fill="#722f37" d="M 64.753906 174.761719 C 64.515625 175 64.398438 175.296875 64.398438 175.652344 C 64.457031 176.308594 65.050781 176.664062 65.765625 176.546875 L 81.882812 173.929688 C 81.941406 173.929688 82 173.929688 82.0625 173.871094 C 82.121094 173.871094 82.179688 173.808594 82.238281 173.808594 C 82.417969 173.75 82.597656 173.632812 82.714844 173.453125 C 82.953125 173.214844 83.132812 172.917969 83.074219 172.5625 C 83.011719 171.964844 82.417969 171.550781 81.703125 171.667969 L 65.585938 174.285156 C 65.289062 174.34375 64.992188 174.523438 64.753906 174.761719 Z M 64.753906 174.761719 " fill-opacity="1" fill-rule="nonzero"/><path fill="#722f37" d="M 69.273438 183.800781 C 69.097656 183.859375 68.976562 183.921875 68.859375 184.039062 C 68.5 184.277344 68.324219 184.691406 68.324219 185.050781 C 68.324219 185.289062 68.441406 185.527344 68.679688 185.703125 C 68.800781 185.761719 68.917969 185.824219 69.035156 185.882812 C 69.214844 185.941406 69.453125 186 69.691406 185.941406 L 85.808594 183.324219 C 85.925781 183.324219 86.046875 183.265625 86.164062 183.207031 C 86.34375 183.148438 86.523438 183.027344 86.640625 182.847656 C 86.699219 182.789062 86.699219 182.730469 86.757812 182.730469 C 86.820312 182.613281 86.878906 182.492188 86.9375 182.375 C 86.996094 182.253906 86.996094 182.078125 86.996094 181.957031 C 86.996094 181.839844 86.9375 181.71875 86.878906 181.601562 C 86.757812 181.363281 86.523438 181.242188 86.285156 181.125 C 86.105469 181.066406 85.867188 181.066406 85.628906 181.066406 L 69.511719 183.683594 C 69.453125 183.742188 69.394531 183.800781 69.273438 183.800781 Z M 69.273438 183.800781 " fill-opacity="1" fill-rule="nonzero"/><path fill="#722f37" d="M 54.167969 197.121094 C 54.226562 197.242188 54.289062 197.359375 54.347656 197.539062 C 56.488281 202.238281 62.851562 203.960938 68.621094 201.582031 L 96.15625 190.164062 L 97.820312 189.449219 L 97.882812 189.449219 L 125.355469 177.914062 C 131.066406 175.535156 134.277344 169.765625 132.492188 164.890625 C 132.433594 164.769531 132.375 164.652344 132.375 164.472656 L 116.910156 127.480469 L 112.152344 130.097656 L 110.488281 126.054688 L 106.089844 129.027344 L 104.421875 124.984375 L 82.359375 140.804688 C 80.394531 142.230469 79.324219 144.789062 79.324219 147.582031 C 77.304688 145.621094 74.804688 144.550781 72.367188 144.964844 L 45.722656 149.367188 L 47.390625 153.410156 L 42.15625 154.480469 L 43.820312 158.527344 L 38.648438 160.070312 Z M 108.882812 129.445312 L 123.574219 164.53125 C 124.941406 167.804688 124.046875 171.609375 121.550781 173.332031 L 111.023438 179.339844 L 117.921875 174.34375 C 120.957031 172.144531 121.847656 167.269531 120.003906 162.867188 L 106.683594 130.988281 Z M 81.941406 145.796875 C 82.179688 144.253906 82.894531 143.003906 83.785156 142.347656 L 102.816406 128.550781 L 117.566406 163.878906 C 119.230469 167.804688 118.28125 171.550781 116.496094 172.859375 L 97.464844 186.65625 L 82.714844 151.328125 C 82.0625 149.722656 81.824219 148.175781 81.882812 146.808594 C 81.882812 146.453125 81.941406 146.097656 81.941406 145.796875 Z M 72.367188 147.105469 C 73.4375 146.929688 74.804688 147.285156 76.113281 148.238281 C 76.351562 148.414062 76.648438 148.652344 76.886719 148.890625 C 77.898438 149.84375 78.851562 151.089844 79.503906 152.636719 L 94.253906 187.964844 L 71.058594 191.769531 C 68.800781 192.128906 65.527344 190.164062 63.921875 186.238281 L 49.171875 150.914062 Z M 48.222656 155.375 L 61.542969 187.25 C 63.386719 191.710938 67.429688 194.445312 71.179688 193.851562 L 79.621094 192.425781 L 67.964844 195.695312 C 64.933594 196.289062 61.664062 194.207031 60.292969 190.9375 L 45.605469 155.847656 Z M 48.222656 155.375 " fill-opacity="1" fill-rule="nonzero"/><path fill="#722f37" d="M 88.066406 149.1875 C 88.1875 149.128906 88.304688 149.070312 88.425781 149.011719 L 101.628906 139.375 C 102.222656 138.960938 102.339844 138.246094 101.925781 137.769531 C 101.867188 137.710938 101.804688 137.652344 101.746094 137.589844 C 101.628906 137.472656 101.449219 137.472656 101.269531 137.414062 C 101.03125 137.351562 100.796875 137.351562 100.558594 137.472656 C 100.378906 137.53125 100.261719 137.589844 100.140625 137.710938 L 86.9375 147.34375 C 86.34375 147.761719 86.222656 148.476562 86.640625 148.949219 C 86.9375 149.367188 87.53125 149.425781 88.066406 149.1875 Z M 88.066406 149.1875 " fill-opacity="1" fill-rule="nonzero"/><path fill="#722f37" d="M 90.507812 158.40625 C 90.683594 158.585938 90.921875 158.703125 91.160156 158.761719 C 91.21875 158.761719 91.28125 158.761719 91.339844 158.761719 C 91.339844 158.761719 91.28125 158.761719 91.28125 158.761719 C 91.339844 158.761719 91.457031 158.761719 91.515625 158.761719 C 91.578125 158.761719 91.578125 158.761719 91.578125 158.761719 C 91.578125 158.761719 91.636719 158.761719 91.636719 158.761719 C 91.636719 158.761719 91.636719 158.761719 91.578125 158.761719 C 91.695312 158.761719 91.816406 158.703125 91.875 158.703125 C 91.992188 158.644531 92.113281 158.585938 92.171875 158.527344 L 105.375 148.890625 C 105.96875 148.476562 106.089844 147.761719 105.671875 147.285156 C 105.375 146.929688 104.839844 146.808594 104.304688 146.988281 C 104.125 147.046875 104.007812 147.105469 103.828125 147.226562 L 90.625 156.859375 C 90.269531 157.21875 90.089844 157.929688 90.507812 158.40625 Z M 90.507812 158.40625 " fill-opacity="1" fill-rule="nonzero"/><path fill="#722f37" d="M 94.429688 167.804688 C 94.789062 168.160156 95.324219 168.277344 95.859375 168.039062 C 95.859375 168.039062 95.917969 168.039062 95.917969 168.039062 C 95.976562 168.039062 95.976562 167.980469 95.976562 167.980469 C 96.039062 167.921875 96.15625 167.921875 96.214844 167.863281 L 109.417969 158.226562 C 110.011719 157.8125 110.132812 157.097656 109.714844 156.621094 C 109.597656 156.503906 109.476562 156.382812 109.300781 156.324219 C 109.179688 156.265625 108.941406 156.207031 108.824219 156.207031 C 108.527344 156.207031 108.167969 156.324219 107.933594 156.503906 L 94.789062 166.199219 C 94.195312 166.613281 94.074219 167.328125 94.429688 167.804688 Z M 94.429688 167.804688 " fill-opacity="1" fill-rule="nonzero"/><path fill="#722f37" d="M 98.417969 177.257812 C 98.773438 177.675781 99.367188 177.734375 99.902344 177.496094 C 100.023438 177.4375 100.140625 177.378906 100.261719 177.320312 L 113.460938 167.683594 C 113.523438 167.625 113.640625 167.566406 113.699219 167.445312 C 113.761719 167.328125 113.820312 167.269531 113.878906 167.207031 C 113.996094 167.03125 113.996094 166.851562 113.996094 166.671875 C 113.996094 166.554688 113.996094 166.433594 113.9375 166.375 C 113.878906 166.257812 113.820312 166.136719 113.761719 166.078125 C 113.699219 166.019531 113.640625 165.960938 113.582031 165.898438 C 113.460938 165.78125 113.285156 165.78125 113.105469 165.722656 C 112.867188 165.660156 112.628906 165.660156 112.390625 165.78125 C 112.332031 165.78125 112.273438 165.839844 112.152344 165.898438 C 112.09375 165.960938 112.035156 165.960938 111.917969 166.019531 L 98.714844 175.652344 C 98.117188 176.070312 98 176.785156 98.417969 177.257812 Z M 98.417969 177.257812 " fill-opacity="1" fill-rule="nonzero"/><g clip-path="url(#ca4005615d)"><path fill="#722f37" d="M 160.445312 97.625 C 160.5625 97.804688 160.742188 97.921875 160.863281 98.101562 C 167.402344 105.058594 176.265625 109.042969 185.839844 109.34375 C 186.019531 109.34375 186.195312 109.34375 186.433594 109.34375 C 186.613281 109.34375 186.730469 109.34375 186.910156 109.34375 C 187.089844 109.34375 187.207031 109.34375 187.386719 109.34375 C 197.972656 109.222656 207.546875 104.40625 214.03125 96.914062 C 214.921875 95.84375 215.8125 94.769531 216.585938 93.582031 C 220.273438 88.171875 222.535156 81.628906 222.710938 74.609375 C 222.949219 67 220.808594 59.683594 216.585938 53.558594 C 215.8125 52.425781 214.980469 51.296875 214.03125 50.226562 C 213.671875 49.8125 213.316406 49.394531 212.960938 49.039062 C 206.417969 42.078125 197.554688 38.09375 187.980469 37.796875 C 178.40625 37.5 169.308594 40.949219 162.347656 47.550781 C 161.695312 48.203125 161.039062 48.859375 160.445312 49.511719 C 159.492188 50.523438 158.601562 51.65625 157.828125 52.785156 C 153.726562 58.492188 151.40625 65.332031 151.167969 72.589844 C 150.929688 80.5 153.308594 88.171875 157.828125 94.472656 C 158.660156 95.484375 159.492188 96.554688 160.445312 97.625 Z M 196.960938 103.515625 C 199.398438 100.539062 201.363281 96.554688 202.847656 91.796875 C 205.289062 92.453125 207.546875 93.226562 209.570312 94.175781 C 209.867188 94.296875 210.164062 94.472656 210.460938 94.652344 C 206.832031 98.695312 202.195312 101.789062 196.960938 103.515625 Z M 213.078125 91.320312 C 210.460938 89.894531 207.367188 88.707031 203.859375 87.8125 C 204.753906 83.769531 205.289062 79.308594 205.347656 74.609375 L 218.550781 74.609375 C 218.3125 80.734375 216.347656 86.503906 213.078125 91.320312 Z M 213.078125 55.757812 C 216.050781 60.097656 217.894531 65.09375 218.371094 70.386719 L 205.289062 70.386719 C 205.109375 66.460938 204.632812 62.714844 203.859375 59.265625 C 207.367188 58.375 210.460938 57.183594 213.078125 55.757812 Z M 209.925781 51.832031 C 210.105469 52.011719 210.28125 52.191406 210.460938 52.425781 C 210.164062 52.605469 209.867188 52.726562 209.507812 52.902344 C 207.488281 53.855469 205.226562 54.628906 202.789062 55.28125 C 201.300781 50.523438 199.28125 46.539062 196.84375 43.566406 C 201.835938 45.113281 206.296875 47.96875 209.925781 51.832031 Z M 189.230469 42.554688 C 191.90625 43.746094 194.464844 46.539062 196.484375 50.644531 C 197.316406 52.308594 198.03125 54.152344 198.6875 56.113281 C 195.652344 56.648438 192.441406 56.886719 189.109375 56.949219 Z M 189.109375 61.109375 C 192.859375 61.050781 196.484375 60.753906 199.816406 60.160156 C 200.53125 63.371094 201.003906 66.820312 201.183594 70.386719 L 189.050781 70.386719 Z M 188.992188 74.550781 L 201.183594 74.550781 C 201.125 78.890625 200.648438 83.054688 199.757812 86.921875 C 196.367188 86.328125 192.679688 85.96875 188.871094 85.96875 Z M 188.933594 90.132812 C 192.324219 90.132812 195.652344 90.429688 198.746094 90.964844 C 198.152344 92.929688 197.378906 94.769531 196.542969 96.4375 C 194.402344 100.777344 191.667969 103.691406 188.8125 104.703125 Z M 164.074219 95.367188 C 166.214844 94.234375 168.652344 93.285156 171.269531 92.511719 C 172.695312 96.972656 174.660156 100.71875 176.980469 103.574219 C 172.101562 101.90625 167.699219 99.171875 164.074219 95.367188 Z M 184.652344 104.523438 C 181.972656 103.335938 179.417969 100.539062 177.394531 96.4375 C 176.621094 94.890625 175.96875 93.226562 175.371094 91.441406 C 178.347656 90.785156 181.5 90.371094 184.769531 90.191406 Z M 184.769531 86.027344 C 181.082031 86.207031 177.574219 86.683594 174.183594 87.398438 C 173.230469 83.414062 172.695312 79.070312 172.636719 74.492188 L 184.828125 74.492188 Z M 184.886719 70.386719 L 172.757812 70.386719 C 172.933594 66.640625 173.410156 62.953125 174.242188 59.625 C 177.632812 60.335938 181.261719 60.8125 185.007812 61.050781 Z M 185.066406 42.375 L 184.949219 56.886719 C 181.617188 56.710938 178.347656 56.292969 175.3125 55.640625 C 175.90625 53.855469 176.5625 52.191406 177.335938 50.644531 C 179.535156 46.300781 182.273438 43.386719 185.066406 42.375 Z M 165.261719 50.523438 C 168.652344 47.3125 172.695312 44.933594 176.980469 43.507812 C 174.660156 46.359375 172.695312 50.109375 171.269531 54.570312 C 168.652344 53.796875 166.214844 52.84375 164.074219 51.714844 C 164.429688 51.296875 164.847656 50.882812 165.261719 50.523438 Z M 161.335938 54.984375 C 161.457031 55.042969 161.636719 55.164062 161.8125 55.222656 C 164.3125 56.589844 167.105469 57.71875 170.199219 58.613281 C 169.367188 62.242188 168.773438 66.226562 168.59375 70.386719 L 155.507812 70.386719 C 156.042969 64.796875 158.066406 59.445312 161.335938 54.984375 Z M 168.472656 74.550781 C 168.535156 79.546875 169.128906 84.246094 170.140625 88.46875 C 167.105469 89.359375 164.25 90.488281 161.753906 91.855469 C 161.636719 91.917969 161.457031 92.035156 161.335938 92.09375 C 157.589844 86.980469 155.507812 80.914062 155.332031 74.550781 C 155.332031 74.550781 168.472656 74.550781 168.472656 74.550781 Z M 168.472656 74.550781 " fill-opacity="1" fill-rule="nonzero"/></g><path fill="#722f37" d="M 289.082031 106.664062 C 289.976562 107.914062 291.402344 108.570312 292.828125 108.570312 C 293.78125 108.570312 294.734375 108.273438 295.566406 107.675781 C 297.648438 106.128906 298.0625 103.277344 296.578125 101.195312 C 294.316406 98.101562 291.878906 95.070312 289.378906 92.15625 C 287.714844 90.25 284.742188 90.015625 282.839844 91.679688 C 280.9375 93.34375 280.699219 96.316406 282.363281 98.222656 C 284.742188 100.957031 287 103.75 289.082031 106.664062 Z M 289.082031 106.664062 " fill-opacity="1" fill-rule="nonzero"/><path fill="#722f37" d="M 77.066406 109.460938 C 77.898438 110.054688 78.789062 110.292969 79.742188 110.292969 C 81.167969 110.292969 82.65625 109.578125 83.546875 108.332031 C 85.628906 105.417969 87.832031 102.5625 90.148438 99.828125 C 91.816406 97.863281 91.578125 94.949219 89.613281 93.285156 C 87.652344 91.621094 84.738281 91.855469 83.074219 93.820312 C 80.574219 96.734375 78.195312 99.828125 75.996094 102.917969 C 74.449219 105.058594 74.984375 107.972656 77.066406 109.460938 Z M 77.066406 109.460938 " fill-opacity="1" fill-rule="nonzero"/><path fill="#722f37" d="M 303.296875 131.464844 C 304.070312 133.25 305.734375 134.261719 307.578125 134.261719 C 308.171875 134.261719 308.828125 134.140625 309.421875 133.902344 C 311.800781 132.894531 312.871094 130.15625 311.859375 127.835938 C 310.375 124.328125 308.648438 120.820312 306.867188 117.429688 C 305.675781 115.171875 302.820312 114.335938 300.5625 115.527344 C 298.300781 116.714844 297.46875 119.570312 298.660156 121.832031 C 300.324219 124.921875 301.871094 128.195312 303.296875 131.464844 Z M 303.296875 131.464844 " fill-opacity="1" fill-rule="nonzero"/><path fill="#722f37" d="M 261.308594 78.953125 C 264.164062 81.035156 267.019531 83.292969 269.695312 85.613281 C 270.585938 86.386719 271.65625 86.742188 272.726562 86.742188 C 274.035156 86.742188 275.34375 86.207031 276.238281 85.136719 C 277.902344 83.175781 277.722656 80.261719 275.761719 78.59375 C 272.847656 76.097656 269.8125 73.660156 266.722656 71.398438 C 264.640625 69.914062 261.726562 70.328125 260.238281 72.410156 C 258.8125 74.492188 259.289062 77.40625 261.308594 78.953125 Z M 261.308594 78.953125 " fill-opacity="1" fill-rule="nonzero"/><path fill="#722f37" d="M 99.488281 88.171875 C 100.558594 88.171875 101.6875 87.753906 102.578125 86.980469 C 105.253906 84.601562 108.050781 82.34375 110.90625 80.140625 C 112.925781 78.59375 113.34375 75.679688 111.855469 73.660156 C 110.3125 71.636719 107.394531 71.21875 105.375 72.765625 C 102.339844 75.085938 99.308594 77.523438 96.453125 80.082031 C 94.550781 81.804688 94.371094 84.722656 96.097656 86.625 C 96.929688 87.636719 98.179688 88.171875 99.488281 88.171875 Z M 99.488281 88.171875 " fill-opacity="1" fill-rule="nonzero"/><path fill="#722f37" d="M 63.742188 135.925781 C 64.339844 136.164062 64.933594 136.28125 65.527344 136.28125 C 67.371094 136.28125 69.097656 135.210938 69.808594 133.367188 C 71.179688 130.039062 72.664062 126.765625 74.269531 123.617188 C 75.460938 121.355469 74.566406 118.558594 72.25 117.371094 C 69.988281 116.179688 67.195312 117.132812 66.003906 119.394531 C 64.277344 122.78125 62.613281 126.351562 61.1875 129.859375 C 60.234375 132.238281 61.363281 134.972656 63.742188 135.925781 Z M 63.742188 135.925781 " fill-opacity="1" fill-rule="nonzero"/><path fill="#722f37" d="M 123.632812 71.042969 C 124.40625 71.042969 125.179688 70.863281 125.890625 70.449219 C 128.984375 68.722656 132.253906 67.117188 135.527344 65.691406 C 137.847656 64.621094 138.917969 61.882812 137.847656 59.5625 C 136.777344 57.246094 134.039062 56.175781 131.71875 57.183594 C 128.210938 58.730469 124.761719 60.457031 121.371094 62.300781 C 119.113281 63.546875 118.339844 66.34375 119.527344 68.605469 C 120.421875 70.210938 122.027344 71.042969 123.632812 71.042969 Z M 123.632812 71.042969 " fill-opacity="1" fill-rule="nonzero"/><path fill="#722f37" d="M 236.449219 64.855469 C 239.722656 66.226562 242.992188 67.832031 246.144531 69.496094 C 246.859375 69.851562 247.570312 70.03125 248.285156 70.03125 C 249.949219 70.03125 251.554688 69.140625 252.390625 67.535156 C 253.578125 65.273438 252.746094 62.476562 250.484375 61.289062 C 247.097656 59.503906 243.585938 57.839844 240.078125 56.351562 C 237.699219 55.339844 235.023438 56.472656 234.011719 58.789062 C 233 61.109375 234.070312 63.847656 236.449219 64.855469 Z M 236.449219 64.855469 " fill-opacity="1" fill-rule="nonzero"/><g clip-path="url(#b3be2b4323)"><path fill="#722f37" d="M 241.429688 104.066406 C 232.921875 104.078125 226 110.996094 226 119.503906 C 226.007812 123.878906 227.871094 128.066406 231.210938 131.042969 C 231.226562 131.0625 232.507812 131.996094 232.296875 133.582031 C 232.269531 133.875 232.222656 134.15625 232.179688 134.429688 C 231.90625 136.203125 231.527344 138.644531 234.640625 139.4375 C 234.753906 139.472656 234.871094 139.492188 235 139.515625 L 235 143.589844 C 235 143.773438 234.992188 143.960938 234.984375 144.164062 C 234.949219 144.824219 234.90625 145.566406 235.1875 146.304688 C 235.644531 147.496094 236.816406 148.429688 238.386719 148.886719 C 238.441406 149.320312 238.589844 149.867188 238.996094 150.332031 C 239.332031 150.730469 239.972656 151.1875 241.109375 151.1875 C 242.222656 151.1875 242.882812 150.738281 243.246094 150.359375 C 243.667969 149.917969 243.851562 149.398438 243.941406 148.984375 C 244.214844 148.914062 244.480469 148.84375 244.742188 148.730469 C 245.738281 148.316406 246.53125 147.53125 246.964844 146.515625 C 247.484375 145.292969 247.441406 143.914062 247.386719 142.71875 C 247.371094 142.347656 247.363281 141.976562 247.363281 141.625 L 247.386719 139.550781 C 247.660156 139.507812 247.871094 139.457031 248.015625 139.402344 C 250.386719 138.476562 251.285156 136.667969 250.78125 133.902344 C 250.375 131.652344 252.070312 130.613281 252.15625 130.558594 C 252.226562 130.515625 252.296875 130.472656 252.351562 130.410156 C 255.269531 127.5 256.875 123.613281 256.875 119.496094 C 256.863281 110.988281 249.945312 104.066406 241.429688 104.066406 Z M 244.011719 146.964844 C 243.351562 147.238281 242.503906 147.25 241.65625 147.265625 L 241.3125 147.265625 C 240.660156 147.273438 240.042969 147.285156 239.445312 147.179688 C 238.296875 146.964844 237.398438 146.4375 237.0625 145.792969 L 245.191406 145.792969 C 244.964844 146.324219 244.539062 146.746094 244.011719 146.964844 Z M 236.898438 143.890625 C 236.914062 143.785156 236.914062 143.6875 236.914062 143.589844 L 236.914062 142.902344 L 245.476562 142.902344 C 245.5 143.226562 245.511719 143.554688 245.511719 143.878906 Z M 245.582031 113.015625 C 245.996094 113.21875 246.488281 113.105469 246.761719 112.734375 C 246.839844 112.621094 247 112.558594 247.167969 112.566406 C 247.890625 112.621094 248.648438 113.519531 248.832031 114.214844 C 248.878906 114.460938 248.902344 115.113281 248.878906 115.609375 C 248.261719 115.527344 247.546875 115.5625 246.945312 115.882812 C 246.242188 115.324219 245.535156 115.078125 245.421875 115.042969 C 244.9375 114.867188 244.398438 115.140625 244.222656 115.644531 C 244.0625 116.136719 244.328125 116.675781 244.824219 116.851562 C 244.839844 116.851562 245.667969 117.152344 246.136719 117.757812 C 246.3125 117.996094 246.410156 118.234375 246.417969 118.5 C 246.453125 119.011719 246.875 119.390625 247.371094 119.390625 L 247.441406 119.390625 C 247.96875 119.347656 248.359375 118.886719 248.324219 118.367188 C 248.304688 118.058594 248.234375 117.769531 248.136719 117.484375 C 248.191406 117.476562 248.25 117.476562 248.304688 117.476562 C 248.542969 117.476562 248.808594 117.511719 249.011719 117.574219 C 249.320312 117.847656 249.988281 118.457031 250.078125 118.542969 C 250.746094 119.285156 250.984375 119.8125 250.851562 120.296875 C 250.789062 120.546875 250.660156 120.816406 250.464844 121.101562 C 250.324219 121.234375 249.6875 121.550781 249.132812 121.753906 C 248.761719 121.894531 248.523438 122.253906 248.523438 122.652344 C 248.523438 123.09375 248.773438 123.4375 248.984375 123.738281 C 249.082031 123.867188 249.257812 124.105469 249.265625 124.210938 C 249.371094 124.828125 249.257812 125.4375 248.929688 125.878906 C 248.65625 126.238281 248.285156 126.453125 247.820312 126.523438 C 247.707031 125.894531 247.386719 125.191406 246.761719 124.636719 C 246.957031 124.316406 247.132812 123.984375 247.289062 123.59375 C 247.511719 123.121094 247.289062 122.554688 246.816406 122.335938 C 246.328125 122.132812 245.765625 122.34375 245.546875 122.828125 C 245.261719 123.472656 244.988281 123.914062 244.75 124.230469 L 244.742188 124.257812 C 244.707031 124.28125 244.691406 124.316406 244.664062 124.34375 C 244.644531 124.351562 244.628906 124.363281 244.628906 124.371094 C 244.214844 124.839844 243.90625 124.917969 243.773438 124.875 C 243.324219 124.644531 242.769531 124.804688 242.519531 125.234375 C 242.25 125.695312 242.398438 126.265625 242.855469 126.539062 C 242.945312 126.601562 243.304688 126.785156 243.851562 126.785156 C 244.054688 126.785156 244.300781 126.761719 244.566406 126.671875 C 244.917969 126.566406 245.246094 126.382812 245.5625 126.117188 C 246.03125 126.574219 245.996094 127.175781 245.976562 127.324219 C 245.960938 127.378906 245.960938 127.421875 245.960938 127.484375 C 245.855469 127.695312 245.75 127.898438 245.652344 128.089844 C 245.324219 128.742188 245.140625 129.113281 244.550781 129.386719 C 243.695312 129.785156 242.757812 129.246094 242.292969 128.910156 L 242.292969 122.105469 C 242.953125 122.757812 243.703125 123.082031 244.523438 123.082031 C 244.574219 123.082031 244.644531 123.074219 244.707031 123.074219 C 245.023438 123.058594 245.308594 122.890625 245.476562 122.617188 C 245.625 122.34375 245.640625 122.015625 245.511719 121.734375 C 245.367188 121.410156 244.910156 120.035156 245.421875 119.328125 C 245.730469 118.90625 245.632812 118.304688 245.210938 117.996094 C 244.769531 117.6875 244.179688 117.792969 243.878906 118.21875 C 243.402344 118.886719 243.253906 119.65625 243.28125 120.359375 C 243.042969 120.035156 242.785156 119.609375 242.558594 119.089844 L 242.46875 118.90625 C 242.414062 118.808594 242.363281 118.730469 242.285156 118.667969 L 242.285156 110.414062 C 243.066406 109.632812 244.117188 110.011719 244.390625 110.125 C 245.191406 110.722656 245.246094 111.28125 245.078125 111.90625 C 244.953125 112.355469 245.167969 112.820312 245.582031 113.015625 Z M 245.476562 139.761719 L 245.464844 140.996094 L 236.914062 140.996094 L 236.914062 139.738281 C 238.21875 139.84375 239.832031 139.886719 241.417969 139.886719 C 242.875 139.886719 244.300781 139.84375 245.476562 139.761719 Z M 251.089844 128.980469 C 250.507812 129.359375 248.324219 131.019531 248.902344 134.234375 C 249.34375 136.625 248.367188 137.214844 247.316406 137.628906 C 246.851562 137.796875 244.714844 137.929688 242.320312 137.964844 C 242.890625 136.644531 243.4375 134.464844 242.953125 131.316406 C 243.261719 131.398438 243.578125 131.433594 243.914062 131.433594 C 244.371094 131.433594 244.867188 131.351562 245.34375 131.125 C 246.542969 130.558594 246.972656 129.703125 247.363281 128.9375 C 247.433594 128.789062 247.511719 128.621094 247.609375 128.453125 C 247.730469 128.453125 247.871094 128.433594 248.050781 128.417969 C 249.027344 128.285156 249.882812 127.792969 250.464844 127.007812 C 251.097656 126.160156 251.347656 125.015625 251.152344 123.878906 C 251.097656 123.585938 250.976562 123.3125 250.84375 123.082031 C 251.335938 122.847656 251.769531 122.554688 251.988281 122.246094 C 252.21875 121.910156 252.546875 121.390625 252.703125 120.773438 C 253.089844 119.265625 252.203125 118.050781 251.496094 117.265625 C 251.1875 116.914062 250.914062 116.65625 250.695312 116.445312 C 250.933594 115.34375 250.683594 113.800781 250.683594 113.773438 C 250.332031 112.347656 248.964844 110.792969 247.316406 110.664062 L 246.992188 110.664062 C 246.804688 109.851562 246.285156 109.136719 245.421875 108.527344 C 245.386719 108.492188 245.34375 108.46875 245.296875 108.449219 C 244.441406 108.015625 242.601562 107.621094 241.171875 108.828125 C 240.484375 108.476562 239.410156 108.089844 238.253906 108.363281 C 237.152344 108.632812 236.246094 109.4375 235.582031 110.734375 C 234.640625 110.917969 232.886719 111.507812 232.171875 113.367188 C 231.703125 114.578125 231.773438 115.519531 232.046875 116.191406 C 231.253906 116.808594 230.230469 117.882812 230.125 119.398438 C 230.011719 121.117188 230.46875 122.394531 231.546875 123.285156 C 231.335938 124.105469 231.203125 125.464844 231.976562 126.832031 C 232.699219 128.125 233.855469 128.539062 234.789062 128.59375 C 235 129.476562 235.558594 130.683594 237.003906 131.351562 C 237.46875 131.554688 237.945312 131.644531 238.386719 131.644531 C 239.382812 131.644531 240.28125 131.230469 240.953125 130.84375 C 241.773438 135.019531 240.660156 137.234375 240.167969 137.964844 C 238.035156 137.949219 236.042969 137.832031 235.125 137.59375 C 233.800781 137.261719 233.75 136.785156 234.066406 134.722656 C 234.109375 134.429688 234.164062 134.128906 234.191406 133.832031 C 234.535156 131.125 232.417969 129.5625 232.410156 129.5625 C 229.554688 127.007812 227.914062 123.332031 227.914062 119.503906 C 227.90625 112.054688 233.980469 105.980469 241.429688 105.980469 C 248.886719 105.972656 254.960938 112.046875 254.960938 119.496094 C 254.960938 123.074219 253.585938 126.441406 251.089844 128.980469 Z M 236.683594 113.90625 C 237.117188 114.726562 238.296875 116.085938 239.957031 116.085938 C 240.097656 116.085938 240.238281 116.066406 240.378906 116.058594 L 240.378906 128.910156 C 239.839844 129.316406 238.695312 130.023438 237.796875 129.617188 C 236.570312 129.050781 236.570312 127.660156 236.570312 127.605469 C 236.570312 127.589844 236.570312 127.589844 236.570312 127.578125 L 238.296875 125.269531 C 238.296875 125.269531 238.296875 125.261719 238.308594 125.242188 C 238.386719 125.21875 238.652344 125.277344 238.835938 125.386719 C 239.277344 125.648438 239.867188 125.507812 240.140625 125.058594 C 240.414062 124.617188 240.273438 124.027344 239.824219 123.753906 C 239.402344 123.488281 238.863281 123.332031 238.351562 123.339844 C 238.203125 122.609375 237.917969 121.796875 237.320312 121.355469 C 236.898438 121.054688 236.296875 121.136719 235.988281 121.550781 C 235.671875 121.980469 235.757812 122.582031 236.183594 122.890625 C 236.351562 123.046875 236.507812 123.738281 236.570312 124.398438 L 234.859375 126.691406 C 234.488281 126.664062 233.96875 126.496094 233.636719 125.894531 C 232.9375 124.652344 233.511719 123.375 233.539062 123.332031 C 233.757812 122.871094 233.589844 122.34375 233.160156 122.085938 C 232.53125 121.726562 231.925781 121.152344 232.03125 119.53125 C 232.09375 118.5 233.089844 117.75 233.554688 117.460938 C 234.191406 117.566406 235.027344 117.8125 235.574219 118.199219 C 235.195312 118.570312 234.90625 118.992188 234.746094 119.328125 C 234.527344 119.8125 234.738281 120.378906 235.214844 120.597656 C 235.34375 120.660156 235.476562 120.6875 235.617188 120.6875 C 235.980469 120.6875 236.316406 120.484375 236.484375 120.140625 C 236.542969 120.007812 237.089844 118.90625 238.132812 119.328125 C 238.617188 119.511719 239.179688 119.285156 239.375 118.800781 C 239.578125 118.304688 239.332031 117.75 238.84375 117.554688 C 238.316406 117.34375 237.832031 117.28125 237.390625 117.308594 C 236.464844 116.15625 234.65625 115.714844 233.863281 115.582031 C 233.75 115.378906 233.609375 114.921875 233.945312 114.054688 C 234.472656 112.691406 236.199219 112.558594 236.269531 112.558594 C 236.632812 112.539062 236.957031 112.3125 237.101562 111.984375 C 237.53125 110.972656 238.078125 110.378906 238.695312 110.222656 C 239.285156 110.070312 239.957031 110.335938 240.378906 110.574219 L 240.378906 114.117188 C 240.351562 114.117188 240.328125 114.117188 240.292969 114.128906 C 239.152344 114.4375 238.40625 113.085938 238.371094 113.007812 C 238.132812 112.550781 237.558594 112.363281 237.082031 112.621094 C 236.613281 112.859375 236.449219 113.429688 236.683594 113.90625 Z M 236.683594 113.90625 " fill-opacity="1" fill-rule="nonzero"/></g><g clip-path="url(#1a02d20925)"><path fill="#722f37" d="M 221.398438 115.042969 C 221.292969 115.042969 221.1875 115.027344 221.089844 114.992188 L 214.285156 112.636719 C 213.78125 112.460938 213.527344 111.921875 213.695312 111.421875 C 213.871094 110.925781 214.40625 110.652344 214.910156 110.828125 L 221.714844 113.183594 C 222.21875 113.359375 222.472656 113.898438 222.304688 114.398438 C 222.164062 114.796875 221.796875 115.042969 221.398438 115.042969 Z M 221.398438 115.042969 " fill-opacity="1" fill-rule="nonzero"/></g><path fill="#722f37" d="M 227.621094 103.214844 C 227.359375 103.214844 227.09375 103.097656 226.898438 102.886719 L 222.164062 97.457031 C 221.820312 97.058594 221.855469 96.460938 222.261719 96.105469 C 222.660156 95.761719 223.257812 95.796875 223.613281 96.203125 L 228.34375 101.636719 C 228.6875 102.03125 228.652344 102.632812 228.25 102.984375 C 228.070312 103.140625 227.84375 103.214844 227.621094 103.214844 Z M 227.621094 103.214844 " fill-opacity="1" fill-rule="nonzero"/><path fill="#722f37" d="M 240.828125 98.136719 C 240.300781 98.136719 239.875 97.710938 239.875 97.191406 L 239.832031 89.988281 C 239.832031 89.460938 240.253906 89.035156 240.785156 89.027344 C 240.785156 89.027344 240.785156 89.027344 240.792969 89.027344 C 241.324219 89.027344 241.746094 89.453125 241.746094 89.972656 L 241.789062 97.175781 C 241.78125 97.703125 241.359375 98.136719 240.828125 98.136719 Z M 240.828125 98.136719 " fill-opacity="1" fill-rule="nonzero"/><path fill="#722f37" d="M 254.679688 103.355469 C 254.476562 103.355469 254.273438 103.292969 254.105469 103.160156 C 253.683594 102.84375 253.601562 102.242188 253.921875 101.820312 L 258.277344 96.082031 C 258.59375 95.65625 259.191406 95.578125 259.617188 95.894531 C 260.039062 96.214844 260.117188 96.8125 259.800781 97.234375 L 255.445312 102.976562 C 255.25 103.230469 254.96875 103.355469 254.679688 103.355469 Z M 254.679688 103.355469 " fill-opacity="1" fill-rule="nonzero"/><g clip-path="url(#e8e7bacbed)"><path fill="#722f37" d="M 261.316406 114.894531 C 260.886719 114.894531 260.496094 114.601562 260.390625 114.171875 C 260.269531 113.660156 260.578125 113.140625 261.085938 113.015625 L 268.078125 111.28125 C 268.589844 111.15625 269.109375 111.464844 269.234375 111.976562 C 269.355469 112.488281 269.046875 113.007812 268.539062 113.128906 L 261.546875 114.867188 C 261.46875 114.886719 261.394531 114.894531 261.316406 114.894531 Z M 261.316406 114.894531 " fill-opacity="1" fill-rule="nonzero"/></g><path fill="#722f37" d="M 66.78125 65.792969 C 66.242188 65.792969 65.734375 65.527344 65.425781 65.082031 L 53.507812 47.742188 C 53.164062 47.238281 53.121094 46.585938 53.40625 46.046875 C 53.691406 45.503906 54.253906 45.167969 54.863281 45.167969 L 62.871094 45.167969 C 63.777344 45.167969 64.515625 45.902344 64.515625 46.8125 C 64.515625 47.71875 63.777344 48.457031 62.871094 48.457031 L 57.988281 48.457031 L 66.78125 61.246094 L 75.574219 48.457031 L 70.695312 48.457031 C 69.785156 48.457031 69.046875 47.71875 69.046875 46.8125 C 69.046875 45.902344 69.785156 45.167969 70.695312 45.167969 L 78.699219 45.167969 C 79.3125 45.167969 79.871094 45.507812 80.15625 46.046875 C 80.441406 46.585938 80.402344 47.238281 80.054688 47.742188 L 68.136719 65.082031 C 67.828125 65.527344 67.324219 65.792969 66.78125 65.792969 Z M 66.78125 65.792969 " fill-opacity="1" fill-rule="nonzero"/><g clip-path="url(#ed5b5b8c48)"><path fill="#722f37" d="M 80.699219 65.792969 L 52.859375 65.792969 C 51.953125 65.792969 51.214844 65.058594 51.214844 64.148438 C 51.214844 63.242188 51.953125 62.503906 52.859375 62.503906 L 80.699219 62.503906 C 81.609375 62.503906 82.347656 63.242188 82.347656 64.148438 C 82.347656 65.058594 81.609375 65.792969 80.699219 65.792969 Z M 80.699219 65.792969 " fill-opacity="1" fill-rule="nonzero"/></g><path fill="#722f37" d="M 70.691406 48.457031 C 69.785156 48.457031 69.046875 47.71875 69.046875 46.8125 L 69.046875 32.671875 L 64.515625 32.671875 L 64.515625 46.8125 C 64.515625 47.71875 63.777344 48.457031 62.871094 48.457031 C 61.960938 48.457031 61.226562 47.71875 61.226562 46.8125 L 61.226562 31.027344 C 61.226562 30.121094 61.960938 29.382812 62.871094 29.382812 L 70.691406 29.382812 C 71.601562 29.382812 72.335938 30.121094 72.335938 31.027344 L 72.335938 46.8125 C 72.335938 47.71875 71.601562 48.457031 70.691406 48.457031 Z M 70.691406 48.457031 " fill-opacity="1" fill-rule="nonzero"/><g clip-path="url(#5c8469bc02)"><path fill="#722f37" d="M 13.660156 27.953125 C 12.75 27.953125 12.015625 27.21875 12.015625 26.308594 C 12.015625 21.90625 15.597656 18.320312 20.003906 18.320312 L 66.316406 18.320312 C 67.226562 18.320312 67.964844 19.058594 67.964844 19.964844 L 67.964844 25.429688 C 67.964844 26.335938 67.226562 27.074219 66.316406 27.074219 C 65.410156 27.074219 64.671875 26.335938 64.671875 25.429688 L 64.671875 21.609375 L 20.003906 21.609375 C 17.414062 21.609375 15.304688 23.71875 15.304688 26.308594 C 15.304688 27.21875 14.566406 27.953125 13.660156 27.953125 Z M 13.660156 27.953125 " fill-opacity="1" fill-rule="nonzero"/></g><path fill="#722f37" d="M 13.691406 83.535156 C 12.78125 83.535156 12.046875 82.800781 12.046875 81.890625 C 12.046875 77.488281 15.628906 73.902344 20.035156 73.902344 L 66.347656 73.902344 C 67.257812 73.902344 67.996094 74.640625 67.996094 75.546875 C 67.996094 76.453125 67.257812 77.191406 66.347656 77.191406 L 20.035156 77.191406 C 17.445312 77.191406 15.335938 79.300781 15.335938 81.890625 C 15.335938 82.800781 14.597656 83.535156 13.691406 83.535156 Z M 13.691406 83.535156 " fill-opacity="1" fill-rule="nonzero"/><path fill="#722f37" d="M 66.351562 89.878906 L 46.097656 89.878906 C 45.1875 89.878906 44.453125 89.144531 44.453125 88.234375 C 44.453125 87.328125 45.1875 86.589844 46.097656 86.589844 L 66.351562 86.589844 C 67.257812 86.589844 67.996094 87.328125 67.996094 88.234375 C 67.996094 89.144531 67.257812 89.878906 66.351562 89.878906 Z M 66.351562 89.878906 " fill-opacity="1" fill-rule="nonzero"/><path fill="#722f37" d="M 33.644531 89.878906 L 20.035156 89.878906 C 15.628906 89.878906 12.046875 86.296875 12.046875 81.890625 C 12.046875 80.984375 12.78125 80.246094 13.691406 80.246094 C 14.597656 80.246094 15.335938 80.984375 15.335938 81.890625 C 15.335938 84.480469 17.445312 86.589844 20.035156 86.589844 L 33.644531 86.589844 C 34.550781 86.589844 35.289062 87.328125 35.289062 88.234375 C 35.289062 89.144531 34.550781 89.878906 33.644531 89.878906 Z M 33.644531 89.878906 " fill-opacity="1" fill-rule="nonzero"/><path fill="#722f37" d="M 13.691406 83.535156 C 12.78125 83.535156 12.046875 82.800781 12.046875 81.894531 L 12.015625 26.3125 C 12.015625 25.402344 12.75 24.667969 13.65625 24.664062 C 14.566406 24.664062 15.304688 25.402344 15.304688 26.308594 L 15.335938 81.890625 C 15.335938 82.796875 14.597656 83.535156 13.691406 83.535156 Z M 13.691406 83.535156 " fill-opacity="1" fill-rule="nonzero"/><path fill="#722f37" d="M 66.316406 77.191406 C 65.410156 77.191406 64.671875 76.453125 64.671875 75.546875 L 64.671875 69.644531 C 64.671875 68.738281 65.410156 68 66.316406 68 C 67.226562 68 67.964844 68.738281 67.964844 69.644531 L 67.964844 75.546875 C 67.964844 76.453125 67.226562 77.191406 66.316406 77.191406 Z M 66.316406 77.191406 " fill-opacity="1" fill-rule="nonzero"/><path fill="#722f37" d="M 62.554688 89.878906 C 61.871094 89.878906 61.234375 89.453125 61 88.769531 C 58.371094 81.113281 60.691406 75.183594 60.789062 74.933594 C 61.128906 74.089844 62.085938 73.683594 62.929688 74.019531 C 63.769531 74.359375 64.179688 75.3125 63.84375 76.152344 C 63.8125 76.238281 61.90625 81.277344 64.109375 87.703125 C 64.402344 88.558594 63.945312 89.496094 63.085938 89.789062 C 62.910156 89.851562 62.730469 89.878906 62.554688 89.878906 Z M 62.554688 89.878906 " fill-opacity="1" fill-rule="nonzero"/><path fill="#722f37" d="M 22.832031 69.246094 C 21.921875 69.246094 21.183594 68.511719 21.183594 67.601562 L 21.183594 26.621094 C 21.183594 25.714844 21.921875 24.976562 22.832031 24.976562 C 23.738281 24.976562 24.476562 25.714844 24.476562 26.621094 L 24.476562 67.601562 C 24.476562 68.507812 23.738281 69.246094 22.832031 69.246094 Z M 22.832031 69.246094 " fill-opacity="1" fill-rule="nonzero"/><g clip-path="url(#bb18f5cd8d)"><path fill="#722f37" d="M 46.09375 96.601562 C 45.8125 96.601562 45.53125 96.527344 45.277344 96.382812 L 40 93.359375 L 34.433594 96.398438 C 33.921875 96.675781 33.304688 96.664062 32.804688 96.371094 C 32.304688 96.074219 32 95.535156 32 94.957031 L 32 83.5625 C 32 82.652344 32.738281 81.917969 33.644531 81.917969 C 34.554688 81.917969 35.289062 82.652344 35.289062 83.5625 L 35.289062 92.183594 L 39.234375 90.03125 C 39.734375 89.757812 40.34375 89.765625 40.839844 90.046875 L 44.449219 92.117188 L 44.449219 83.5625 C 44.449219 82.652344 45.1875 81.917969 46.09375 81.917969 C 47.003906 81.917969 47.742188 82.652344 47.742188 83.5625 L 47.742188 94.957031 C 47.742188 95.542969 47.429688 96.082031 46.917969 96.378906 C 46.664062 96.527344 46.378906 96.601562 46.09375 96.601562 Z M 46.09375 96.601562 " fill-opacity="1" fill-rule="nonzero"/></g><g clip-path="url(#52fdb303bd)"><path fill="#722f37" d="M 363.003906 26.921875 L 363.003906 67.554688 C 363.003906 71.671875 359.671875 75.003906 355.554688 75.003906 L 347.425781 75.003906 C 346.316406 75.003906 345.394531 74.085938 345.394531 72.972656 C 345.394531 71.863281 346.316406 70.941406 347.425781 70.941406 L 355.554688 70.941406 C 357.421875 70.941406 358.941406 69.425781 358.941406 67.554688 L 358.941406 37.757812 C 358.941406 35.890625 357.421875 34.371094 355.554688 34.371094 L 328.789062 34.371094 C 325.757812 34.371094 322.964844 32.476562 321.855469 29.6875 L 319.175781 22.96875 C 318.660156 21.667969 317.414062 20.828125 316.03125 20.828125 L 301.378906 20.828125 C 299.507812 20.828125 297.992188 22.347656 297.992188 24.214844 L 297.992188 67.554688 C 297.992188 69.425781 299.507812 70.941406 301.378906 70.941406 L 309.503906 70.941406 C 310.613281 70.941406 311.535156 71.863281 311.535156 72.972656 C 311.535156 74.085938 310.613281 75.003906 309.503906 75.003906 L 301.378906 75.003906 C 297.261719 75.003906 293.929688 71.671875 293.929688 67.554688 L 293.929688 24.214844 C 293.929688 20.097656 297.261719 16.765625 301.378906 16.765625 L 316.03125 16.765625 C 318.308594 16.765625 320.367188 17.796875 321.773438 19.472656 L 342.007812 19.472656 C 343.121094 19.472656 344.042969 20.394531 344.042969 21.507812 C 344.042969 22.617188 343.121094 23.539062 342.007812 23.539062 L 323.777344 23.539062 L 325.648438 28.167969 C 326.136719 29.441406 327.410156 30.308594 328.789062 30.308594 L 355.554688 30.308594 C 356.773438 30.308594 357.910156 30.632812 358.941406 31.148438 L 358.941406 26.921875 C 358.941406 25.054688 357.421875 23.539062 355.554688 23.539062 L 350.136719 23.539062 C 349.027344 23.539062 348.105469 22.617188 348.105469 21.507812 C 348.105469 20.394531 349.027344 19.472656 350.136719 19.472656 L 355.554688 19.472656 C 359.671875 19.472656 363.003906 22.804688 363.003906 26.921875 Z M 363.003906 26.921875 " fill-opacity="1" fill-rule="nonzero"/></g><path fill="#722f37" d="M 333.109375 51.980469 L 323.824219 51.980469 C 322.703125 51.980469 321.792969 52.890625 321.792969 54.011719 L 321.792969 70.941406 C 321.792969 70.941406 317.652344 70.941406 317.628906 70.941406 C 316.011719 70.941406 315.035156 72.976562 316.042969 74.242188 C 316.042969 74.242188 326.851562 87.757812 326.878906 87.789062 C 327.683594 88.792969 329.246094 88.792969 330.050781 87.789062 C 330.050781 87.789062 340.839844 74.304688 340.886719 74.242188 C 341.871094 73.015625 341.003906 70.941406 339.300781 70.941406 L 335.140625 70.941406 L 335.140625 54.011719 C 335.140625 52.890625 334.230469 51.980469 333.109375 51.980469 Z M 328.464844 83.265625 L 321.859375 75.003906 L 323.824219 75.003906 C 324.945312 75.003906 325.855469 74.09375 325.855469 72.972656 L 325.855469 56.042969 L 331.078125 56.042969 L 331.078125 72.972656 C 331.078125 74.09375 331.988281 75.003906 333.109375 75.003906 L 335.074219 75.003906 Z M 328.464844 83.265625 " fill-opacity="1" fill-rule="nonzero"/><path fill="#722f37" d="M 342.007812 84.484375 C 340.886719 84.484375 339.976562 85.394531 339.976562 86.519531 L 339.976562 92.613281 L 316.953125 92.613281 L 316.953125 86.519531 C 316.953125 85.394531 316.042969 84.484375 314.921875 84.484375 C 313.800781 84.484375 312.890625 85.394531 312.890625 86.519531 L 312.890625 94.644531 C 312.890625 95.765625 313.800781 96.675781 314.921875 96.675781 L 342.007812 96.675781 C 343.132812 96.675781 344.042969 95.765625 344.042969 94.644531 L 344.042969 86.519531 C 344.042969 85.394531 343.132812 84.484375 342.007812 84.484375 Z M 342.007812 84.484375 " fill-opacity="1" fill-rule="nonzero"/><path fill="#722f37" d="M 324.507812 311.597656 C 337.078125 323.992188 337.214844 340.710938 324.902344 353.203125 C 324.773438 353.332031 324.640625 353.464844 324.507812 353.597656 L 323.039062 352.105469 C 323.164062 351.984375 323.289062 351.855469 323.410156 351.734375 C 334.910156 340.070312 334.792969 324.675781 323.039062 313.089844 Z M 305.671875 344.609375 C 315.488281 337.605469 328.667969 337.605469 338.480469 344.609375 L 337.265625 346.3125 C 328.179688 339.828125 315.976562 339.828125 306.890625 346.3125 Z M 321.46875 312.894531 C 309.632812 324.566406 309.511719 340.070312 321.09375 351.816406 C 321.21875 351.941406 321.34375 352.066406 321.46875 352.191406 L 320 353.683594 C 319.867188 353.550781 319.734375 353.417969 319.605469 353.285156 C 307.207031 340.710938 307.347656 323.878906 320 311.402344 Z M 321.976562 313.214844 C 311.289062 313.269531 302.667969 321.980469 302.726562 332.667969 C 302.78125 343.355469 311.488281 351.976562 322.179688 351.921875 L 322.175781 351.921875 C 332.863281 351.867188 341.484375 343.160156 341.429688 332.46875 C 341.375 321.859375 332.789062 313.269531 322.175781 313.214844 L 322.1875 313.214844 L 321.976562 313.21875 C 321.699219 313.21875 321.429688 313.109375 321.234375 312.910156 C 321.035156 312.714844 320.925781 312.445312 320.925781 312.167969 L 321.976562 313.214844 M 321.96875 311.125 C 322.246094 311.121094 322.515625 311.234375 322.710938 311.429688 C 322.910156 311.628906 323.019531 311.894531 323.019531 312.175781 L 321.96875 311.125 L 322.1875 311.125 C 333.945312 311.183594 343.460938 320.703125 343.523438 332.457031 C 343.585938 344.304688 334.03125 353.953125 322.1875 354.015625 C 310.34375 354.074219 300.691406 344.523438 300.632812 332.679688 C 300.570312 320.835938 310.125 311.183594 321.96875 311.125 Z M 323.125 312.171875 L 323.125 352.96875 L 321.03125 352.96875 L 321.03125 312.171875 Z M 342.476562 333.613281 L 301.679688 333.617188 L 301.679688 331.523438 L 342.476562 331.523438 Z M 306.890625 319.445312 C 315.976562 325.925781 328.179688 325.925781 337.265625 319.445312 L 338.480469 321.148438 C 328.667969 328.148438 315.488281 328.148438 305.671875 321.148438 Z M 306.890625 319.445312 " fill-opacity="1" fill-rule="nonzero"/><g clip-path="url(#b4e858fb5d)"><path fill="#722f37" d="M 299.445312 308.460938 L 299.34375 284.90625 L 302.519531 284.910156 L 302.507812 283.523438 C 303.4375 283.046875 304.519531 282.636719 305.6875 282.304688 L 305.667969 279.089844 C 307.519531 278.546875 309.863281 278.210938 312.414062 278.203125 C 315.828125 278.1875 318.898438 278.785156 320.890625 279.667969 C 322.875 278.765625 325.882812 278.171875 329.296875 278.15625 C 331.847656 278.144531 334.195312 278.457031 336.050781 278.984375 L 336.0625 282.199219 C 337.230469 282.519531 338.316406 282.921875 339.25 283.390625 L 339.25 284.777344 L 342.425781 284.746094 L 342.53125 308.300781 Z M 334.777344 279.972656 C 333.265625 279.6875 331.394531 279.449219 329.332031 279.457031 C 326.117188 279.472656 323.300781 280.089844 321.511719 280.769531 L 321.585938 301.738281 C 323.550781 300.960938 326.332031 300.453125 329.394531 300.4375 C 331.390625 300.429688 333.261719 300.617188 334.867188 300.949219 Z M 312.546875 304.949219 C 308.523438 304.964844 304.941406 305.839844 302.609375 307.179688 L 302.527344 286.214844 L 300.621094 286.242188 L 300.714844 307.191406 L 341.253906 307.042969 L 341.160156 286.035156 L 339.257812 286.023438 L 339.359375 307.046875 C 337.011719 305.726562 333.421875 304.886719 329.398438 304.902344 C 326.167969 304.917969 323.222656 305.4375 320.980469 306.351562 C 318.726562 305.457031 315.777344 304.933594 312.546875 304.949219 Z M 307.042969 301.042969 C 308.648438 300.699219 310.519531 300.492188 312.515625 300.484375 C 315.578125 300.472656 318.359375 300.957031 320.335938 301.714844 L 320.222656 280.691406 C 318.484375 280 315.632812 279.460938 312.421875 279.476562 C 310.386719 279.484375 308.503906 279.757812 306.953125 280.066406 Z M 320.953125 303.132812 C 319.328125 302.316406 316.15625 301.746094 312.519531 301.761719 C 309.878906 301.773438 307.496094 302.082031 305.765625 302.566406 L 305.699219 283.59375 C 304.984375 283.800781 304.351562 284.054688 303.742188 284.316406 L 303.878906 305.234375 C 306.261719 304.273438 309.269531 303.6875 312.542969 303.671875 C 315.707031 303.65625 318.621094 304.148438 320.972656 305.03125 C 323.316406 304.125 326.230469 303.640625 329.394531 303.625 C 332.667969 303.613281 335.679688 304.144531 338.070312 305.082031 L 338.023438 284.195312 C 337.410156 283.9375 336.777344 283.6875 336.0625 283.488281 L 336.132812 302.605469 C 334.398438 302.132812 332.042969 301.703125 329.398438 301.714844 C 325.765625 301.730469 322.570312 302.328125 320.953125 303.160156 " fill-opacity="1" fill-rule="nonzero"/></g><path fill="#722f37" d="M 356.785156 347.65625 C 352.609375 355.011719 346.148438 361.023438 338.160156 364.585938 L 336.203125 360.191406 C 343.226562 357.058594 348.921875 351.765625 352.605469 345.28125 Z M 356.785156 347.65625 " fill-opacity="1" fill-rule="nonzero"/><g clip-path="url(#29bc22d699)"><path fill="#722f37" d="M 335.792969 365.550781 C 333.613281 366.363281 331.335938 366.992188 328.972656 367.425781 C 322.660156 368.585938 316.414062 368.207031 310.628906 366.550781 L 311.949219 361.929688 C 317.039062 363.382812 322.539062 363.71875 328.105469 362.695312 C 330.191406 362.3125 332.199219 361.757812 334.117188 361.046875 Z M 335.792969 365.550781 " fill-opacity="1" fill-rule="nonzero"/></g><path fill="#722f37" d="M 308.191406 365.769531 C 300.128906 362.902344 293.117188 357.511719 288.277344 350.378906 L 292.253906 347.679688 C 296.519531 353.960938 302.699219 358.710938 309.804688 361.242188 Z M 308.191406 365.769531 " fill-opacity="1" fill-rule="nonzero"/><g clip-path="url(#572ddeb1c1)"><path fill="#722f37" d="M 286.90625 348.214844 L 286.910156 348.214844 C 284.570312 344.246094 282.878906 339.804688 282 335.015625 L 282 335.019531 C 281.292969 331.160156 281.15625 327.328125 281.539062 323.609375 L 286.320312 324.101562 C 285.988281 327.371094 286.105469 330.746094 286.726562 334.148438 C 287.503906 338.375 288.996094 342.285156 291.050781 345.777344 Z M 286.90625 348.214844 " fill-opacity="1" fill-rule="nonzero"/></g><g clip-path="url(#9724710e45)"><path fill="#722f37" d="M 281.878906 321.070312 C 283.308594 312.523438 287.464844 304.722656 293.570312 298.785156 L 296.925781 302.230469 C 291.542969 307.46875 287.882812 314.34375 286.621094 321.867188 Z M 281.878906 321.070312 " fill-opacity="1" fill-rule="nonzero"/></g><path fill="#722f37" d="M 347.320312 296.5625 C 353.777344 301.867188 358.628906 309.195312 360.808594 317.808594 L 356.144531 318.984375 C 354.230469 311.402344 349.957031 304.953125 344.269531 300.277344 Z M 347.320312 296.5625 " fill-opacity="1" fill-rule="nonzero"/><g clip-path="url(#b7f9b6cce8)"><path fill="#722f37" d="M 361.359375 320.3125 C 361.367188 320.371094 361.375 320.394531 361.382812 320.449219 C 363 329.253906 361.625 337.917969 357.980469 345.394531 L 353.65625 343.285156 C 356.867188 336.703125 358.078125 329.078125 356.652344 321.320312 C 356.644531 321.269531 356.640625 321.246094 356.632812 321.199219 Z M 361.359375 320.3125 " fill-opacity="1" fill-rule="nonzero"/></g></svg>