<svg xmlns="http://www.w3.org/2000/svg" xmlns:xlink="http://www.w3.org/1999/xlink" width="500" zoomAndPan="magnify" viewBox="0 0 375 374.999991" height="500" preserveAspectRatio="xMidYMid meet" version="1.0"><defs><clipPath id="5a4a383e12"><path d="M 42 10 L 337.5 10 L 337.5 164 L 42 164 Z M 42 10 " clip-rule="nonzero"/></clipPath><clipPath id="5b672e5b64"><path d="M 37.5 17 L 142 17 L 142 126 L 37.5 126 Z M 37.5 17 " clip-rule="nonzero"/></clipPath><clipPath id="a021bba863"><path d="M 99.976562 216.582031 L 274.726562 216.582031 L 274.726562 374.832031 L 99.976562 374.832031 Z M 99.976562 216.582031 " clip-rule="nonzero"/></clipPath></defs><g clip-path="url(#5a4a383e12)"><path fill="#722f37" d="M 51.125 42.023438 L 130.355469 28.671875 C 131.769531 28.4375 133.148438 28.488281 134.460938 28.816406 C 135.785156 29.152344 137.019531 29.769531 138.152344 30.65625 C 139.269531 31.527344 140.152344 32.585938 140.800781 33.804688 C 141.449219 35.023438 141.828125 36.351562 141.9375 37.773438 L 141.953125 38.035156 C 144.210938 34.613281 146.808594 31.433594 149.695312 28.546875 C 160.609375 17.632812 175.683594 10.882812 192.335938 10.882812 C 208.984375 10.882812 224.0625 17.632812 234.976562 28.546875 C 236.300781 29.871094 237.5625 31.253906 238.753906 32.695312 C 239.230469 32.015625 239.789062 31.390625 240.4375 30.824219 C 241.527344 29.871094 242.746094 29.191406 244.054688 28.785156 C 245.363281 28.375 246.738281 28.25 248.15625 28.417969 L 328.511719 37.699219 C 330.039062 37.875 331.433594 38.359375 332.667969 39.132812 C 333.902344 39.898438 334.957031 40.953125 335.785156 42.253906 C 336.621094 43.570312 337.136719 44.960938 337.3125 46.394531 C 337.492188 47.839844 337.351562 49.3125 336.863281 50.761719 L 316.113281 113.585938 C 315.316406 116 313.683594 117.917969 311.625 119.109375 C 309.570312 120.300781 307.09375 120.753906 304.609375 120.246094 L 283.660156 115.929688 C 275.660156 124.265625 265.101562 135.464844 265.070312 135.496094 L 258.496094 132.007812 L 263.050781 111.6875 L 243.734375 107.710938 C 242.769531 107.511719 241.867188 107.179688 241.035156 106.742188 C 240.257812 107.820312 239.433594 108.867188 238.582031 109.886719 C 229.964844 120.167969 217.984375 127.535156 204.335938 130.296875 L 177.980469 163.101562 L 171.175781 159.972656 L 176.972656 129.507812 C 164.542969 126.242188 153.683594 119.105469 145.75 109.460938 C 144.640625 108.113281 143.585938 106.71875 142.601562 105.273438 C 141.53125 106.132812 140.257812 106.78125 138.84375 107.148438 L 119.914062 112.085938 L 125.472656 131.992188 L 119.097656 135.816406 C 119.058594 135.785156 107.203125 124.457031 99.65625 117.363281 L 79.105469 122.71875 C 76.664062 123.359375 74.183594 123.03125 72.074219 121.953125 C 69.96875 120.878906 68.242188 119.054688 67.324219 116.691406 L 43.496094 55.445312 C 42.941406 54.015625 42.71875 52.566406 42.824219 51.125 C 42.929688 49.679688 43.359375 48.265625 44.121094 46.929688 C 44.875 45.609375 45.863281 44.511719 47.0625 43.675781 C 48.257812 42.835938 49.628906 42.28125 51.125 42.023438 Z M 51.125 42.023438 " fill-opacity="1" fill-rule="nonzero"/></g><path fill="#722f37" d="M 272.144531 177.8125 C 276.976562 181.578125 279.769531 186.8125 279.769531 192.207031 C 279.769531 198.71875 276.167969 202.84375 271.09375 205.328125 C 267.160156 207.277344 262.652344 208 257.660156 207.425781 C 253.644531 207.058594 249.574219 205.726562 245.917969 203.050781 C 244.640625 202.136719 243.53125 201.113281 242.550781 200.066406 C 241.652344 200.289062 240.707031 200.347656 239.675781 200.183594 C 222.828125 197.746094 205.601562 196.507812 188.921875 197.585938 C 186.722656 197.804688 184.714844 197.15625 183.054688 195.691406 C 181.484375 194.300781 180.617188 192.5625 180.539062 190.578125 C 175.191406 191.851562 169.871094 193.371094 164.554688 194.890625 C 162.0625 195.621094 159.59375 195.105469 157.667969 193.488281 C 156.714844 192.722656 156.035156 191.789062 155.628906 190.710938 C 149.988281 192.617188 144.347656 194.511719 138.699219 196.550781 C 136.207031 197.523438 133.714844 197.242188 131.8125 195.785156 C 129.96875 194.375 129.125 192.261719 129.480469 189.855469 C 123.566406 193.152344 117.652344 196.679688 111.761719 200.203125 C 110.054688 201.21875 108.238281 201.628906 106.582031 201.46875 C 102.023438 205.3125 97.492188 209.140625 92.960938 212.980469 C 90.847656 214.800781 88.40625 215.671875 86.101562 215.363281 C 83.824219 215.050781 82.273438 213.636719 81.8125 211.339844 C 81.566406 210.25 81.351562 209.171875 81.136719 208.0625 C 77.09375 210.910156 72.78125 213.25 68.277344 214.800781 C 55.800781 219.144531 47.605469 214.949219 43.347656 205.371094 C 41.121094 200.378906 40.144531 194.597656 40.144531 188.335938 C 40.144531 181.621094 41.175781 174.515625 42.886719 167.410156 C 44.488281 160.714844 46.679688 154.058594 49.449219 147.5 C 52.214844 140.957031 55.550781 134.480469 59.433594 128.230469 C 67.816406 114.976562 79.074219 102.679688 93.453125 99.164062 C 104.304688 96.945312 111.875 101.277344 116.453125 109.253906 C 117.109375 106.332031 119.335938 103.886719 122.289062 102.871094 C 129.070312 100.757812 135.882812 98.765625 142.691406 96.8125 C 145.238281 96.179688 147.683594 96.78125 149.445312 98.515625 C 149.875 98.9375 150.261719 99.425781 150.554688 99.929688 C 157.230469 98.292969 163.933594 96.890625 170.632812 95.542969 C 173.183594 95.023438 175.601562 95.746094 177.359375 97.613281 C 177.714844 98 178.011719 98.398438 178.28125 98.808594 C 184.332031 97.878906 190.386719 96.945312 196.457031 96.179688 C 199.011719 95.910156 201.425781 96.859375 203.1875 98.820312 C 203.972656 99.695312 204.515625 100.640625 204.839844 101.644531 C 205.464844 101.484375 206.09375 101.394531 206.765625 101.375 C 222.886719 101.914062 238.996094 103.121094 255.109375 104.996094 C 257.417969 105.308594 259.480469 106.507812 261.082031 108.53125 C 262.652344 110.570312 263.308594 112.800781 262.976562 114.957031 C 262.351562 119.117188 261.730469 123.25 261.132812 127.417969 C 263.277344 120.53125 265.445312 113.644531 267.621094 106.742188 C 268.648438 103.445312 272.203125 102.117188 275.917969 103.671875 C 284.21875 107.390625 292.523438 111.207031 300.847656 115.28125 C 303.292969 116.511719 305.195312 118.566406 306.277344 121.136719 C 307.332031 123.710938 307.25 126.039062 306.058594 127.785156 C 301.09375 134.953125 296.050781 142.328125 291.761719 150.144531 C 287.449219 158.035156 283.894531 166.488281 280.882812 175.238281 C 279.90625 178.136719 276.953125 179.304688 273.5625 178.253906 C 273.066406 178.105469 272.605469 177.957031 272.144531 177.8125 Z M 255.246094 172.609375 C 253.644531 171.84375 252.316406 170.625 251.289062 169.007812 C 249.929688 166.863281 249.550781 164.628906 250.175781 162.59375 C 252.480469 155.144531 254.8125 147.695312 257.148438 140.246094 C 254.890625 141.992188 252.722656 143.847656 250.578125 145.679688 C 246.429688 149.203125 242.332031 152.773438 238.238281 156.488281 C 235.714844 158.746094 233.164062 160.964844 230.613281 163.183594 C 234.222656 163.5625 237.832031 163.949219 241.441406 164.332031 C 243.714844 164.585938 245.699219 165.785156 247.269531 167.714844 C 248.847656 169.667969 249.527344 171.796875 249.277344 173.9375 C 249.25 174 249.25 174.042969 249.25 174.085938 C 251.152344 173.332031 253.160156 172.832031 255.246094 172.609375 Z M 199.222656 127.65625 C 197.25 135.859375 195.429688 144.085938 193.800781 152.394531 C 196.730469 149.558594 199.660156 146.761719 202.566406 143.984375 C 204.839844 141.78125 207.148438 139.578125 209.453125 137.378906 C 208.859375 137.421875 208.289062 137.464844 207.6875 137.527344 C 205.4375 137.691406 203.351562 136.96875 201.644531 135.339844 C 199.933594 133.757812 199.09375 131.761719 199.175781 129.542969 C 199.175781 128.925781 199.199219 128.292969 199.222656 127.65625 Z M 89.628906 148.105469 C 89.570312 146.378906 89.382812 144.722656 89.058594 143.214844 C 88.972656 142.890625 88.8125 142.359375 88.625 141.84375 C 86.375 143.953125 83.144531 149.601562 82.304688 151.167969 C 81.542969 152.601562 80.78125 154.078125 80.078125 155.566406 C 83.25 153.074219 86.421875 150.585938 89.628906 148.105469 Z M 89.628906 148.105469 " fill-opacity="1" fill-rule="evenodd"/><path fill="#722f37" d="M 276.273438 183.496094 C 281.070312 187.429688 283.894531 192.722656 283.894531 198.132812 C 283.894531 204.648438 280.285156 208.710938 275.210938 211.09375 C 271.28125 213.054688 266.777344 213.765625 261.8125 213.042969 C 257.773438 212.613281 253.726562 211.296875 250.066406 208.609375 C 248.789062 207.675781 247.679688 206.640625 246.703125 205.5625 C 245.835938 205.742188 244.855469 205.757812 243.828125 205.53125 C 227.003906 202.890625 209.808594 201.425781 193.148438 202.296875 C 190.953125 202.503906 188.945312 201.855469 187.261719 200.378906 C 185.71875 199.019531 184.851562 197.242188 184.769531 195.265625 C 179.453125 196.507812 174.128906 197.851562 168.8125 199.375 C 166.320312 200.085938 163.828125 199.546875 161.925781 197.894531 C 160.976562 197.078125 160.265625 196.089844 159.886719 195.011719 C 154.246094 196.863281 148.605469 198.738281 142.988281 200.625 C 140.496094 201.542969 137.996094 201.28125 136.09375 199.816406 C 134.257812 198.394531 133.414062 196.269531 133.765625 193.875 C 127.847656 197.097656 121.964844 200.464844 116.074219 204.011719 C 114.367188 205.019531 112.554688 205.433594 110.894531 205.195312 C 106.363281 208.890625 101.832031 212.71875 97.308594 216.558594 C 95.1875 218.359375 92.75 219.101562 90.445312 218.714844 C 88.164062 218.390625 86.617188 216.988281 86.15625 214.695312 C 85.914062 213.605469 85.695312 212.507812 85.476562 211.402344 C 81.4375 214.269531 77.125 216.546875 72.617188 217.917969 C 60.164062 222.21875 52 217.859375 47.742188 208.300781 C 45.515625 203.320312 44.511719 197.554688 44.511719 191.289062 C 44.511719 184.582031 45.570312 177.46875 47.253906 170.363281 C 48.851562 163.671875 51.082031 157.007812 53.84375 150.457031 C 56.617188 143.898438 59.953125 137.574219 63.796875 131.40625 C 72.15625 118.148438 83.414062 106.050781 97.792969 102.722656 C 108.621094 100.523438 116.1875 105.015625 120.769531 113.007812 C 121.421875 110.085938 123.617188 107.628906 126.578125 106.710938 C 133.359375 104.707031 140.164062 102.710938 146.980469 100.953125 C 149.527344 100.316406 151.941406 100.933594 153.703125 102.667969 C 154.164062 103.109375 154.519531 103.582031 154.820312 104.082031 C 161.488281 102.5625 168.164062 101.214844 174.867188 99.875 C 177.414062 99.457031 179.828125 100.285156 181.589844 102.160156 C 181.945312 102.53125 182.246094 102.929688 182.511719 103.347656 C 188.566406 102.429688 194.617188 101.589844 200.664062 100.921875 C 203.214844 100.640625 205.632812 101.601562 207.394531 103.5625 C 208.179688 104.425781 208.722656 105.398438 209.046875 106.375 C 209.644531 106.226562 210.292969 106.152344 210.972656 106.195312 C 227.0625 106.875 243.148438 108.28125 259.261719 110.351562 C 261.566406 110.6875 263.632812 111.992188 265.203125 114.042969 C 266.777344 116.097656 267.457031 118.332031 267.128906 120.5 C 266.480469 124.65625 265.882812 128.820312 265.257812 132.992188 C 267.402344 126.089844 269.570312 119.183594 271.742188 112.253906 C 272.773438 108.945312 276.328125 107.648438 280.019531 109.273438 C 288.316406 113.082031 296.617188 117.003906 304.949219 121.199219 C 307.363281 122.425781 309.289062 124.476562 310.347656 127.0625 C 311.433594 129.636719 311.351562 132 310.15625 133.726562 C 305.195312 140.925781 300.144531 148.300781 295.855469 156.015625 C 291.542969 163.875 287.992188 172.339844 285.011719 181.125 C 284 184.015625 281.046875 185.15625 277.65625 183.945312 C 277.195312 183.808594 276.734375 183.648438 276.273438 183.496094 Z M 259.375 178.074219 C 257.796875 177.320312 256.445312 176.097656 255.433594 174.484375 C 254.082031 172.328125 253.703125 170.085938 254.324219 168.027344 C 256.632812 160.597656 258.9375 153.117188 261.269531 145.679688 C 259.042969 147.394531 256.875 149.277344 254.730469 151.105469 C 250.578125 154.625 246.484375 158.152344 242.390625 161.730469 C 239.894531 163.996094 237.339844 166.207031 234.789062 168.4375 C 238.398438 168.835938 242.007812 169.222656 245.617188 169.699219 C 247.867188 170.039062 249.875 171.25 251.421875 173.1875 C 252.996094 175.140625 253.675781 177.277344 253.425781 179.433594 C 253.402344 179.484375 253.402344 179.527344 253.402344 179.570312 C 255.304688 178.816406 257.28125 178.3125 259.375 178.074219 Z M 203.433594 132.441406 C 201.449219 140.644531 199.636719 148.902344 198.007812 157.210938 C 200.9375 154.390625 203.867188 151.578125 206.765625 148.785156 C 209.046875 146.597656 211.328125 144.460938 213.636719 142.371094 C 213.0625 142.390625 212.464844 142.390625 211.894531 142.414062 C 209.644531 142.488281 207.558594 141.753906 205.84375 140.160156 C 204.136719 138.542969 203.292969 136.550781 203.375 134.351562 C 203.375 133.714844 203.40625 133.078125 203.433594 132.441406 Z M 93.964844 151.609375 C 93.914062 149.882812 93.722656 148.210938 93.398438 146.691406 C 93.316406 146.359375 93.15625 145.820312 92.9375 145.300781 C 90.710938 147.308594 87.484375 152.957031 86.640625 154.519531 C 85.882812 155.953125 85.121094 157.429688 84.417969 158.925781 C 87.59375 156.425781 90.769531 153.945312 93.964844 151.609375 Z M 93.964844 151.609375 " fill-opacity="1" fill-rule="evenodd"/><path fill="#efdfbb" d="M 93.453125 105.871094 C 101.769531 103.988281 107.777344 107.511719 111.355469 116.097656 C 113.203125 120.53125 114.125 125.542969 114.125 131.128906 C 114.125 137.984375 113.0625 144.976562 111.007812 152.070312 C 108.945312 159.175781 105.820312 166.539062 101.699219 174.148438 C 102.105469 177.320312 103.597656 183.679688 106.234375 193.210938 C 100.480469 198.039062 94.757812 202.902344 89.027344 207.871094 C 88.136719 203.65625 87.265625 199.417969 86.398438 195.160156 C 80.054688 201.53125 74 205.542969 68.277344 207.484375 C 59.757812 210.375 53.769531 207.945312 50.234375 199.976562 C 48.425781 195.894531 47.496094 191.050781 47.496094 185.316406 C 47.496094 179.777344 48.296875 173.429688 49.992188 166.3125 C 51.445312 160.222656 53.476562 154.128906 56.011719 148.09375 C 58.519531 142.128906 61.621094 136.230469 65.269531 130.449219 C 74.15625 116.3125 83.570312 108.109375 93.453125 105.871094 Z M 79.835938 163.625 C 85.53125 159.164062 91.230469 154.714844 96.925781 150.542969 C 97.144531 146.453125 96.988281 142.769531 96.222656 139.609375 C 95.0625 134.847656 92.8125 132.777344 89.628906 133.582031 C 85.328125 134.667969 80.757812 139.773438 76.007812 148.785156 C 72.164062 156.089844 69.558594 162.796875 68.140625 168.75 C 67.414062 171.8125 67.058594 174.484375 67.058594 176.761719 C 67.058594 179.984375 67.835938 182.375 69.445312 183.871094 C 71.253906 185.546875 73.8125 185.835938 77.09375 184.917969 C 79.15625 184.34375 81.273438 183.128906 83.445312 181.285156 C 82.222656 175.402344 81.027344 169.523438 79.835938 163.625 Z M 123.648438 109.242188 C 130.429688 107.1875 137.234375 105.179688 144.050781 103.269531 C 141.304688 113.632812 138.886719 123.515625 136.886719 132.839844 C 134.878906 142.179688 133.164062 150.972656 131.871094 159.164062 C 135.640625 157.183594 139.4375 155.1875 143.230469 153.234375 C 144.617188 145.464844 146 137.660156 147.382812 129.867188 C 148.765625 122.082031 150.175781 114.296875 151.589844 106.492188 C 158.371094 104.824219 165.179688 103.433594 171.992188 102.054688 C 167.839844 118.007812 164.394531 132.722656 161.730469 146.199219 C 159.078125 159.675781 157.09375 172.046875 155.875 183.148438 C 149.503906 185.304688 143.125 187.429688 136.75 189.824219 C 137.535156 185.449219 138.320312 181.046875 139.136719 176.640625 C 132.460938 180.304688 122.34375 185.984375 108.832031 194.082031 C 111.304688 179.90625 113.769531 165.753906 116.242188 151.609375 C 118.703125 137.484375 121.179688 123.355469 123.648438 109.242188 Z M 177.277344 105.753906 C 184.117188 104.71875 190.953125 103.671875 197.816406 102.839844 C 193.664062 118.074219 190.21875 132.429688 187.539062 145.789062 C 184.851562 159.144531 182.867188 171.5 181.589844 182.851562 C 175.246094 184.371094 168.925781 186.191406 162.605469 187.992188 C 165.042969 174.277344 167.484375 160.566406 169.929688 146.835938 C 172.367188 133.140625 174.808594 119.410156 177.277344 105.753906 Z M 252.617188 133.164062 C 249.277344 135.738281 242.714844 141.441406 232.785156 150.457031 C 229.5 153.441406 226.144531 156.347656 222.886719 159.414062 C 218.570312 163.464844 215.53125 166.636719 213.824219 168.976562 C 223.210938 169.546875 232.597656 170.394531 241.984375 171.398438 C 241.140625 178.566406 240.300781 185.71875 239.460938 192.886719 C 218.871094 190.09375 201.667969 189.414062 187.886719 190.417969 C 187.910156 183.261719 187.96875 176.097656 188.023438 168.929688 C 191.359375 165.234375 197.921875 158.527344 207.9375 149.011719 C 214.746094 142.539062 221.714844 136.28125 228.605469 130.003906 C 221.746094 129.617188 214.390625 129.617188 206.523438 130.035156 C 206.796875 122.730469 207.066406 115.433594 207.339844 108.101562 C 223.453125 108.683594 239.566406 109.933594 255.710938 111.855469 C 255.003906 116.574219 253.945312 123.679688 252.617188 133.164062 Z M 261.21875 179.832031 C 263.988281 180.152344 266.417969 181.316406 268.59375 183.03125 C 271.109375 185.007812 272.421875 187.300781 272.421875 189.972656 C 272.421875 193.59375 270.457031 196.355469 266.5625 198.296875 C 263.539062 199.796875 260.242188 200.289062 256.65625 199.964844 C 253.78125 199.699219 251.308594 198.84375 249.277344 197.347656 C 246.808594 195.523438 245.5625 193.296875 245.5625 190.621094 C 245.5625 187.019531 247.414062 184.082031 251.152344 181.890625 C 254.167969 180.121094 257.527344 179.414062 261.21875 179.832031 Z M 274.703125 110.023438 C 282.996094 113.71875 291.300781 117.546875 299.628906 121.597656 C 293.039062 131.246094 288.191406 139.011719 285.09375 144.722656 C 280.867188 152.5 277.113281 161.183594 273.859375 170.882812 C 268.324219 169.167969 262.789062 167.453125 257.253906 165.882812 C 260.160156 156.515625 263.058594 147.234375 265.960938 137.953125 C 268.867188 128.675781 271.773438 119.347656 274.703125 110.023438 Z M 274.703125 110.023438 " fill-opacity="1" fill-rule="nonzero"/><path fill="#722f37" d="M 46.527344 35.09375 L 125.753906 21.742188 C 127.511719 21.441406 129.132812 21.859375 130.53125 22.957031 C 131.933594 24.054688 132.71875 25.53125 132.847656 27.300781 L 137.179688 86.328125 C 137.398438 89.289062 135.515625 91.921875 132.640625 92.675781 L 109.902344 98.601562 L 116.523438 122.28125 C 116.523438 122.28125 104.027344 110.339844 95.5 102.355469 L 72.902344 108.246094 C 69.898438 109.03125 66.8125 107.453125 65.6875 104.5625 L 41.863281 43.316406 C 41.171875 41.542969 41.300781 39.742188 42.242188 38.089844 C 43.179688 36.445312 44.65625 35.410156 46.527344 35.09375 Z M 46.527344 35.09375 " fill-opacity="1" fill-rule="evenodd"/><g clip-path="url(#5b672e5b64)"><path fill="#722f37" d="M 45.894531 31.285156 L 125.117188 17.933594 C 126.539062 17.691406 127.910156 17.742188 129.226562 18.078125 C 130.546875 18.414062 131.789062 19.03125 132.917969 19.914062 C 134.03125 20.789062 134.917969 21.847656 135.566406 23.0625 C 136.214844 24.285156 136.59375 25.613281 136.699219 27.035156 L 141.039062 86.054688 C 141.210938 88.457031 140.527344 90.730469 139.210938 92.570312 L 139.210938 92.582031 C 137.902344 94.414062 135.957031 95.792969 133.609375 96.410156 L 114.679688 101.339844 L 120.238281 121.253906 L 113.863281 125.074219 C 113.832031 125.042969 101.96875 113.71875 94.421875 106.625 L 73.871094 111.980469 C 71.425781 112.613281 68.945312 112.289062 66.839844 111.210938 C 64.734375 110.140625 63.011719 108.3125 62.089844 105.953125 L 38.261719 44.703125 C 37.707031 43.269531 37.480469 41.820312 37.585938 40.386719 C 37.691406 38.9375 38.128906 37.523438 38.882812 36.191406 C 39.636719 34.871094 40.628906 33.773438 41.824219 32.9375 C 43.027344 32.09375 44.394531 31.535156 45.894531 31.285156 Z M 126.390625 25.550781 L 47.160156 38.902344 C 46.792969 38.964844 46.480469 39.082031 46.238281 39.25 C 45.996094 39.425781 45.785156 39.675781 45.597656 40 C 45.421875 40.3125 45.316406 40.621094 45.296875 40.933594 C 45.273438 41.25 45.328125 41.589844 45.460938 41.925781 L 69.289062 103.164062 C 69.496094 103.703125 69.882812 104.113281 70.34375 104.351562 C 70.808594 104.585938 71.378906 104.660156 71.9375 104.511719 L 96.578125 98.089844 L 98.128906 99.542969 C 101.769531 102.949219 105.628906 106.59375 109.039062 109.828125 L 105.136719 95.859375 L 131.675781 88.941406 C 132.195312 88.804688 132.628906 88.492188 132.929688 88.082031 L 132.933594 88.082031 C 133.222656 87.675781 133.367188 87.160156 133.328125 86.597656 L 128.988281 27.578125 C 128.964844 27.222656 128.890625 26.929688 128.765625 26.691406 C 128.632812 26.453125 128.429688 26.21875 128.140625 25.992188 C 127.878906 25.789062 127.601562 25.644531 127.324219 25.574219 C 127.039062 25.5 126.726562 25.496094 126.390625 25.550781 Z M 126.390625 25.550781 " fill-opacity="1" fill-rule="nonzero"/></g><path fill="#efdfbb" d="M 78.296875 58.953125 L 87.808594 56.324219 C 87.058594 53.601562 88.164062 51.386719 91.0625 50.582031 C 93.660156 49.867188 95.773438 51.0625 96.507812 53.722656 C 97.761719 58.019531 94.195312 60.089844 88.644531 61.628906 L 85.097656 62.605469 L 88.4375 73.519531 L 97.300781 71.066406 L 96.371094 66.550781 C 104.09375 64.351562 108.445312 58.691406 106.339844 51.0625 C 104.0625 42.847656 97.101562 40.003906 88.886719 42.28125 C 79.546875 44.859375 76.152344 51.910156 78.296875 58.953125 Z M 101.699219 80.539062 C 100.835938 77.402344 97.742188 75.652344 94.195312 76.632812 C 90.59375 77.632812 88.835938 80.726562 89.703125 83.863281 C 90.539062 86.871094 93.636719 88.625 97.238281 87.625 C 100.785156 86.648438 102.535156 83.550781 101.699219 80.539062 Z M 101.699219 80.539062 " fill-opacity="1" fill-rule="nonzero"/><path fill="#722f37" d="M 322.839844 30.792969 L 242.480469 21.511719 C 240.707031 21.304688 239.089844 21.804688 237.746094 22.984375 C 236.398438 24.160156 235.683594 25.6875 235.644531 27.476562 L 234.375 87.046875 C 234.304688 90.03125 236.34375 92.585938 239.265625 93.1875 L 262.441406 97.960938 L 257.023438 122.113281 C 257.023438 122.113281 268.960938 109.453125 277.113281 100.976562 L 300.140625 105.722656 C 303.207031 106.351562 306.222656 104.613281 307.207031 101.636719 L 327.957031 38.816406 C 328.554688 37 328.332031 35.199219 327.300781 33.585938 C 326.273438 31.976562 324.734375 31.015625 322.839844 30.792969 Z M 322.839844 30.792969 " fill-opacity="1" fill-rule="evenodd"/><path fill="#722f37" d="M 322.398438 34.632812 L 242.046875 25.351562 C 241.683594 25.308594 241.359375 25.332031 241.085938 25.417969 C 240.8125 25.5 240.542969 25.664062 240.28125 25.886719 C 240.015625 26.125 239.816406 26.375 239.695312 26.636719 C 239.570312 26.898438 239.503906 27.203125 239.496094 27.550781 L 238.226562 87.121094 C 238.210938 87.683594 238.398438 88.207031 238.722656 88.609375 C 239.042969 89.011719 239.496094 89.296875 240.039062 89.410156 L 267.058594 94.976562 L 263.847656 109.28125 C 267.285156 105.671875 271.09375 101.667969 274.332031 98.304688 L 275.8125 96.777344 L 300.910156 101.945312 C 301.484375 102.0625 302.050781 101.957031 302.519531 101.6875 C 302.980469 101.425781 303.347656 100.984375 303.53125 100.429688 L 324.285156 37.605469 C 324.402344 37.25 324.441406 36.90625 324.402344 36.597656 C 324.359375 36.273438 324.242188 35.960938 324.054688 35.660156 C 323.863281 35.355469 323.625 35.117188 323.355469 34.949219 C 323.089844 34.78125 322.765625 34.675781 322.398438 34.632812 Z M 242.917969 17.671875 L 323.277344 26.960938 C 324.804688 27.132812 326.199219 27.621094 327.441406 28.394531 C 328.667969 29.160156 329.722656 30.207031 330.554688 31.515625 C 331.390625 32.824219 331.902344 34.222656 332.078125 35.65625 C 332.257812 37.09375 332.113281 38.566406 331.628906 40.023438 L 310.878906 102.847656 C 310.082031 105.261719 308.449219 107.179688 306.390625 108.371094 C 304.332031 109.5625 301.859375 110.015625 299.371094 109.5 L 278.421875 105.183594 C 270.429688 113.523438 259.867188 124.71875 259.835938 124.757812 L 255.171875 122.28125 L 257.816406 100.945312 L 238.5 96.96875 C 236.113281 96.476562 234.085938 95.1875 232.675781 93.417969 C 231.269531 91.648438 230.464844 89.398438 230.515625 86.972656 L 231.785156 27.402344 C 231.816406 25.960938 232.128906 24.609375 232.707031 23.367188 C 233.292969 22.121094 234.128906 21.019531 235.207031 20.085938 C 236.292969 19.128906 237.507812 18.449219 238.816406 18.039062 C 240.125 17.632812 241.503906 17.511719 242.917969 17.671875 Z M 242.917969 17.671875 " fill-opacity="1" fill-rule="nonzero"/><path fill="#efdfbb" d="M 269.863281 67.457031 L 279.75 69.40625 L 287.558594 37.027344 L 274.949219 34.53125 Z M 279.65625 81 C 280.367188 77.390625 278.128906 74.042969 274.035156 73.234375 C 269.875 72.410156 266.53125 74.65625 265.820312 78.269531 C 265.132812 81.75 267.378906 85.09375 271.535156 85.914062 C 275.625 86.722656 278.972656 84.480469 279.65625 81 Z M 279.65625 81 " fill-opacity="1" fill-rule="nonzero"/><path fill="#722f37" d="M 187.101562 4.015625 C 218.265625 4.015625 243.535156 29.277344 243.535156 60.449219 C 243.535156 88.242188 223.441406 111.34375 196.988281 116.019531 L 169.734375 149.945312 L 176.222656 115.832031 C 150.261719 110.761719 130.667969 87.894531 130.667969 60.449219 C 130.667969 29.277344 155.933594 4.015625 187.101562 4.015625 Z M 187.101562 4.015625 " fill-opacity="1" fill-rule="evenodd"/><path fill="#722f37" d="M 187.101562 0.144531 C 203.757812 0.144531 218.828125 6.894531 229.742188 17.808594 C 240.65625 28.71875 247.40625 43.796875 247.40625 60.449219 C 247.40625 75.171875 242.121094 88.667969 233.34375 99.144531 C 224.730469 109.429688 212.75 116.796875 199.101562 119.550781 L 165.515625 160.203125 L 165.941406 149.234375 L 171.738281 118.765625 C 159.3125 115.5 148.449219 108.363281 140.515625 98.722656 C 131.945312 88.300781 126.796875 74.96875 126.796875 60.449219 C 126.796875 43.796875 133.546875 28.71875 144.460938 17.808594 C 155.375 6.894531 170.453125 0.144531 187.101562 0.144531 Z M 224.269531 23.28125 C 214.757812 13.769531 201.617188 7.886719 187.101562 7.886719 C 172.585938 7.886719 159.445312 13.769531 149.933594 23.28125 C 140.421875 32.792969 134.539062 45.933594 134.539062 60.449219 C 134.539062 73.132812 139.011719 84.757812 146.472656 93.820312 C 154.066406 103.054688 164.753906 109.652344 176.964844 112.035156 L 180.730469 112.777344 L 176.417969 135.460938 L 193.984375 113.601562 L 196.320312 112.210938 C 208.734375 110.015625 219.652344 103.464844 227.421875 94.183594 C 235.066406 85.058594 239.664062 73.296875 239.664062 60.449219 C 239.664062 45.933594 233.78125 32.792969 224.269531 23.28125 Z M 224.269531 23.28125 " fill-opacity="1" fill-rule="nonzero"/><path fill="#efdfbb" d="M 161.433594 57.761719 L 175.835938 71.40625 L 215.84375 37.375 L 223.8125 46.75 L 175.375 87.964844 L 152.929688 66.703125 Z M 161.433594 57.761719 " fill-opacity="1" fill-rule="nonzero"/><g clip-path="url(#a021bba863)"><path fill="#722f37" d="M 207.910156 235.164062 C 207.910156 233.960938 208.890625 232.984375 210.089844 232.984375 L 223.769531 232.984375 C 224.582031 232.984375 225.320312 233.433594 225.699219 234.148438 C 226.078125 234.863281 226.027344 235.726562 225.570312 236.394531 L 214.226562 252.917969 L 223.769531 252.917969 C 224.972656 252.917969 225.949219 253.898438 225.949219 255.097656 C 225.949219 256.300781 224.972656 257.277344 223.769531 257.277344 L 210.089844 257.277344 C 209.28125 257.277344 208.539062 256.832031 208.164062 256.117188 C 207.785156 255.398438 207.835938 254.535156 208.292969 253.867188 L 219.632812 237.34375 L 210.089844 237.34375 C 208.890625 237.34375 207.910156 236.371094 207.910156 235.164062 Z M 186.527344 257.28125 C 191.59375 257.28125 195.71875 253.15625 195.71875 248.085938 L 195.71875 235.164062 C 195.71875 233.960938 194.742188 232.984375 193.542969 232.984375 C 192.339844 232.984375 191.363281 233.960938 191.363281 235.164062 L 191.363281 248.085938 C 191.363281 250.75 189.195312 252.921875 186.527344 252.921875 C 183.859375 252.921875 181.6875 250.753906 181.6875 248.085938 L 181.6875 235.164062 C 181.6875 233.960938 180.710938 232.984375 179.507812 232.984375 C 178.308594 232.984375 177.332031 233.960938 177.332031 235.164062 L 177.332031 248.085938 C 177.332031 253.15625 181.457031 257.28125 186.527344 257.28125 Z M 201.980469 257.28125 C 203.183594 257.28125 204.160156 256.304688 204.160156 255.101562 L 204.160156 235.164062 C 204.160156 233.960938 203.183594 232.984375 201.980469 232.984375 C 200.78125 232.984375 199.800781 233.960938 199.800781 235.164062 L 199.800781 255.097656 C 199.800781 256.304688 200.78125 257.28125 201.980469 257.28125 Z M 149.042969 245.132812 C 149.042969 238.4375 154.492188 232.984375 161.191406 232.984375 C 167.890625 232.984375 173.339844 238.433594 173.339844 245.132812 C 173.339844 247.609375 172.59375 249.914062 171.316406 251.832031 L 172.902344 253.359375 C 173.769531 254.191406 173.800781 255.570312 172.964844 256.4375 C 172.535156 256.886719 171.964844 257.105469 171.390625 257.105469 C 170.851562 257.105469 170.308594 256.902344 169.886719 256.5 L 168.292969 254.976562 C 166.292969 256.425781 163.84375 257.277344 161.191406 257.277344 C 154.492188 257.28125 149.042969 251.832031 149.042969 245.132812 Z M 153.402344 245.132812 C 153.402344 249.429688 156.894531 252.921875 161.191406 252.921875 C 162.605469 252.921875 163.925781 252.539062 165.070312 251.882812 L 163.359375 250.238281 C 162.492188 249.40625 162.460938 248.027344 163.296875 247.160156 C 164.128906 246.292969 165.507812 246.261719 166.378906 247.097656 L 168.089844 248.742188 C 168.65625 247.664062 168.980469 246.441406 168.980469 245.140625 C 168.980469 240.84375 165.488281 237.351562 161.191406 237.351562 C 156.894531 237.34375 153.402344 240.835938 153.402344 245.132812 Z M 275.019531 227.027344 L 275.019531 336.117188 C 275.019531 341.804688 270.394531 346.429688 264.707031 346.429688 L 210.570312 346.429688 L 214.949219 359.109375 L 227.167969 359.109375 C 228.367188 359.109375 229.34375 360.085938 229.34375 361.285156 L 229.34375 372.695312 C 229.34375 373.898438 228.367188 374.875 227.167969 374.875 L 147.828125 374.875 C 146.625 374.875 145.648438 373.898438 145.648438 372.695312 L 145.648438 361.285156 C 145.648438 360.085938 146.625 359.109375 147.828125 359.109375 L 160.046875 359.109375 L 164.425781 346.429688 L 110.289062 346.429688 C 104.605469 346.429688 99.976562 341.804688 99.976562 336.117188 L 99.976562 227.027344 C 99.976562 221.339844 104.605469 216.710938 110.289062 216.710938 L 264.707031 216.710938 C 270.394531 216.710938 275.019531 221.339844 275.019531 227.027344 Z M 104.335938 227.027344 L 104.335938 324.941406 L 270.664062 324.941406 L 270.664062 227.027344 C 270.664062 223.742188 267.988281 221.070312 264.707031 221.070312 L 110.289062 221.070312 C 107.003906 221.070312 104.335938 223.738281 104.335938 227.027344 Z M 224.988281 363.464844 L 150.007812 363.464844 L 150.007812 370.519531 L 224.988281 370.519531 Z M 205.960938 346.425781 L 169.035156 346.425781 L 164.65625 359.109375 L 210.335938 359.109375 Z M 270.664062 336.113281 L 270.664062 329.296875 L 104.335938 329.296875 L 104.335938 336.113281 C 104.335938 339.394531 107.007812 342.066406 110.289062 342.066406 L 264.707031 342.066406 C 267.988281 342.066406 270.664062 339.398438 270.664062 336.113281 Z M 132.964844 310.996094 C 132.964844 314.523438 130.097656 317.394531 126.566406 317.394531 L 121.332031 317.394531 C 120.128906 317.394531 119.152344 316.417969 119.152344 315.214844 L 119.152344 299.753906 C 119.152344 298.550781 120.128906 297.574219 121.332031 297.574219 L 126.007812 297.574219 C 129.144531 297.574219 131.699219 300.125 131.699219 303.265625 C 131.699219 304.363281 131.382812 305.382812 130.84375 306.253906 C 132.140625 307.421875 132.964844 309.113281 132.964844 310.996094 Z M 126.007812 301.929688 L 123.511719 301.929688 L 123.511719 304.597656 L 126.007812 304.597656 C 126.730469 304.597656 127.339844 303.988281 127.339844 303.265625 C 127.34375 302.542969 126.734375 301.929688 126.007812 301.929688 Z M 128.609375 310.996094 C 128.609375 309.871094 127.695312 308.957031 126.566406 308.957031 L 123.511719 308.957031 L 123.511719 313.039062 L 126.566406 313.039062 C 127.695312 313.039062 128.609375 312.121094 128.609375 310.996094 Z M 117.6875 286.011719 L 124.042969 270.546875 C 124.378906 269.730469 125.175781 269.195312 126.058594 269.195312 C 126.941406 269.195312 127.738281 269.730469 128.074219 270.546875 L 134.429688 286.011719 C 134.886719 287.121094 134.359375 288.398438 133.242188 288.855469 C 132.96875 288.96875 132.691406 289.019531 132.414062 289.019531 C 131.558594 289.019531 130.742188 288.507812 130.398438 287.667969 L 129.40625 285.25 L 122.714844 285.25 L 121.722656 287.667969 C 121.265625 288.78125 119.992188 289.3125 118.878906 288.855469 C 117.765625 288.402344 117.230469 287.125 117.6875 286.011719 Z M 124.503906 280.894531 L 127.613281 280.894531 L 126.058594 277.109375 Z M 212.402344 305.890625 L 212.402344 309.074219 C 212.402344 313.660156 208.671875 317.394531 204.085938 317.394531 L 199.78125 317.394531 C 198.578125 317.394531 197.601562 316.417969 197.601562 315.214844 L 197.601562 299.753906 C 197.601562 298.550781 198.578125 297.574219 199.78125 297.574219 L 204.085938 297.574219 C 208.675781 297.570312 212.402344 301.304688 212.402344 305.890625 Z M 208.046875 305.890625 C 208.046875 303.707031 206.269531 301.929688 204.085938 301.929688 L 201.960938 301.929688 L 201.960938 313.035156 L 204.085938 313.035156 C 206.265625 313.035156 208.046875 311.257812 208.046875 309.070312 Z M 148.421875 277.804688 L 177.476562 277.804688 C 178.675781 277.804688 179.65625 276.828125 179.65625 275.625 C 179.65625 274.421875 178.675781 273.445312 177.476562 273.445312 L 148.421875 273.445312 C 147.21875 273.445312 146.242188 274.421875 146.242188 275.625 C 146.242188 276.828125 147.21875 277.804688 148.421875 277.804688 Z M 148.421875 287.609375 L 168.398438 287.609375 C 169.597656 287.609375 170.574219 286.632812 170.574219 285.429688 C 170.574219 284.226562 169.597656 283.25 168.398438 283.25 L 148.421875 283.25 C 147.21875 283.25 146.242188 284.226562 146.242188 285.429688 C 146.242188 286.632812 147.21875 287.609375 148.421875 287.609375 Z M 138.441406 289.019531 C 139.640625 289.019531 140.617188 288.039062 140.617188 286.839844 C 140.617188 285.636719 139.640625 284.660156 138.441406 284.660156 C 137.238281 284.660156 136.261719 285.636719 136.261719 286.839844 C 136.261719 288.042969 137.234375 289.019531 138.441406 289.019531 Z M 148.421875 306.175781 L 177.476562 306.175781 C 178.675781 306.175781 179.65625 305.199219 179.65625 304 C 179.65625 302.796875 178.675781 301.820312 177.476562 301.820312 L 148.421875 301.820312 C 147.21875 301.820312 146.242188 302.796875 146.242188 304 C 146.242188 305.203125 147.21875 306.175781 148.421875 306.175781 Z M 148.421875 315.984375 L 168.398438 315.984375 C 169.597656 315.984375 170.574219 315.003906 170.574219 313.804688 C 170.574219 312.601562 169.597656 311.625 168.398438 311.625 L 148.421875 311.625 C 147.21875 311.625 146.242188 312.601562 146.242188 313.804688 C 146.242188 315.007812 147.21875 315.984375 148.421875 315.984375 Z M 138.441406 317.394531 C 139.640625 317.394531 140.617188 316.417969 140.617188 315.214844 C 140.617188 314.015625 139.640625 313.039062 138.441406 313.039062 C 137.238281 313.039062 136.261719 314.015625 136.261719 315.214844 C 136.261719 316.417969 137.234375 317.394531 138.441406 317.394531 Z M 224.058594 275.625 C 224.058594 276.828125 225.035156 277.804688 226.238281 277.804688 L 255.289062 277.804688 C 256.492188 277.804688 257.46875 276.828125 257.46875 275.625 C 257.46875 274.421875 256.492188 273.445312 255.289062 273.445312 L 226.238281 273.445312 C 225.035156 273.445312 224.058594 274.421875 224.058594 275.625 Z M 226.238281 287.609375 L 246.210938 287.609375 C 247.414062 287.609375 248.390625 286.632812 248.390625 285.429688 C 248.390625 284.226562 247.414062 283.25 246.210938 283.25 L 226.238281 283.25 C 225.035156 283.25 224.058594 284.226562 224.058594 285.429688 C 224.058594 286.632812 225.035156 287.609375 226.238281 287.609375 Z M 216.253906 284.660156 C 215.050781 284.660156 214.074219 285.636719 214.074219 286.839844 C 214.074219 288.039062 215.050781 289.019531 216.253906 289.019531 C 217.457031 289.019531 218.433594 288.039062 218.433594 286.839844 C 218.433594 285.636719 217.457031 284.660156 216.253906 284.660156 Z M 255.289062 301.820312 L 226.238281 301.820312 C 225.035156 301.820312 224.058594 302.796875 224.058594 304 C 224.058594 305.199219 225.035156 306.175781 226.238281 306.175781 L 255.289062 306.175781 C 256.492188 306.175781 257.46875 305.199219 257.46875 304 C 257.46875 302.796875 256.492188 301.820312 255.289062 301.820312 Z M 246.210938 311.625 L 226.238281 311.625 C 225.035156 311.625 224.058594 312.601562 224.058594 313.804688 C 224.058594 315.003906 225.035156 315.984375 226.238281 315.984375 L 246.210938 315.984375 C 247.414062 315.984375 248.390625 315.003906 248.390625 313.804688 C 248.390625 312.601562 247.414062 311.625 246.210938 311.625 Z M 216.253906 313.039062 C 215.050781 313.039062 214.074219 314.015625 214.074219 315.214844 C 214.074219 316.417969 215.050781 317.394531 216.253906 317.394531 C 217.457031 317.394531 218.433594 316.417969 218.433594 315.214844 C 218.433594 314.011719 217.457031 313.039062 216.253906 313.039062 Z M 205.941406 289.019531 L 206.0625 289.019531 C 208.011719 289.019531 209.878906 288.429688 211.472656 287.3125 C 212.457031 286.621094 212.703125 285.261719 212.011719 284.273438 C 211.320312 283.289062 209.964844 283.046875 208.976562 283.738281 C 208.117188 284.335938 207.109375 284.65625 206.0625 284.65625 L 205.941406 284.65625 C 203.125 284.65625 200.832031 282.363281 200.832031 279.550781 L 200.832031 278.65625 C 200.832031 275.84375 203.125 273.550781 205.941406 273.550781 L 206.0625 273.550781 C 207.109375 273.550781 208.117188 273.867188 208.976562 274.46875 C 209.964844 275.160156 211.320312 274.921875 212.011719 273.933594 C 212.703125 272.945312 212.460938 271.585938 211.472656 270.894531 C 209.878906 269.78125 208.007812 269.1875 206.0625 269.1875 L 205.941406 269.1875 C 200.722656 269.1875 196.476562 273.433594 196.476562 278.652344 L 196.476562 279.546875 C 196.476562 284.773438 200.722656 289.019531 205.941406 289.019531 Z M 205.941406 289.019531 " fill-opacity="1" fill-rule="nonzero"/></g></svg>