<svg xmlns="http://www.w3.org/2000/svg" xmlns:xlink="http://www.w3.org/1999/xlink" width="500" zoomAndPan="magnify" viewBox="0 0 375 374.999991" height="500" preserveAspectRatio="xMidYMid meet" version="1.0"><defs><clipPath id="5bd1fd028c"><path d="M 198 155 L 351.75 155 L 351.75 298 L 198 298 Z M 198 155 " clip-rule="nonzero"/></clipPath><clipPath id="e662fcd93b"><path d="M 37.5 68 L 191 68 L 191 210 L 37.5 210 Z M 37.5 68 " clip-rule="nonzero"/></clipPath><clipPath id="785a94a5f8"><path d="M 249 96.402344 L 267.222656 96.402344 L 267.222656 115 L 249 115 Z M 249 96.402344 " clip-rule="nonzero"/></clipPath><clipPath id="efd8640624"><path d="M 216.222656 129 L 235 129 L 235 147.402344 L 216.222656 147.402344 Z M 216.222656 129 " clip-rule="nonzero"/></clipPath><clipPath id="f519941508"><path d="M 165.015625 54.328125 L 210 54.328125 L 210 75 L 165.015625 75 Z M 165.015625 54.328125 " clip-rule="nonzero"/></clipPath><clipPath id="dfd48535cf"><path d="M 176 76 L 220.515625 76 L 220.515625 96.328125 L 176 96.328125 Z M 176 76 " clip-rule="nonzero"/></clipPath><clipPath id="a42c7e6baf"><path d="M 211 62 L 220.515625 62 L 220.515625 77 L 211 77 Z M 211 62 " clip-rule="nonzero"/></clipPath><clipPath id="7e25e07493"><path d="M 186 54.328125 L 189 54.328125 L 189 57 L 186 57 Z M 186 54.328125 " clip-rule="nonzero"/></clipPath><clipPath id="a184d58fc7"><path d="M 165.015625 74 L 174 74 L 174 89 L 165.015625 89 Z M 165.015625 74 " clip-rule="nonzero"/></clipPath><clipPath id="adbec3784c"><path d="M 91 239 L 194 239 L 194 324.210938 L 91 324.210938 Z M 91 239 " clip-rule="nonzero"/></clipPath><clipPath id="66debe5a00"><path d="M 109 235.710938 L 118 235.710938 L 118 247 L 109 247 Z M 109 235.710938 " clip-rule="nonzero"/></clipPath></defs><path fill="#722f37" d="M 259.351562 226.5625 L 290.980469 226.5625 L 275.164062 194.097656 Z M 259.351562 226.5625 " fill-opacity="1" fill-rule="nonzero"/><path fill="#722f37" d="M 133.703125 114.234375 L 94.339844 114.234375 C 97.257812 123.4375 103.277344 139.234375 113.933594 152.082031 C 124.589844 139.234375 130.777344 123.4375 133.703125 114.234375 Z M 133.703125 114.234375 " fill-opacity="1" fill-rule="nonzero"/><g clip-path="url(#5bd1fd028c)"><path fill="#722f37" d="M 275.164062 155.730469 C 232.882812 155.730469 198.675781 186.804688 198.675781 225.171875 C 198.675781 241.144531 204.691406 256.074219 214.832031 267.707031 C 212.769531 276.386719 208.472656 285.242188 199.707031 291.320312 C 198.503906 292.1875 198.160156 293.921875 199.019531 295.136719 C 199.363281 295.660156 200.050781 296.179688 200.738281 296.179688 C 200.738281 296.351562 220.332031 300.867188 240.957031 287.328125 C 251.273438 292.011719 262.960938 294.617188 275.164062 294.617188 C 317.277344 294.617188 351.484375 263.542969 351.484375 225.171875 C 351.484375 186.804688 317.277344 155.730469 275.164062 155.730469 Z M 317.105469 266.492188 C 314.015625 267.882812 310.402344 266.664062 308.855469 263.542969 L 296.996094 238.886719 L 253.335938 238.886719 L 241.304688 263.542969 C 239.929688 266.664062 236.148438 267.882812 233.222656 266.492188 C 230.132812 264.929688 228.929688 261.285156 230.472656 258.160156 L 243.882812 230.554688 C 244.054688 230.207031 244.226562 229.859375 244.398438 229.511719 L 269.667969 177.429688 L 269.667969 177.257812 L 269.839844 177.257812 L 269.839844 177.082031 C 269.839844 177.082031 269.839844 177.082031 270.007812 176.910156 L 270.007812 176.738281 L 270.355469 176.390625 L 270.355469 176.214844 L 270.527344 176.214844 L 270.527344 176.042969 L 270.699219 176.042969 L 270.699219 175.871094 L 270.871094 175.871094 L 270.871094 175.695312 L 271.042969 175.695312 L 271.042969 175.523438 L 271.214844 175.523438 L 271.214844 175.351562 L 271.386719 175.351562 L 271.558594 175.175781 L 271.730469 175.175781 L 271.730469 175 L 271.902344 175 C 272.074219 174.824219 272.074219 174.824219 272.246094 174.824219 L 272.246094 174.652344 L 272.417969 174.652344 L 272.589844 174.480469 L 272.933594 174.480469 L 273.105469 174.304688 C 273.621094 174.132812 274.308594 173.957031 274.824219 173.957031 L 275.339844 173.957031 C 276.03125 173.957031 276.71875 174.132812 277.234375 174.304688 L 277.40625 174.480469 L 277.75 174.480469 L 277.75 174.652344 L 277.921875 174.652344 L 278.09375 174.824219 C 278.265625 174.824219 278.265625 174.824219 278.265625 175 L 278.4375 175 L 278.609375 175.171875 L 278.78125 175.171875 L 278.78125 175.347656 L 278.953125 175.347656 L 279.125 175.519531 L 279.296875 175.519531 L 279.296875 175.691406 L 279.46875 175.867188 L 279.640625 176.039062 L 279.8125 176.214844 L 279.8125 176.386719 L 279.984375 176.386719 L 279.984375 176.558594 L 280.15625 176.558594 L 280.15625 176.734375 L 280.328125 176.90625 C 280.328125 177.078125 280.5 177.078125 280.5 177.078125 L 280.5 177.253906 L 280.671875 177.425781 L 305.941406 229.511719 C 306.113281 229.859375 306.285156 230.203125 306.457031 230.550781 L 319.863281 258.15625 C 321.40625 261.285156 320.027344 264.929688 317.105469 266.492188 Z M 317.105469 266.492188 " fill-opacity="1" fill-rule="nonzero"/></g><g clip-path="url(#e662fcd93b)"><path fill="#722f37" d="M 148.140625 200 C 168.765625 213.542969 188.363281 209.027344 188.363281 209.027344 C 189.046875 208.855469 189.734375 208.332031 190.082031 207.8125 C 190.941406 206.597656 190.59375 204.859375 189.394531 203.992188 C 180.625 197.917969 176.328125 189.238281 174.4375 180.382812 C 184.410156 168.75 190.425781 153.992188 190.425781 137.847656 C 190.425781 99.480469 156.21875 68.402344 113.933594 68.402344 C 71.820312 68.402344 37.613281 99.480469 37.613281 137.847656 C 37.613281 176.214844 71.820312 207.292969 113.933594 207.292969 C 126.308594 207.292969 137.828125 204.6875 148.140625 200 Z M 80.414062 177.949219 C 79.726562 174.652344 81.789062 171.355469 85.054688 170.660156 C 92.960938 168.921875 99.667969 165.277344 105.339844 160.589844 C 91.417969 144.097656 84.367188 123.4375 81.617188 114.234375 L 71.648438 114.234375 C 68.382812 114.234375 65.632812 111.457031 65.632812 108.160156 C 65.632812 104.6875 68.382812 101.910156 71.648438 101.910156 L 107.917969 101.910156 L 107.917969 94.964844 C 107.917969 91.492188 110.667969 88.714844 113.933594 88.714844 C 117.371094 88.714844 120.121094 91.492188 120.121094 94.964844 L 120.121094 101.910156 L 156.21875 101.910156 C 159.65625 101.910156 162.40625 104.6875 162.40625 108.160156 C 162.40625 111.457031 159.65625 114.234375 156.21875 114.234375 L 146.417969 114.234375 C 143.667969 123.4375 136.621094 144.097656 122.527344 160.589844 C 128.371094 165.277344 135.074219 168.921875 142.980469 170.660156 C 146.25 171.351562 148.3125 174.652344 147.621094 177.949219 C 146.933594 181.25 143.667969 183.507812 140.402344 182.636719 C 130.089844 180.382812 121.324219 175.519531 113.933594 169.269531 C 106.714844 175.519531 97.949219 180.382812 87.632812 182.636719 C 84.367188 183.507812 81.101562 181.25 80.414062 177.949219 Z M 80.414062 177.949219 " fill-opacity="1" fill-rule="nonzero"/></g><path fill="#722f37" d="M 272.414062 299.824219 L 272.414062 311.285156 C 272.414062 319.269531 266.054688 325.867188 258.148438 325.867188 L 104.308594 325.867188 C 96.402344 325.867188 89.871094 319.269531 89.871094 311.285156 L 89.871094 209.027344 C 84.542969 207.464844 79.382812 205.554688 74.398438 203.125 L 74.398438 333.503906 C 74.398438 356.421875 92.960938 375 115.652344 375 L 246.632812 375 C 269.320312 375 287.882812 356.421875 287.882812 333.503906 L 287.882812 298.785156 C 283.589844 299.476562 279.464844 299.824219 275.164062 299.824219 C 274.304688 299.824219 273.273438 299.824219 272.414062 299.824219 Z M 181.140625 363.714844 C 173.75 363.714844 167.734375 357.636719 167.734375 350.171875 C 167.734375 342.707031 173.75 336.804688 181.140625 336.804688 C 188.535156 336.804688 194.550781 342.707031 194.550781 350.171875 C 194.550781 357.636719 188.535156 363.714844 181.140625 363.714844 Z M 181.140625 363.714844 " fill-opacity="1" fill-rule="nonzero"/><path fill="#722f37" d="M 89.871094 63.714844 C 89.871094 55.726562 96.402344 49.304688 104.308594 49.304688 L 258.148438 49.304688 C 266.054688 49.304688 272.414062 55.726562 272.414062 63.714844 L 272.414062 150.691406 C 273.273438 150.519531 274.304688 150.519531 275.164062 150.519531 C 279.464844 150.519531 283.589844 150.867188 287.882812 151.5625 L 287.882812 41.667969 C 287.882812 18.75 269.320312 0 246.632812 0 L 115.652344 0 C 92.960938 0 74.398438 18.75 74.398438 41.667969 L 74.398438 72.742188 C 79.382812 70.3125 84.539062 68.226562 89.871094 66.667969 Z M 181.140625 11.457031 C 188.535156 11.457031 194.550781 17.535156 194.550781 24.824219 C 194.550781 32.292969 188.53125 38.367188 181.140625 38.367188 C 173.75 38.367188 167.734375 32.292969 167.734375 24.824219 C 167.734375 17.535156 173.753906 11.457031 181.140625 11.457031 Z M 181.140625 11.457031 " fill-opacity="1" fill-rule="nonzero"/><path fill="#722f37" d="M 230.914062 115.34375 C 231.765625 114.53125 232.445312 113.589844 232.957031 112.53125 C 233.46875 111.46875 233.78125 110.351562 233.890625 109.179688 L 227.96875 109.179688 C 228.089844 110.347656 228.402344 111.460938 228.90625 112.519531 C 229.414062 113.578125 230.082031 114.519531 230.914062 115.34375 Z M 230.914062 115.34375 " fill-opacity="1" fill-rule="nonzero"/><path fill="#722f37" d="M 243.515625 121.03125 L 243.515625 101.238281 C 243.515625 100.878906 243.449219 100.535156 243.316406 100.207031 C 243.179688 99.875 242.988281 99.582031 242.738281 99.328125 C 242.488281 99.074219 242.199219 98.878906 241.871094 98.738281 C 241.542969 98.597656 241.199219 98.527344 240.84375 98.523438 L 221.050781 98.523438 C 220.691406 98.523438 220.34375 98.589844 220.011719 98.730469 C 219.679688 98.867188 219.386719 99.0625 219.128906 99.316406 C 218.875 99.570312 218.679688 99.867188 218.542969 100.199219 C 218.40625 100.53125 218.335938 100.875 218.339844 101.238281 L 218.339844 121.03125 C 218.339844 121.390625 218.414062 121.730469 218.550781 122.058594 C 218.691406 122.390625 218.886719 122.679688 219.140625 122.929688 C 219.394531 123.179688 219.6875 123.371094 220.019531 123.503906 C 220.347656 123.640625 220.691406 123.707031 221.050781 123.703125 L 240.839844 123.703125 C 241.191406 123.703125 241.535156 123.632812 241.859375 123.496094 C 242.1875 123.359375 242.476562 123.167969 242.726562 122.917969 C 242.976562 122.667969 243.167969 122.378906 243.304688 122.054688 C 243.441406 121.726562 243.511719 121.386719 243.515625 121.03125 Z M 238.015625 118.226562 C 238.15625 118.230469 238.292969 118.257812 238.421875 118.316406 C 238.554688 118.371094 238.667969 118.449219 238.769531 118.546875 C 238.867188 118.648438 238.945312 118.761719 239 118.894531 C 239.054688 119.023438 239.082031 119.160156 239.085938 119.300781 C 239.085938 119.441406 239.058594 119.578125 239.003906 119.710938 C 238.953125 119.84375 238.875 119.957031 238.773438 120.058594 C 238.671875 120.160156 238.558594 120.238281 238.425781 120.292969 C 238.296875 120.34375 238.160156 120.371094 238.015625 120.371094 C 235.40625 120.378906 233.039062 119.628906 230.914062 118.113281 C 228.808594 119.628906 226.460938 120.378906 223.867188 120.371094 C 223.722656 120.371094 223.585938 120.34375 223.453125 120.292969 C 223.324219 120.238281 223.207031 120.160156 223.105469 120.058594 C 223.007812 119.957031 222.929688 119.84375 222.875 119.710938 C 222.820312 119.578125 222.792969 119.441406 222.792969 119.300781 C 222.800781 119.007812 222.90625 118.757812 223.113281 118.546875 C 223.320312 118.339844 223.570312 118.234375 223.867188 118.226562 C 225.796875 118.226562 227.582031 117.710938 229.222656 116.683594 C 228.230469 115.667969 227.441406 114.515625 226.851562 113.226562 C 226.257812 111.941406 225.898438 110.589844 225.769531 109.179688 L 223.875 109.179688 C 223.585938 109.167969 223.34375 109.054688 223.148438 108.847656 C 222.949219 108.640625 222.851562 108.394531 222.851562 108.105469 C 222.851562 107.820312 222.949219 107.574219 223.148438 107.367188 C 223.34375 107.160156 223.585938 107.046875 223.875 107.035156 L 229.847656 107.035156 L 229.847656 102.925781 C 229.855469 102.632812 229.960938 102.382812 230.167969 102.171875 C 230.375 101.964844 230.621094 101.859375 230.914062 101.847656 C 231.058594 101.847656 231.195312 101.875 231.328125 101.929688 C 231.460938 101.984375 231.574219 102.0625 231.675781 102.164062 C 231.777344 102.265625 231.855469 102.378906 231.910156 102.511719 C 231.964844 102.644531 231.992188 102.78125 231.992188 102.925781 L 231.992188 107.035156 L 238 107.035156 C 238.289062 107.046875 238.53125 107.160156 238.726562 107.367188 C 238.925781 107.574219 239.023438 107.820312 239.023438 108.105469 C 239.023438 108.394531 238.925781 108.640625 238.726562 108.847656 C 238.53125 109.054688 238.289062 109.167969 238 109.179688 L 236.078125 109.179688 C 235.964844 110.589844 235.613281 111.941406 235.027344 113.230469 C 234.441406 114.519531 233.652344 115.671875 232.660156 116.683594 C 234.292969 117.722656 236.082031 118.238281 238.015625 118.226562 Z M 238.015625 118.226562 " fill-opacity="1" fill-rule="nonzero"/><path fill="#722f37" d="M 262.617188 120.300781 L 245.660156 120.300781 L 245.660156 121.03125 C 245.660156 121.347656 245.625 121.660156 245.5625 121.972656 C 245.5 122.28125 245.410156 122.582031 245.285156 122.871094 C 245.164062 123.164062 245.015625 123.441406 244.839844 123.703125 C 244.664062 123.964844 244.464844 124.207031 244.242188 124.433594 C 244.015625 124.65625 243.773438 124.855469 243.511719 125.03125 C 243.25 125.207031 242.972656 125.355469 242.679688 125.476562 C 242.386719 125.597656 242.085938 125.6875 241.777344 125.75 C 241.46875 125.8125 241.15625 125.84375 240.839844 125.84375 L 240.140625 125.84375 L 240.140625 142.804688 C 240.140625 143.160156 240.210938 143.503906 240.347656 143.832031 C 240.484375 144.160156 240.675781 144.449219 240.929688 144.699219 C 241.179688 144.949219 241.472656 145.144531 241.800781 145.277344 C 242.128906 145.414062 242.472656 145.480469 242.828125 145.476562 L 262.617188 145.476562 C 262.972656 145.476562 263.3125 145.410156 263.640625 145.273438 C 263.964844 145.136719 264.253906 144.945312 264.503906 144.695312 C 264.757812 144.445312 264.949219 144.15625 265.085938 143.828125 C 265.21875 143.5 265.289062 143.160156 265.289062 142.804688 L 265.289062 123.007812 C 265.292969 122.652344 265.230469 122.308594 265.09375 121.976562 C 264.960938 121.644531 264.769531 121.351562 264.519531 121.097656 C 264.269531 120.839844 263.976562 120.644531 263.648438 120.507812 C 263.316406 120.371094 262.972656 120.300781 262.617188 120.300781 Z M 258.53125 141.226562 C 258.394531 141.273438 258.257812 141.296875 258.117188 141.292969 C 257.972656 141.285156 257.839844 141.253906 257.707031 141.199219 C 257.578125 141.140625 257.464844 141.058594 257.367188 140.957031 C 257.265625 140.855469 257.191406 140.738281 257.136719 140.605469 L 255.851562 137.042969 L 249.613281 137.042969 L 248.308594 140.605469 C 248.230469 140.8125 248.097656 140.980469 247.914062 141.105469 C 247.730469 141.230469 247.53125 141.292969 247.308594 141.292969 C 247.175781 141.292969 247.046875 141.269531 246.921875 141.226562 C 246.789062 141.175781 246.671875 141.105469 246.570312 141.011719 C 246.46875 140.914062 246.390625 140.804688 246.332031 140.675781 C 246.273438 140.550781 246.242188 140.417969 246.238281 140.277344 C 246.234375 140.136719 246.257812 140.003906 246.304688 139.871094 L 251.71875 125.195312 C 251.792969 124.980469 251.921875 124.808594 252.101562 124.675781 C 252.285156 124.542969 252.488281 124.472656 252.714844 124.46875 C 252.945312 124.46875 253.15625 124.535156 253.347656 124.667969 C 253.539062 124.800781 253.671875 124.976562 253.753906 125.195312 L 259.15625 139.871094 C 259.207031 140.003906 259.226562 140.140625 259.222656 140.28125 C 259.21875 140.421875 259.1875 140.554688 259.128906 140.683594 C 259.070312 140.8125 258.988281 140.921875 258.882812 141.019531 C 258.78125 141.113281 258.660156 141.183594 258.53125 141.230469 Z M 258.53125 141.226562 " fill-opacity="1" fill-rule="nonzero"/><path fill="#722f37" d="M 250.40625 134.914062 L 255.035156 134.914062 L 252.703125 128.628906 Z M 250.40625 134.914062 " fill-opacity="1" fill-rule="nonzero"/><g clip-path="url(#785a94a5f8)"><path fill="#722f37" d="M 267.433594 113.121094 C 267.433594 112.570312 267.40625 112.023438 267.351562 111.480469 C 267.300781 110.933594 267.21875 110.390625 267.113281 109.855469 C 267.003906 109.316406 266.871094 108.785156 266.710938 108.261719 C 266.554688 107.734375 266.367188 107.222656 266.160156 106.714844 C 265.949219 106.207031 265.714844 105.714844 265.457031 105.230469 C 265.199219 104.746094 264.917969 104.277344 264.613281 103.820312 C 264.308594 103.363281 263.980469 102.925781 263.632812 102.5 C 263.285156 102.078125 262.917969 101.671875 262.53125 101.285156 C 262.144531 100.898438 261.738281 100.527344 261.3125 100.179688 C 260.890625 99.832031 260.449219 99.507812 259.992188 99.203125 C 259.539062 98.898438 259.070312 98.617188 258.585938 98.359375 C 258.101562 98.097656 257.605469 97.867188 257.101562 97.65625 C 256.59375 97.445312 256.078125 97.261719 255.554688 97.101562 C 255.03125 96.941406 254.5 96.808594 253.960938 96.703125 C 253.421875 96.59375 252.882812 96.515625 252.335938 96.460938 C 251.792969 96.40625 251.246094 96.378906 250.695312 96.378906 C 250.402344 96.386719 250.152344 96.492188 249.945312 96.699219 C 249.738281 96.910156 249.632812 97.160156 249.628906 97.453125 C 249.628906 97.597656 249.652344 97.734375 249.707031 97.863281 C 249.761719 97.996094 249.839844 98.109375 249.9375 98.210938 C 250.039062 98.3125 250.15625 98.390625 250.285156 98.441406 C 250.417969 98.496094 250.554688 98.523438 250.695312 98.523438 C 251.625 98.523438 252.546875 98.609375 253.460938 98.785156 C 254.371094 98.960938 255.257812 99.222656 256.121094 99.570312 C 256.984375 99.914062 257.808594 100.339844 258.589844 100.84375 C 259.371094 101.347656 260.097656 101.917969 260.769531 102.5625 C 261.4375 103.203125 262.042969 103.90625 262.582031 104.664062 C 263.117188 105.421875 263.578125 106.222656 263.964844 107.070312 C 264.347656 107.917969 264.648438 108.792969 264.863281 109.695312 C 265.082031 110.601562 265.210938 111.515625 265.25 112.445312 L 261.589844 112.445312 C 261.445312 112.441406 261.308594 112.46875 261.175781 112.523438 C 261.042969 112.578125 260.925781 112.65625 260.824219 112.757812 C 260.722656 112.859375 260.644531 112.972656 260.589844 113.105469 C 260.539062 113.238281 260.511719 113.375 260.511719 113.519531 C 260.515625 113.660156 260.542969 113.796875 260.601562 113.925781 C 260.65625 114.058594 260.734375 114.171875 260.835938 114.273438 C 260.933594 114.371094 261.050781 114.449219 261.179688 114.503906 C 261.3125 114.558594 261.445312 114.585938 261.589844 114.589844 L 266.359375 114.589844 C 266.5 114.589844 266.636719 114.5625 266.769531 114.507812 C 266.902344 114.457031 267.015625 114.378906 267.117188 114.277344 C 267.21875 114.175781 267.296875 114.0625 267.351562 113.929688 C 267.40625 113.800781 267.433594 113.664062 267.433594 113.519531 C 267.425781 113.453125 267.414062 113.386719 267.390625 113.320312 C 267.410156 113.253906 267.425781 113.1875 267.433594 113.121094 Z M 267.433594 113.121094 " fill-opacity="1" fill-rule="nonzero"/></g><g clip-path="url(#efd8640624)"><path fill="#722f37" d="M 232.9375 145.480469 C 232.007812 145.476562 231.089844 145.386719 230.179688 145.210938 C 229.269531 145.03125 228.382812 144.773438 227.523438 144.425781 C 226.664062 144.082031 225.84375 143.65625 225.0625 143.15625 C 224.285156 142.652344 223.558594 142.082031 222.886719 141.441406 C 222.214844 140.800781 221.609375 140.105469 221.074219 139.347656 C 220.535156 138.59375 220.070312 137.796875 219.6875 136.953125 C 219.300781 136.109375 218.996094 135.238281 218.777344 134.335938 C 218.554688 133.433594 218.421875 132.523438 218.375 131.59375 L 222.078125 131.59375 C 222.371094 131.589844 222.621094 131.484375 222.828125 131.277344 C 223.039062 131.070312 223.144531 130.820312 223.152344 130.527344 C 223.152344 130.382812 223.125 130.246094 223.070312 130.117188 C 223.015625 129.984375 222.9375 129.867188 222.839844 129.765625 C 222.738281 129.667969 222.621094 129.589844 222.488281 129.535156 C 222.359375 129.480469 222.21875 129.453125 222.078125 129.453125 L 217.265625 129.453125 C 217.125 129.457031 216.988281 129.484375 216.859375 129.539062 C 216.730469 129.59375 216.617188 129.671875 216.519531 129.773438 C 216.421875 129.875 216.347656 129.988281 216.296875 130.121094 C 216.246094 130.25 216.222656 130.386719 216.222656 130.527344 C 216.226562 130.578125 216.238281 130.632812 216.253906 130.683594 C 216.238281 130.75 216.230469 130.816406 216.222656 130.882812 C 216.222656 131.429688 216.25 131.976562 216.304688 132.523438 C 216.359375 133.066406 216.4375 133.609375 216.546875 134.144531 C 216.652344 134.683594 216.785156 135.214844 216.945312 135.738281 C 217.105469 136.261719 217.289062 136.777344 217.5 137.285156 C 217.707031 137.789062 217.941406 138.285156 218.199219 138.769531 C 218.460938 139.25 218.742188 139.71875 219.042969 140.175781 C 219.347656 140.632812 219.675781 141.070312 220.023438 141.496094 C 220.371094 141.917969 220.738281 142.324219 221.125 142.710938 C 221.511719 143.097656 221.917969 143.464844 222.339844 143.8125 C 222.761719 144.160156 223.203125 144.488281 223.65625 144.792969 C 224.113281 145.097656 224.582031 145.378906 225.066406 145.636719 C 225.546875 145.898438 226.042969 146.132812 226.546875 146.339844 C 227.054688 146.550781 227.570312 146.738281 228.09375 146.894531 C 228.617188 147.054688 229.148438 147.1875 229.683594 147.296875 C 230.222656 147.40625 230.761719 147.484375 231.308594 147.539062 C 231.851562 147.59375 232.398438 147.621094 232.949219 147.621094 C 233.089844 147.625 233.230469 147.601562 233.363281 147.546875 C 233.496094 147.492188 233.609375 147.417969 233.710938 147.3125 C 233.8125 147.210938 233.890625 147.09375 233.941406 146.960938 C 233.996094 146.828125 234.019531 146.691406 234.015625 146.546875 C 234.015625 146.40625 233.988281 146.269531 233.933594 146.136719 C 233.878906 146.003906 233.800781 145.890625 233.699219 145.789062 C 233.597656 145.6875 233.480469 145.609375 233.347656 145.558594 C 233.214844 145.503906 233.078125 145.476562 232.9375 145.480469 Z M 232.9375 145.480469 " fill-opacity="1" fill-rule="nonzero"/></g><path fill="#722f37" d="M 177.015625 67.621094 C 177.628906 67.621094 178.125 67.125 178.125 66.515625 L 178.125 59.875 C 178.125 59.265625 177.628906 58.769531 177.015625 58.769531 C 176.40625 58.769531 175.910156 59.265625 175.910156 59.875 L 175.910156 62.089844 L 173.699219 62.089844 L 173.699219 59.875 C 173.699219 59.265625 173.203125 58.769531 172.589844 58.769531 C 171.980469 58.769531 171.484375 59.265625 171.484375 59.875 L 171.484375 66.515625 C 171.484375 67.125 171.980469 67.621094 172.589844 67.621094 C 173.203125 67.621094 173.699219 67.125 173.699219 66.515625 L 173.699219 64.300781 L 175.910156 64.300781 L 175.910156 66.515625 C 175.910156 67.125 176.40625 67.621094 177.015625 67.621094 Z M 177.015625 67.621094 " fill-opacity="1" fill-rule="nonzero"/><path fill="#722f37" d="M 179.78125 62.089844 L 179.78125 64.300781 C 179.78125 66.132812 181.273438 67.621094 183.101562 67.621094 C 184.933594 67.621094 186.421875 66.132812 186.421875 64.300781 L 186.421875 62.089844 C 186.421875 60.257812 184.933594 58.769531 183.101562 58.769531 C 181.273438 58.769531 179.78125 60.257812 179.78125 62.089844 Z M 184.207031 62.089844 L 184.207031 64.300781 C 184.207031 64.910156 183.710938 65.40625 183.101562 65.40625 C 182.492188 65.40625 181.996094 64.910156 181.996094 64.300781 L 181.996094 62.089844 C 181.996094 61.476562 182.492188 60.980469 183.101562 60.980469 C 183.710938 60.980469 184.207031 61.476562 184.207031 62.089844 Z M 184.207031 62.089844 " fill-opacity="1" fill-rule="nonzero"/><path fill="#722f37" d="M 188.082031 66.515625 C 188.082031 67.125 188.574219 67.621094 189.1875 67.621094 L 192.507812 67.621094 C 193.117188 67.621094 193.613281 67.125 193.613281 66.515625 C 193.613281 65.902344 193.117188 65.40625 192.507812 65.40625 L 190.292969 65.40625 L 190.292969 59.875 C 190.292969 59.265625 189.796875 58.769531 189.1875 58.769531 C 188.574219 58.769531 188.082031 59.265625 188.082031 59.875 Z M 188.082031 66.515625 " fill-opacity="1" fill-rule="nonzero"/><path fill="#722f37" d="M 185.867188 83.109375 C 185.257812 83.109375 184.761719 83.605469 184.761719 84.214844 L 184.761719 86.429688 L 182.546875 86.429688 L 182.546875 84.214844 C 182.546875 83.605469 182.054688 83.109375 181.441406 83.109375 C 180.832031 83.109375 180.335938 83.605469 180.335938 84.214844 L 180.335938 90.855469 C 180.335938 91.464844 180.832031 91.960938 181.441406 91.960938 C 182.054688 91.960938 182.546875 91.464844 182.546875 90.855469 L 182.546875 88.640625 L 184.761719 88.640625 L 184.761719 90.855469 C 184.761719 91.464844 185.257812 91.960938 185.867188 91.960938 C 186.480469 91.960938 186.972656 91.464844 186.972656 90.855469 L 186.972656 84.214844 C 186.972656 83.605469 186.480469 83.109375 185.867188 83.109375 Z M 185.867188 83.109375 " fill-opacity="1" fill-rule="nonzero"/><path fill="#722f37" d="M 200.25 89.75 L 198.039062 89.75 L 198.039062 84.214844 C 198.039062 83.605469 197.542969 83.109375 196.933594 83.109375 C 196.320312 83.109375 195.824219 83.605469 195.824219 84.214844 L 195.824219 90.855469 C 195.824219 91.464844 196.320312 91.960938 196.933594 91.960938 L 200.25 91.960938 C 200.863281 91.960938 201.359375 91.464844 201.359375 90.855469 C 201.359375 90.242188 200.863281 89.75 200.25 89.75 Z M 200.25 89.75 " fill-opacity="1" fill-rule="nonzero"/><path fill="#722f37" d="M 212.976562 83.109375 C 211.144531 83.109375 209.65625 84.597656 209.65625 86.429688 L 209.65625 88.640625 C 209.65625 90.472656 211.144531 91.960938 212.976562 91.960938 C 214.804688 91.960938 216.292969 90.472656 216.292969 88.640625 L 216.292969 86.429688 C 216.292969 84.597656 214.804688 83.109375 212.976562 83.109375 Z M 214.082031 88.640625 C 214.082031 89.25 213.585938 89.75 212.976562 89.75 C 212.363281 89.75 211.867188 89.25 211.867188 88.640625 L 211.867188 86.429688 C 211.867188 85.820312 212.363281 85.324219 212.976562 85.324219 C 213.585938 85.324219 214.082031 85.820312 214.082031 86.429688 Z M 214.082031 88.640625 " fill-opacity="1" fill-rule="nonzero"/><path fill="#722f37" d="M 207.441406 89.75 L 205.230469 89.75 L 205.230469 84.214844 C 205.230469 83.605469 204.734375 83.109375 204.125 83.109375 C 203.511719 83.109375 203.015625 83.605469 203.015625 84.214844 L 203.015625 90.855469 C 203.015625 91.464844 203.511719 91.960938 204.125 91.960938 L 207.441406 91.960938 C 208.054688 91.960938 208.550781 91.464844 208.550781 90.855469 C 208.550781 90.242188 208.054688 89.75 207.441406 89.75 Z M 207.441406 89.75 " fill-opacity="1" fill-rule="nonzero"/><path fill="#722f37" d="M 197.398438 66.941406 L 197.578125 66.515625 L 200.710938 66.515625 C 200.710938 66.515625 200.890625 66.941406 200.890625 66.941406 C 201.125 67.503906 201.777344 67.769531 202.335938 67.535156 C 202.898438 67.300781 203.167969 66.652344 202.933594 66.089844 L 200.164062 59.449219 C 199.992188 59.039062 199.589844 58.769531 199.144531 58.769531 C 198.699219 58.769531 198.296875 59.039062 198.125 59.449219 L 195.359375 66.089844 C 195.121094 66.652344 195.390625 67.300781 195.953125 67.535156 C 196.515625 67.769531 197.164062 67.503906 197.398438 66.941406 Z M 199.144531 62.753906 L 199.789062 64.300781 L 198.5 64.300781 Z M 199.144531 62.753906 " fill-opacity="1" fill-rule="nonzero"/><path fill="#722f37" d="M 193.058594 85.324219 C 193.671875 85.324219 194.164062 84.828125 194.164062 84.214844 C 194.164062 83.605469 193.671875 83.109375 193.058594 83.109375 L 189.742188 83.109375 C 189.128906 83.109375 188.632812 83.605469 188.632812 84.214844 L 188.632812 90.855469 C 188.632812 91.464844 189.128906 91.960938 189.742188 91.960938 L 193.058594 91.960938 C 193.671875 91.960938 194.164062 91.464844 194.164062 90.855469 C 194.164062 90.242188 193.671875 89.75 193.058594 89.75 L 190.847656 89.75 L 190.847656 88.640625 L 193.058594 88.640625 C 193.671875 88.640625 194.164062 88.144531 194.164062 87.535156 C 194.164062 86.925781 193.671875 86.429688 193.058594 86.429688 L 190.847656 86.429688 L 190.847656 85.324219 Z M 193.058594 85.324219 " fill-opacity="1" fill-rule="nonzero"/><g clip-path="url(#f519941508)"><path fill="#722f37" d="M 168.441406 72.046875 L 198.335938 72.046875 C 198.335938 72.046875 200.3125 73.945312 200.3125 73.949219 C 200.742188 74.359375 201.421875 74.359375 201.847656 73.949219 L 203.828125 72.046875 L 206.058594 72.046875 C 207.890625 72.046875 209.378906 70.558594 209.378906 68.726562 L 209.378906 57.664062 C 209.378906 55.832031 207.890625 54.34375 206.058594 54.34375 L 191.675781 54.34375 C 191.066406 54.34375 190.570312 54.839844 190.570312 55.449219 C 190.570312 56.0625 191.066406 56.554688 191.675781 56.554688 L 206.058594 56.554688 C 206.671875 56.554688 207.167969 57.050781 207.167969 57.664062 L 207.167969 68.726562 C 207.167969 69.335938 206.671875 69.832031 206.058594 69.832031 L 203.382812 69.832031 C 203.097656 69.832031 202.820312 69.945312 202.613281 70.140625 L 201.082031 71.617188 L 199.546875 70.140625 C 199.339844 69.945312 199.066406 69.832031 198.78125 69.832031 L 168.441406 69.832031 C 167.832031 69.832031 167.335938 69.335938 167.335938 68.726562 L 167.335938 57.664062 C 167.335938 57.050781 167.832031 56.554688 168.441406 56.554688 L 182.824219 56.554688 C 183.4375 56.554688 183.933594 56.0625 183.933594 55.449219 C 183.933594 54.839844 183.4375 54.34375 182.824219 54.34375 L 168.441406 54.34375 C 166.613281 54.34375 165.121094 55.832031 165.121094 57.664062 L 165.121094 68.726562 C 165.121094 70.558594 166.613281 72.046875 168.441406 72.046875 Z M 168.441406 72.046875 " fill-opacity="1" fill-rule="nonzero"/></g><g clip-path="url(#dfd48535cf)"><path fill="#722f37" d="M 217.125 78.683594 L 187.234375 78.683594 L 185.25 76.78125 C 184.824219 76.367188 184.148438 76.367188 183.71875 76.78125 L 181.734375 78.683594 L 179.507812 78.683594 C 177.675781 78.683594 176.1875 80.171875 176.1875 82.003906 L 176.1875 93.066406 C 176.1875 94.898438 177.675781 96.386719 179.507812 96.386719 L 217.125 96.386719 C 218.953125 96.386719 220.441406 94.898438 220.441406 93.066406 L 220.441406 82.003906 C 220.441406 80.171875 218.953125 78.683594 217.125 78.683594 Z M 218.230469 93.066406 C 218.230469 93.675781 217.734375 94.175781 217.125 94.175781 L 179.507812 94.175781 C 178.894531 94.175781 178.398438 93.675781 178.398438 93.066406 L 178.398438 82.003906 C 178.398438 81.394531 178.894531 80.898438 179.507812 80.898438 L 182.179688 80.898438 C 182.464844 80.898438 182.738281 80.785156 182.945312 80.589844 L 184.484375 79.113281 L 186.023438 80.589844 C 186.230469 80.785156 186.503906 80.898438 186.789062 80.898438 L 217.125 80.898438 C 217.734375 80.898438 218.230469 81.394531 218.230469 82.003906 Z M 218.230469 93.066406 " fill-opacity="1" fill-rule="nonzero"/></g><g clip-path="url(#a42c7e6baf)"><path fill="#722f37" d="M 212.699219 64.300781 L 213.804688 64.300781 C 215.023438 64.300781 216.015625 65.292969 216.015625 66.515625 L 216.015625 72.695312 L 215.691406 72.371094 C 215.261719 71.9375 214.5625 71.9375 214.128906 72.371094 C 213.695312 72.800781 213.695312 73.503906 214.128906 73.933594 C 214.128906 73.933594 216.339844 76.148438 216.339844 76.148438 C 216.769531 76.578125 217.476562 76.578125 217.90625 76.148438 L 220.117188 73.933594 C 220.550781 73.503906 220.550781 72.800781 220.117188 72.371094 C 219.6875 71.9375 218.988281 71.9375 218.554688 72.371094 L 218.230469 72.695312 L 218.230469 66.515625 C 218.230469 64.074219 216.246094 62.089844 213.804688 62.089844 L 212.699219 62.089844 C 212.085938 62.089844 211.589844 62.582031 211.589844 63.195312 C 211.589844 63.804688 212.085938 64.300781 212.699219 64.300781 Z M 212.699219 64.300781 " fill-opacity="1" fill-rule="nonzero"/></g><g clip-path="url(#7e25e07493)"><path fill="#722f37" d="M 188.355469 55.449219 C 188.355469 55.597656 188.328125 55.738281 188.273438 55.875 C 188.21875 56.007812 188.136719 56.128906 188.035156 56.230469 C 187.929688 56.335938 187.808594 56.414062 187.675781 56.472656 C 187.539062 56.527344 187.398438 56.554688 187.25 56.554688 C 187.105469 56.554688 186.964844 56.527344 186.828125 56.472656 C 186.691406 56.414062 186.574219 56.335938 186.46875 56.230469 C 186.363281 56.128906 186.285156 56.007812 186.230469 55.875 C 186.171875 55.738281 186.144531 55.597656 186.144531 55.449219 C 186.144531 55.304688 186.171875 55.160156 186.230469 55.027344 C 186.285156 54.890625 186.363281 54.769531 186.46875 54.667969 C 186.574219 54.5625 186.691406 54.484375 186.828125 54.425781 C 186.964844 54.371094 187.105469 54.34375 187.25 54.34375 C 187.398438 54.34375 187.539062 54.371094 187.675781 54.425781 C 187.808594 54.484375 187.929688 54.5625 188.035156 54.667969 C 188.136719 54.769531 188.21875 54.890625 188.273438 55.027344 C 188.328125 55.160156 188.355469 55.304688 188.355469 55.449219 Z M 188.355469 55.449219 " fill-opacity="1" fill-rule="nonzero"/></g><g clip-path="url(#a184d58fc7)"><path fill="#722f37" d="M 172.867188 86.429688 L 171.761719 86.429688 C 170.542969 86.429688 169.546875 85.4375 169.546875 84.214844 L 169.546875 78.035156 L 169.871094 78.359375 C 170.304688 78.792969 171.003906 78.792969 171.4375 78.359375 C 171.871094 77.929688 171.871094 77.226562 171.4375 76.796875 C 171.4375 76.796875 169.222656 74.582031 169.222656 74.582031 C 168.792969 74.152344 168.089844 74.152344 167.660156 74.582031 L 165.445312 76.796875 C 165.015625 77.226562 165.015625 77.929688 165.445312 78.359375 C 165.878906 78.792969 166.578125 78.792969 167.011719 78.359375 L 167.335938 78.035156 L 167.335938 84.214844 C 167.335938 86.65625 169.320312 88.640625 171.761719 88.640625 L 172.867188 88.640625 C 173.480469 88.640625 173.972656 88.144531 173.972656 87.535156 C 173.972656 86.925781 173.480469 86.429688 172.867188 86.429688 Z M 172.867188 86.429688 " fill-opacity="1" fill-rule="nonzero"/></g><g clip-path="url(#adbec3784c)"><path fill="#722f37" d="M 91.40625 307.609375 C 91.414062 307.632812 91.429688 307.644531 91.4375 307.664062 C 91.628906 308.214844 92.960938 312.074219 92.875 311.824219 C 93.253906 312.921875 94.140625 313.746094 95.261719 314.042969 L 132.535156 323.980469 C 133.332031 324.152344 134.074219 324.128906 134.863281 323.789062 L 191.546875 298.058594 C 192.6875 297.554688 193.46875 296.453125 193.574219 295.207031 C 193.703125 293.648438 193.914062 291.621094 193.890625 291.285156 C 193.925781 290.738281 193.625 290.253906 193.027344 290.15625 L 163.046875 285.207031 C 175.574219 265.707031 161.847656 239.476562 138.71875 239.476562 C 122.691406 239.476562 109.652344 252.75 109.652344 269.066406 C 109.652344 280.011719 115.539062 289.566406 124.242188 294.683594 L 92.097656 306.347656 C 91.613281 306.503906 91.273438 307.046875 91.40625 307.609375 Z M 96.886719 310.753906 C 96.3125 310.753906 96.308594 309.878906 96.886719 309.878906 C 97.464844 309.878906 97.464844 310.753906 96.886719 310.753906 Z M 98.992188 312.886719 C 98.714844 312.886719 98.492188 312.550781 98.492188 312.140625 C 98.492188 311.726562 98.714844 311.390625 98.992188 311.390625 C 99.269531 311.390625 99.492188 311.726562 99.492188 312.140625 C 99.492188 312.550781 99.269531 312.886719 98.992188 312.886719 Z M 192.007812 296.632812 C 191.921875 296.71875 176.117188 303.941406 176.117188 303.941406 L 179.835938 301.949219 C 182.636719 300.628906 185.351562 299.136719 187.960938 297.480469 C 187.542969 297.550781 187.121094 297.625 186.703125 297.699219 C 188.390625 296.996094 189.949219 295.980469 191.277344 294.722656 C 190.933594 294.828125 190.589844 294.929688 190.246094 295.035156 C 191.136719 294.410156 191.828125 293.550781 192.339844 292.589844 L 192.503906 292.519531 C 192.414062 293.382812 192.082031 296.558594 192.007812 296.632812 Z M 110.71875 269.066406 C 110.71875 253.339844 123.28125 240.542969 138.71875 240.542969 C 154.160156 240.542969 166.71875 253.339844 166.71875 269.066406 C 166.71875 284.792969 154.160156 297.585938 138.71875 297.585938 C 123.28125 297.585938 110.71875 284.792969 110.71875 269.066406 Z M 127.335938 311.753906 L 127.125 309.792969 L 117.039062 307.425781 L 113.699219 308.46875 L 103.902344 306.109375 L 129.089844 296.949219 C 140.183594 300.933594 152.097656 297.742188 159.90625 289.257812 L 182.394531 292.894531 L 134.183594 313.175781 C 133.960938 313.269531 133.71875 313.285156 133.464844 313.226562 Z M 126.195312 311.019531 C 125.855469 310.511719 125.328125 310.113281 124.757812 309.878906 C 124.820312 310.027344 124.863281 310.175781 124.925781 310.324219 C 124.550781 309.914062 124.132812 309.914062 121.816406 309.054688 L 122.027344 309.011719 L 126.660156 310.003906 L 126.660156 311.402344 C 126.511719 311.148438 126.363281 310.894531 126.214844 310.660156 C 126.277344 310.765625 126.277344 310.914062 126.195312 311.019531 Z M 127.546875 296.375 L 103.523438 305.109375 C 103.089844 305.28125 102.816406 305.714844 102.84375 306.183594 C 102.875 306.664062 103.195312 307.046875 103.660156 307.164062 L 133.21875 314.269531 C 133.679688 314.375 134.152344 314.351562 134.601562 314.15625 L 182.808594 293.878906 C 183.816406 293.457031 183.632812 291.988281 182.5625 291.824219 L 160.75 288.3125 C 161.328125 287.628906 161.871094 286.914062 162.386719 286.179688 L 192.859375 291.207031 L 132.144531 317.347656 C 132.003906 317.398438 131.863281 317.410156 131.738281 317.375 L 92.429688 307.375 C 92.433594 307.375 92.433594 307.367188 92.4375 307.363281 C 92.453125 307.351562 92.476562 307.355469 92.488281 307.339844 L 125.476562 295.371094 C 126.152344 295.726562 126.839844 296.070312 127.546875 296.375 Z M 127.546875 296.375 " fill-opacity="1" fill-rule="nonzero"/></g><path fill="#722f37" d="M 177.949219 293.425781 C 178.074219 293.367188 178.277344 293.316406 178.332031 293.183594 C 178.425781 292.949219 178.171875 292.726562 177.96875 292.695312 C 176.214844 292.402344 175.65625 292.367188 169.53125 291.496094 C 169.9375 292.152344 170.132812 292.945312 169.964844 293.699219 C 170.398438 293.542969 170.832031 293.386719 171.261719 293.226562 C 170.789062 294.148438 170.015625 294.910156 169.089844 295.371094 C 169.609375 295.316406 170.167969 295.207031 170.691406 295.222656 C 169.53125 296.53125 165.894531 298.589844 164.28125 299.347656 L 163.726562 299.824219 C 165.484375 299.035156 158.097656 302.355469 177.949219 293.425781 Z M 177.949219 293.425781 " fill-opacity="1" fill-rule="nonzero"/><path fill="#722f37" d="M 115.007812 304.222656 C 115.007812 304.492188 116.773438 304.492188 116.773438 304.222656 C 116.773438 303.953125 115.007812 303.953125 115.007812 304.222656 Z M 115.007812 304.222656 " fill-opacity="1" fill-rule="nonzero"/><path fill="#722f37" d="M 117.679688 305.039062 C 118.25 305.039062 118.253906 304.855469 117.679688 304.855469 C 117.109375 304.855469 117.105469 305.039062 117.679688 305.039062 Z M 117.679688 305.039062 " fill-opacity="1" fill-rule="nonzero"/><path fill="#722f37" d="M 114.847656 305.433594 C 114.847656 305.6875 115.890625 305.6875 115.890625 305.433594 C 115.890625 305.179688 114.847656 305.179688 114.847656 305.433594 Z M 114.847656 305.433594 " fill-opacity="1" fill-rule="nonzero"/><path fill="#722f37" d="M 163.605469 276.417969 C 165.136719 271.441406 164.648438 264.230469 163.359375 260.394531 C 162.710938 258.46875 161.679688 256.644531 160.1875 255.265625 C 161.714844 259.046875 162.089844 263.117188 161.503906 267.152344 C 161.8125 266.59375 162.121094 266.035156 162.429688 265.476562 C 162.675781 268.625 162.015625 271.839844 160.550781 274.636719 C 161.074219 274.121094 161.597656 273.601562 162.121094 273.082031 C 161.964844 275.417969 160.996094 277.6875 159.414062 279.40625 C 159.773438 279.273438 160.132812 279.140625 160.492188 279.011719 C 159.71875 281.425781 158.265625 283.621094 156.347656 285.277344 C 156.738281 284.929688 161.492188 283.285156 163.605469 276.417969 Z M 163.605469 276.417969 " fill-opacity="1" fill-rule="nonzero"/><path fill="#722f37" d="M 115.097656 262.746094 C 114.910156 262.730469 114.734375 262.855469 114.546875 262.855469 C 114.292969 262.859375 114.070312 262.644531 113.820312 262.671875 C 113.507812 262.707031 113.359375 263.117188 113.46875 263.410156 C 113.578125 263.703125 113.851562 263.902344 114.109375 264.082031 C 114.367188 264.261719 114.710938 264.214844 115.015625 264.125 C 115.222656 263.917969 115.4375 263.695312 115.5 263.40625 C 115.558594 263.121094 115.390625 262.765625 115.097656 262.746094 Z M 115.097656 262.746094 " fill-opacity="1" fill-rule="nonzero"/><path fill="#722f37" d="M 117.011719 259.503906 C 116.878906 259.488281 116.75 259.566406 116.613281 259.5625 C 116.4375 259.554688 116.289062 259.394531 116.109375 259.402344 C 115.886719 259.414062 115.765625 259.699219 115.832031 259.910156 C 115.898438 260.125 116.082031 260.273438 116.257812 260.410156 C 116.433594 260.550781 116.679688 260.527344 116.898438 260.480469 C 117.050781 260.339844 117.210938 260.1875 117.265625 259.988281 C 117.324219 259.789062 117.214844 259.53125 117.011719 259.503906 Z M 117.011719 259.503906 " fill-opacity="1" fill-rule="nonzero"/><path fill="#722f37" d="M 118.175781 264.207031 C 118.109375 264.222656 118.0625 264.28125 118 264.300781 C 117.914062 264.328125 117.816406 264.277344 117.734375 264.3125 C 117.632812 264.355469 117.625 264.507812 117.691406 264.597656 C 117.757812 264.6875 117.871094 264.726562 117.976562 264.761719 C 118.082031 264.792969 118.195312 264.742188 118.289062 264.683594 C 118.335938 264.59375 118.386719 264.496094 118.378906 264.390625 C 118.371094 264.289062 118.277344 264.183594 118.175781 264.207031 Z M 118.175781 264.207031 " fill-opacity="1" fill-rule="nonzero"/><path fill="#722f37" d="M 103.074219 277.109375 C 102.828125 277.273438 102.765625 277.609375 102.929688 277.851562 L 114.5625 294.980469 C 114.667969 295.132812 114.835938 295.214844 115.007812 295.214844 C 115.109375 295.214844 115.214844 295.183594 115.308594 295.121094 C 115.550781 294.957031 115.613281 294.625 115.449219 294.378906 L 103.816406 277.25 C 103.644531 277.007812 103.316406 276.945312 103.074219 277.109375 Z M 103.074219 277.109375 " fill-opacity="1" fill-rule="nonzero"/><path fill="#722f37" d="M 171.058594 283.453125 L 177.375 263.675781 C 177.464844 263.394531 177.308594 263.09375 177.027344 263.003906 C 176.746094 262.921875 176.449219 263.070312 176.355469 263.351562 L 170.039062 283.128906 C 169.824219 283.804688 170.839844 284.128906 171.058594 283.453125 Z M 171.058594 283.453125 " fill-opacity="1" fill-rule="nonzero"/><path fill="#722f37" d="M 94.453125 236.613281 C 97.316406 239.445312 100.308594 241.589844 103.292969 243.839844 C 106.335938 246.003906 109.390625 248.242188 113.140625 249.757812 C 109.429688 243.414062 101.839844 237.539062 94.453125 236.613281 Z M 94.453125 236.613281 " fill-opacity="1" fill-rule="nonzero"/><path fill="#722f37" d="M 103.386719 251.644531 C 100.894531 251.695312 98.421875 251.945312 95.90625 252.363281 C 99.722656 253.894531 102.828125 253.964844 105.007812 254.65625 C 107.113281 255.054688 109.171875 254.667969 110.6875 253.144531 C 107.820312 250.910156 105.109375 251.675781 103.386719 251.644531 Z M 103.386719 251.644531 " fill-opacity="1" fill-rule="nonzero"/><g clip-path="url(#66debe5a00)"><path fill="#722f37" d="M 117.644531 246.519531 C 117.773438 243.089844 115.660156 241.742188 114.683594 240.5 C 113.222656 238.800781 111.625 237.234375 109.855469 235.757812 C 110.84375 239.339844 112.578125 241.652344 113.253906 243.492188 C 114.285156 245.476562 115.871094 246.433594 117.644531 246.519531 Z M 117.644531 246.519531 " fill-opacity="1" fill-rule="nonzero"/></g><path fill="#722f37" d="M 139.621094 254.714844 C 139.601562 254.421875 139.332031 254.175781 139.054688 254.214844 L 131.050781 254.6875 L 130.664062 249.886719 C 130.640625 249.59375 130.382812 249.378906 130.089844 249.398438 C 129.796875 249.421875 129.578125 249.679688 129.601562 249.972656 L 129.984375 254.75 L 122.699219 255.179688 C 122.015625 255.222656 122.042969 256.246094 122.730469 256.246094 C 122.742188 256.246094 122.753906 256.246094 122.761719 256.246094 L 139.117188 255.28125 C 139.410156 255.261719 139.636719 255.011719 139.621094 254.714844 Z M 139.621094 254.714844 " fill-opacity="1" fill-rule="nonzero"/><path fill="#722f37" d="M 136.304688 268.960938 C 136.597656 268.949219 136.828125 268.699219 136.816406 268.40625 C 136.804688 268.113281 136.546875 267.898438 136.261719 267.894531 C 135.203125 267.933594 134.179688 267.742188 133.203125 267.421875 C 133.898438 266.824219 134.539062 266.167969 135.039062 265.402344 C 136.527344 263.109375 137 260.160156 136.292969 257.515625 C 136.21875 257.230469 135.921875 257.0625 135.640625 257.136719 C 135.355469 257.214844 135.1875 257.507812 135.265625 257.792969 C 135.890625 260.148438 135.472656 262.777344 134.140625 264.820312 C 133.597656 265.65625 132.875 266.359375 132.078125 266.964844 C 128.519531 265.226562 126.972656 261.757812 127.171875 258.59375 C 127.214844 257.902344 126.152344 257.796875 126.105469 258.523438 C 125.933594 261.257812 126.972656 264.054688 128.882812 266.011719 C 129.523438 266.664062 130.277344 267.179688 131.074219 267.628906 C 130.167969 268.140625 129.195312 268.53125 128.171875 268.691406 C 127.484375 268.800781 127.625 269.851562 128.339844 269.746094 C 129.71875 269.53125 131.042969 268.992188 132.210938 268.21875 C 133.558594 268.769531 134.910156 269.007812 136.304688 268.960938 Z M 136.304688 268.960938 " fill-opacity="1" fill-rule="nonzero"/><path fill="#722f37" d="M 148.78125 274.789062 L 142.988281 289.273438 C 142.882812 289.546875 143.015625 289.855469 143.289062 289.964844 C 143.558594 290.078125 143.875 289.941406 143.984375 289.667969 L 146.226562 284.054688 L 151.902344 284.261719 L 153.960938 290.25 C 154.039062 290.472656 154.246094 290.609375 154.46875 290.609375 C 154.828125 290.609375 155.09375 290.253906 154.972656 289.902344 L 149.78125 274.8125 C 149.628906 274.367188 148.976562 274.308594 148.78125 274.789062 Z M 146.648438 283 L 149.242188 276.519531 L 151.53125 283.179688 Z M 146.648438 283 " fill-opacity="1" fill-rule="nonzero"/><path fill="#722f37" d="M 151.121094 255.042969 C 150.878906 254.878906 150.542969 254.945312 150.378906 255.191406 L 129.136719 287.34375 C 128.746094 287.929688 129.636719 288.519531 130.03125 287.929688 L 151.273438 255.78125 C 151.433594 255.535156 151.367188 255.203125 151.121094 255.042969 Z M 151.121094 255.042969 " fill-opacity="1" fill-rule="nonzero"/></svg>